<svg width="186.000000" height="60.000000" viewBox="0 0 186 60" fill="none" xmlns="http://www.w3.org/2000/svg" xmlns:xlink="http://www.w3.org/1999/xlink">
	<desc>
			Created with Pixso.
	</desc>
	<defs/>
	<rect id="Button" rx="19.500000" width="185.000000" height="59.000000" transform="translate(0.500000 0.500000)" fill="#A259FF" fill-opacity="1.000000"/>
	<path id="Vector (Stroke)" d="M25.25 23.12C25.25 22.78 25.52 22.5 25.87 22.5L35.87 22.5C36.22 22.5 36.5 22.78 36.5 23.12L36.5 33.12C36.5 33.46 36.22 33.75 35.87 33.75L32.12 33.75C31.77 33.75 31.5 33.46 31.5 33.12C31.5 32.78 31.77 32.5 32.12 32.5L35.25 32.5L35.25 23.75L26.5 23.75L26.5 26.87C26.5 27.21 26.22 27.5 25.87 27.5C25.52 27.5 25.25 27.21 25.25 26.87L25.25 23.12Z" fill="#FFFFFF" fill-opacity="1.000000" fill-rule="evenodd"/>
	<path id="Vector (Stroke)" d="M21.5 26.87C21.5 26.53 21.77 26.25 22.12 26.25L32.12 26.25C32.47 26.25 32.75 26.53 32.75 26.87L32.75 36.87C32.75 37.21 32.47 37.5 32.12 37.5L22.12 37.5C21.77 37.5 21.5 37.21 21.5 36.87L21.5 26.87ZM22.75 27.5L22.75 36.25L31.5 36.25L31.5 27.5L22.75 27.5Z" fill="#FFFFFF" fill-opacity="1.000000" fill-rule="evenodd"/>
	<path id="Button" d="M145.11 28.19C145.11 25.92 146.78 24.18 149.31 24.2C151.54 24.21 153.74 25.58 153.75 29.82C153.75 33.82 151.98 36.16 149.18 36.16C146.98 36.16 145.46 34.75 145.22 32.82L147.29 32.82C147.5 33.75 148.18 34.33 149.18 34.33C150.79 34.33 151.7 32.85 151.7 30.36L151.62 30.36C151.06 31.36 149.97 31.97 148.72 31.97C146.67 31.97 145.11 30.38 145.11 28.19ZM61.31 30.19C61.31 34.01 59.63 36.22 56.83 36.22C54.02 36.22 52.34 34 52.34 30.19C52.35 26.39 54.03 24.2 56.83 24.2C59.62 24.2 61.31 26.39 61.31 30.19ZM89.88 30.19C89.88 34.01 88.21 36.22 85.4 36.22C82.59 36.22 80.92 34 80.92 30.19C80.93 26.39 82.61 24.2 85.4 24.2C88.19 24.2 89.88 26.39 89.88 30.19ZM109.96 32.76C109.97 34.73 108.16 36.16 105.67 36.16C103.21 36.16 101.46 34.8 101.4 32.83L103.54 32.83C103.59 33.78 104.49 34.39 105.66 34.39C106.91 34.39 107.8 33.68 107.79 32.66C107.8 31.6 106.92 30.87 105.45 30.87L104.42 30.87L104.42 29.24L105.45 29.24C106.66 29.24 107.5 28.56 107.49 27.55C107.5 26.57 106.77 25.91 105.69 25.91C104.62 25.91 103.71 26.52 103.67 27.5L101.65 27.5C101.69 25.55 103.44 24.2 105.7 24.2C108.02 24.2 109.54 25.65 109.53 27.42C109.54 28.73 108.69 29.67 107.43 29.94L107.43 30.03C109.06 30.26 109.97 31.31 109.96 32.76ZM160.78 24.2C163.36 24.2 165.35 25.7 165.71 28.28L163.58 28.28C163.34 26.89 162.23 26.09 160.82 26.09C158.91 26.09 157.57 27.55 157.57 30.18C157.57 32.85 158.92 34.26 160.81 34.26C162.2 34.26 163.32 33.5 163.58 32.13L165.71 32.14C165.39 34.37 163.55 36.16 160.78 36.16C157.71 36.16 155.45 33.93 155.45 30.18C155.45 26.42 157.74 24.2 160.78 24.2ZM99.5 36L91.88 36L91.88 24.36L99.45 24.36L99.45 26.12L93.99 26.12L93.99 29.28L99.06 29.28L99.06 31.05L93.99 31.05L93.99 34.23L99.5 34.23L99.5 36ZM130.34 36L125.63 36L125.63 24.36L130.08 24.36C132.61 24.36 133.86 25.64 133.86 27.37C133.86 28.79 132.96 29.58 131.82 29.85L131.82 29.97C133.06 30.03 134.31 31.06 134.31 32.82C134.31 34.64 133 36 130.34 36ZM138.65 36L136.46 36L141.41 26.2L141.41 26.12L135.66 26.12L135.66 24.36L143.59 24.36L143.59 26.16L138.65 36ZM151.47 28.12C151.47 26.94 150.56 25.91 149.31 25.91C148.08 25.91 147.15 26.89 147.15 28.14C147.16 29.39 148.05 30.37 149.29 30.37C150.52 30.37 151.48 29.33 151.47 28.12ZM54.48 30.19C54.47 32.98 55.38 34.44 56.83 34.44C58.28 34.44 59.18 32.98 59.18 30.19C59.18 27.42 58.28 25.96 56.83 25.96C55.38 25.96 54.48 27.42 54.48 30.19ZM83.05 30.19C83.04 32.98 83.95 34.44 85.4 34.44C86.86 34.44 87.76 32.98 87.76 30.19C87.75 27.42 86.85 25.96 85.4 25.96C83.96 25.96 83.05 27.42 83.05 30.19ZM127.74 26.1L127.74 29.31L129.82 29.31C130.92 29.31 131.75 28.67 131.75 27.65C131.75 26.75 131.11 26.1 129.87 26.1L127.74 26.1ZM79.43 33.01C79.28 34.87 77.89 36.17 75.69 36.17C73.08 36.17 71.51 34.31 71.51 31.67C71.51 29 73.12 27.16 75.68 27.16C77.81 27.16 79.29 28.4 79.43 30.29L77.46 30.29C77.3 29.45 76.7 28.81 75.71 28.81C74.44 28.81 73.59 29.87 73.59 31.63C73.59 33.42 74.43 34.49 75.71 34.49C76.61 34.49 77.29 33.95 77.46 33.01L79.43 33.01ZM62.72 27.27L64.9 27.27L66.66 30.49L68.45 27.27L70.63 27.27L68 31.63L70.67 36L68.51 36L66.66 32.85L64.83 36L62.65 36L65.31 31.63L62.72 27.27ZM127.74 30.82L127.74 34.23L130 34.23C131.53 34.23 132.17 33.58 132.17 32.66C132.17 31.62 131.36 30.82 130.06 30.82L127.74 30.82ZM114.11 34.87C114.1 35.56 113.53 36.12 112.86 36.12C112.17 36.12 111.6 35.56 111.61 34.87C111.6 34.19 112.17 33.63 112.86 33.63C113.53 33.63 114.1 34.19 114.11 34.87ZM118.76 34.87C118.75 35.56 118.18 36.12 117.51 36.12C116.81 36.12 116.25 35.56 116.26 34.87C116.25 34.19 116.81 33.63 117.51 33.63C118.18 33.63 118.75 34.19 118.76 34.87ZM123.41 34.87C123.4 35.56 122.83 36.12 122.16 36.12C121.46 36.12 120.9 35.56 120.91 34.87C120.9 34.19 121.46 33.63 122.16 33.63C122.83 33.63 123.4 34.19 123.41 34.87Z" fill="#FFFFFF" fill-opacity="1.000000" fill-rule="evenodd"/>
</svg>
