<svg width="40.000000" height="32.000000" viewBox="0 0 40 32" fill="none" xmlns="http://www.w3.org/2000/svg" xmlns:xlink="http://www.w3.org/1999/xlink">
	<desc>
			Created with Pixso.
	</desc>
	<defs/>
	<rect id="Frame 81" rx="15.500000" width="39.000000" height="31.000000" transform="translate(0.500000 0.500000)" fill="#3B3B3B" fill-opacity="1.000000"/>
	<path id="302" d="M16.89 12.75Q17.24 13.29 17.24 14.06L18.59 14.06Q18.59 13.26 18.31 12.61Q18.09 12.11 17.75 11.73Q17.64 11.61 17.53 11.51Q17.5 11.48 17.47 11.45Q16.99 11.04 16.35 10.81Q15.66 10.57 14.86 10.57Q14.07 10.57 13.39 10.83Q13.37 10.84 13.36 10.84Q12.9 11.02 12.52 11.31Q12.32 11.45 12.14 11.62Q12.09 11.67 12.04 11.72Q11.58 12.19 11.31 12.84Q11 13.56 11 14.44L11 18.52Q11 19.34 11.3 20.02Q11.52 20.52 11.86 20.92Q11.98 21.06 12.12 21.19Q12.15 21.22 12.19 21.25Q12.68 21.69 13.35 21.95Q14.06 22.22 14.89 22.22Q15.72 22.22 16.43 21.95Q17.07 21.7 17.56 21.28Q17.61 21.23 17.67 21.18Q17.79 21.06 17.9 20.93Q18.26 20.52 18.48 20Q18.78 19.31 18.78 18.48L18.78 18.28Q18.78 17.42 18.51 16.74Q18.26 16.07 17.79 15.59Q17.79 15.59 17.78 15.58Q17.64 15.44 17.49 15.32Q17.12 15.03 16.65 14.85Q16 14.6 15.23 14.6Q14.53 14.6 13.94 14.85Q13.79 14.92 13.64 15Q13.25 15.22 12.97 15.52Q12.72 15.78 12.54 16.11L12.35 16.11L12.35 14.44Q12.35 13.85 12.53 13.35Q12.71 12.86 13.04 12.5Q13.17 12.35 13.33 12.24Q13.55 12.06 13.83 11.95Q14.28 11.76 14.83 11.76Q15.82 11.76 16.43 12.24Q16.52 12.31 16.6 12.39Q16.77 12.56 16.89 12.75ZM28.43 10.8L20.94 10.8L20.94 12.04L27.28 12.04L27.28 12.23L22.68 19.12Q22.43 19.5 22.24 19.8Q22.06 20.09 21.94 20.36Q21.82 20.62 21.76 20.88Q21.71 21.13 21.71 21.42L21.71 22L23.02 22L23.02 21.51Q23.02 21.44 23.02 21.37Q23.05 21.06 23.19 20.76Q23.37 20.39 23.71 19.88L28.43 12.75L28.43 10.8ZM15.94 20.85Q15.47 21.03 14.89 21.03Q14.32 21.03 13.84 20.85Q13.43 20.69 13.12 20.41Q13.08 20.37 13.03 20.33Q12.91 20.21 12.81 20.07Q12.63 19.83 12.52 19.54Q12.35 19.08 12.35 18.55L12.35 18.25Q12.35 17.8 12.49 17.41Q12.51 17.35 12.54 17.29Q12.65 17.02 12.82 16.79Q12.94 16.64 13.07 16.51Q13.17 16.42 13.27 16.33Q13.55 16.12 13.88 15.98Q13.89 15.98 13.89 15.98Q14.35 15.79 14.89 15.79Q15.44 15.79 15.91 15.97Q16.32 16.13 16.63 16.41Q16.67 16.45 16.71 16.49Q16.76 16.54 16.8 16.59Q17.08 16.89 17.24 17.29Q17.44 17.76 17.44 18.32L17.44 18.51Q17.44 19.07 17.26 19.53Q17.14 19.86 16.93 20.13Q16.84 20.23 16.75 20.33Q16.7 20.37 16.66 20.41Q16.35 20.69 15.94 20.85Z" fill="#FFFFFF" fill-opacity="1.000000" fill-rule="evenodd"/>
</svg>
