<svg width="32.000000" height="32.000000" viewBox="0 0 32 32" fill="none" xmlns="http://www.w3.org/2000/svg" xmlns:xlink="http://www.w3.org/1999/xlink">
	<desc>
			Created with Pixso.
	</desc>
	<defs/>
	<path id="Vector" d="M21.06 6C22.02 6.01 22.96 6.3 23.76 6.83C24.57 7.36 25.2 8.11 25.58 9L30 9L25.96 13.03C25.7 17.09 23.9 20.89 20.94 23.67C17.97 26.45 14.06 28 10 28C6 28 5 26.5 5 26.5C5 26.5 9 25 11 22C11 22 3 18 5 7C5 7 10 12 16 13L16 11C16 8.25 18.31 5.96 21.06 6Z" stroke="#858584" stroke-opacity="1.000000" stroke-width="2.000000" stroke-linejoin="round"/>
</svg>
