<svg width="211.000000" height="60.000000" viewBox="0 0 211 60" fill="none" xmlns="http://www.w3.org/2000/svg" xmlns:xlink="http://www.w3.org/1999/xlink">
	<desc>
			Created with Pixso.
	</desc>
	<defs/>
	<rect id="Button" rx="19.500000" width="210.000000" height="59.000000" transform="translate(0.500000 0.500000)" fill="#A259FF" fill-opacity="1.000000"/>
	<path id="Vector (Stroke)" d="M51.87 24.37C51.87 24.02 52.15 23.75 52.5 23.75L67.5 23.75C67.84 23.75 68.12 24.02 68.12 24.37L68.12 35C68.12 35.33 67.99 35.65 67.75 35.88C67.52 36.11 67.2 36.25 66.87 36.25L53.12 36.25C52.79 36.25 52.47 36.11 52.24 35.88C52 35.65 51.87 35.33 51.87 35L51.87 24.37ZM53.12 25L53.12 35L66.87 35L66.87 25L53.12 25Z" fill="#FFFFFF" fill-opacity="1.000000" fill-rule="evenodd"/>
	<path id="Vector (Stroke)" d="M52.03 23.95C52.27 23.69 52.66 23.68 52.92 23.91L60 30.4L67.07 23.91C67.33 23.68 67.72 23.69 67.96 23.95C68.19 24.2 68.17 24.6 67.92 24.83L60.42 31.71C60.18 31.92 59.81 31.92 59.57 31.71L52.07 24.83C51.82 24.6 51.8 24.2 52.03 23.95Z" fill="#FFFFFF" fill-opacity="1.000000" fill-rule="evenodd"/>
	<path id="Button" d="M140.19 24.92C140.19 25.53 139.66 26.03 139 26.03C138.35 26.03 137.81 25.53 137.81 24.92C137.81 24.3 138.35 23.8 139 23.8C139.66 23.8 140.19 24.3 140.19 24.92ZM91.84 27.56L89.81 27.56C89.7 26.57 88.87 25.98 87.62 25.98C86.3 25.98 85.51 26.62 85.51 27.5C85.5 28.47 86.53 28.87 87.49 29.1L88.58 29.37C90.33 29.79 91.99 30.71 92 32.73C91.99 34.78 90.37 36.17 87.58 36.17C84.87 36.17 83.15 34.87 83.07 32.56L85.14 32.56C85.23 33.78 86.25 34.37 87.57 34.37C88.94 34.37 89.89 33.71 89.89 32.71C89.89 31.81 89.05 31.42 87.8 31.1L86.48 30.76C84.56 30.26 83.37 29.3 83.37 27.63C83.37 25.57 85.2 24.2 87.65 24.2C90.12 24.2 91.8 25.59 91.84 27.56ZM105.63 36L103.61 36L103.61 24.36L105.66 24.36L105.66 28.71L105.75 28.71C106.06 28.08 106.7 27.16 108.24 27.16C110.26 27.16 111.85 28.73 111.85 31.64C111.85 34.52 110.31 36.15 108.25 36.15C106.75 36.15 106.07 35.26 105.75 34.62L105.63 34.62L105.63 36ZM144.25 36L142.23 36L142.23 24.36L144.29 24.36L144.29 28.71L144.37 28.71C144.69 28.08 145.33 27.16 146.87 27.16C148.88 27.16 150.47 28.73 150.47 31.64C150.47 34.52 148.93 36.15 146.87 36.15C145.37 36.15 144.7 35.26 144.37 34.62L144.25 34.62L144.25 36ZM133.68 36L131.63 36L131.63 27.27L133.62 27.27L133.62 28.72L133.71 28.72C134.03 27.71 134.86 27.14 135.86 27.14C136.09 27.14 136.41 27.17 136.6 27.2L136.6 29.09C136.42 29.03 135.99 28.97 135.64 28.97C134.52 28.97 133.68 29.76 133.68 30.87L133.68 36ZM116.99 27.16C119.03 27.16 120.22 28.1 120.5 29.57L118.62 29.78C118.47 29.21 117.97 28.69 117.02 28.69C116.16 28.69 115.5 29.1 115.51 29.69C115.5 30.19 115.86 30.5 116.74 30.7L118.23 31.02C119.88 31.37 120.68 32.14 120.68 33.38C120.68 35.03 119.14 36.17 116.96 36.17C114.82 36.17 113.47 35.22 113.22 33.62L115.22 33.42C115.4 34.21 116.01 34.62 116.95 34.62C117.93 34.62 118.58 34.17 118.58 33.57C118.58 33.07 118.2 32.75 117.4 32.57L115.91 32.26C114.24 31.92 113.45 31.07 113.46 29.8C113.45 28.19 114.88 27.16 116.99 27.16ZM129.93 33.01C129.78 34.87 128.39 36.17 126.19 36.17C123.58 36.17 122.01 34.31 122.01 31.67C122.01 29 123.62 27.16 126.18 27.16C128.31 27.16 129.79 28.4 129.93 30.29L127.96 30.29C127.8 29.45 127.2 28.81 126.21 28.81C124.94 28.81 124.09 29.87 124.09 31.63C124.09 33.42 124.93 34.49 126.21 34.49C127.11 34.49 127.79 33.95 127.96 33.01L129.93 33.01ZM159.88 33.66C159.52 35.17 158.12 36.17 156.09 36.17C153.46 36.17 151.85 34.42 151.85 31.68C151.85 28.99 153.48 27.16 155.98 27.16C158.13 27.16 159.97 28.5 159.97 31.56L159.97 32.19L153.89 32.19C153.91 33.69 154.79 34.56 156.12 34.56C157 34.56 157.68 34.18 157.97 33.44L159.88 33.66ZM97.49 34.31C98.4 34.31 99.35 33.66 99.35 32.32L99.35 27.27L101.4 27.27L101.4 36L99.41 36L99.41 34.44L99.32 34.44C98.92 35.42 98 36.11 96.69 36.11C94.98 36.11 93.78 34.92 93.78 32.82L93.78 27.27L95.84 27.27L95.84 32.51C95.84 33.62 96.5 34.31 97.49 34.31ZM140.03 36L137.97 36L137.97 27.27L140.03 27.27L140.03 36ZM156.01 28.76C154.78 28.76 153.96 29.69 153.89 30.81L158 30.81C157.99 29.62 157.19 28.76 156.01 28.76ZM107.67 28.84C106.35 28.84 105.62 29.94 105.62 31.63C105.62 33.32 106.36 34.46 107.67 34.46C109.03 34.46 109.75 33.27 109.75 31.63C109.75 30.01 109.04 28.84 107.67 28.84ZM146.3 28.84C144.97 28.84 144.25 29.94 144.25 31.63C144.25 33.32 144.99 34.46 146.3 34.46C147.66 34.46 148.37 33.27 148.37 31.63C148.37 30.01 147.67 28.84 146.3 28.84Z" fill="#FFFFFF" fill-opacity="1.000000" fill-rule="evenodd"/>
</svg>
