<svg width="152.000000" height="60.000000" viewBox="0 0 152 60" fill="none" xmlns="http://www.w3.org/2000/svg" xmlns:xlink="http://www.w3.org/1999/xlink">
	<desc>
			Created with Pixso.
	</desc>
	<defs/>
	<rect id="Sign Up" rx="19.500000" width="151.000000" height="59.000000" transform="translate(0.500000 0.500000)" fill="#A259FF" fill-opacity="1.000000"/>
	<path id="Vector (Stroke)" d="M40 23.12C37.58 23.12 35.62 25.08 35.62 27.5C35.62 29.91 37.58 31.87 40 31.87C42.41 31.87 44.37 29.91 44.37 27.5C44.37 25.08 42.41 23.12 40 23.12ZM34.37 27.5C34.37 24.39 36.89 21.87 40 21.87C43.1 21.87 45.62 24.39 45.62 27.5C45.62 30.6 43.1 33.12 40 33.12C36.89 33.12 34.37 30.6 34.37 27.5Z" fill="#FFFFFF" fill-opacity="1.000000" fill-rule="evenodd"/>
	<path id="Vector (Stroke)" d="M40 33.12C38.57 33.12 37.17 33.5 35.93 34.21C34.7 34.92 33.67 35.95 32.96 37.18C32.79 37.48 32.4 37.58 32.1 37.41C31.81 37.24 31.7 36.86 31.88 36.56C32.7 35.13 33.88 33.95 35.31 33.12C36.73 32.3 38.35 31.87 40 31.87C41.64 31.87 43.26 32.3 44.68 33.12C46.11 33.95 47.29 35.13 48.11 36.56C48.29 36.86 48.18 37.24 47.89 37.41C47.59 37.58 47.2 37.48 47.03 37.18C46.32 35.95 45.29 34.92 44.06 34.21C42.82 33.5 41.42 33.12 40 33.12Z" fill="#FFFFFF" fill-opacity="1.000000" fill-rule="evenodd"/>
	<path id="Button" d="M76.15 24.92C76.15 25.53 75.62 26.03 74.96 26.03C74.3 26.03 73.77 25.53 73.77 24.92C73.77 24.3 74.3 23.8 74.96 23.8C75.62 23.8 76.15 24.3 76.15 24.92ZM71.98 27.56L69.96 27.56C69.85 26.57 69.02 25.98 67.76 25.98C66.44 25.98 65.66 26.62 65.66 27.5C65.64 28.47 66.68 28.87 67.63 29.1L68.72 29.37C70.47 29.79 72.14 30.71 72.14 32.73C72.14 34.78 70.52 36.17 67.73 36.17C65.02 36.17 63.3 34.87 63.21 32.56L65.28 32.56C65.37 33.78 66.39 34.37 67.71 34.37C69.09 34.37 70.03 33.71 70.03 32.71C70.03 31.81 69.2 31.42 67.94 31.1L66.62 30.76C64.71 30.26 63.52 29.3 63.52 27.63C63.51 25.57 65.35 24.2 67.79 24.2C70.27 24.2 71.94 25.59 71.98 27.56ZM109.26 31.78L109.26 24.36L111.36 24.36L111.36 31.96C111.36 34.46 109.48 36.17 106.65 36.17C103.8 36.17 101.92 34.46 101.92 31.96L101.92 24.36L104.03 24.36L104.03 31.78C104.03 33.25 105.04 34.29 106.65 34.29C108.24 34.29 109.26 33.25 109.26 31.78ZM85.99 36.14C85.99 38.37 84.25 39.45 81.89 39.45C79.67 39.45 78.42 38.47 78.04 37.25L79.89 36.8C80.14 37.31 80.69 37.89 81.93 37.89C83.1 37.89 83.95 37.37 83.95 36.08L83.95 34.43L83.85 34.43C83.53 35.07 82.83 35.87 81.34 35.87C79.33 35.87 77.74 34.45 77.74 31.6C77.74 28.73 79.33 27.16 81.34 27.16C82.88 27.16 83.54 28.08 83.85 28.71L83.96 28.71L83.96 27.27L85.99 27.27L85.99 36.14ZM92.01 28.89C90.92 28.89 90.16 29.62 90.16 30.88L90.16 36L88.1 36L88.1 27.27L90.07 27.27L90.07 28.75L90.17 28.75C90.57 27.78 91.47 27.16 92.77 27.16C94.57 27.16 95.77 28.35 95.76 30.44L95.76 36L93.71 36L93.71 30.76C93.71 29.59 93.07 28.89 92.01 28.89ZM115.63 39.27L113.57 39.27L113.57 27.27L115.59 27.27L115.59 28.71L115.71 28.71C116.02 28.08 116.66 27.16 118.2 27.16C120.22 27.16 121.81 28.73 121.81 31.64C121.81 34.52 120.27 36.15 118.21 36.15C116.71 36.15 116.04 35.26 115.71 34.62L115.63 34.62L115.63 39.27ZM75.98 36L73.93 36L73.93 27.27L75.98 27.27L75.98 36ZM79.84 31.59C79.84 33.2 80.55 34.26 81.91 34.26C83.22 34.26 83.96 33.26 83.96 31.59C83.96 29.94 83.23 28.84 81.91 28.84C80.54 28.84 79.84 30.01 79.84 31.59ZM117.64 28.84C116.31 28.84 115.59 29.94 115.59 31.63C115.59 33.32 116.33 34.46 117.64 34.46C119 34.46 119.71 33.27 119.71 31.63C119.71 30.01 119.01 28.84 117.64 28.84Z" fill="#FFFFFF" fill-opacity="1.000000" fill-rule="evenodd"/>
</svg>
