<svg width="187.000000" height="60.000000" viewBox="0 0 187 60" fill="none" xmlns="http://www.w3.org/2000/svg" xmlns:xlink="http://www.w3.org/1999/xlink">
	<desc>
			Created with Pixso.
	</desc>
	<defs/>
	<path id="Vector (Stroke)" d="M52.83 26.74C54.33 25.25 56.66 23.75 60 23.75C63.33 23.75 65.66 25.25 67.16 26.74C67.9 27.48 68.43 28.23 68.79 28.78C68.96 29.06 69.09 29.3 69.18 29.46C69.22 29.55 69.26 29.61 69.28 29.66C69.29 29.68 69.3 29.7 69.31 29.72L69.31 29.73L69.32 29.74L69.32 29.74L69.32 29.74C69.32 29.74 69.32 29.74 68.75 30C69.32 30.25 69.32 30.25 69.32 30.25L69.32 30.25L69.32 30.25L69.31 30.26L69.31 30.27C69.3 30.29 69.29 30.31 69.28 30.33C69.26 30.38 69.22 30.44 69.18 30.53C69.09 30.69 68.96 30.93 68.79 31.21C68.43 31.76 67.9 32.51 67.16 33.25C65.66 34.74 63.33 36.25 60 36.25C56.66 36.25 54.33 34.74 52.83 33.25C52.09 32.51 51.56 31.76 51.2 31.21C51.03 30.93 50.9 30.69 50.81 30.53C50.77 30.44 50.73 30.38 50.71 30.33C50.7 30.31 50.69 30.29 50.68 30.27L50.68 30.26L50.67 30.25L50.67 30.25L50.67 30.25C50.67 30.25 50.67 30.25 51.25 30C50.67 29.74 50.67 29.74 50.67 29.74L50.67 29.74L50.67 29.74L50.68 29.73L50.68 29.72C50.69 29.7 50.7 29.68 50.71 29.66C50.73 29.61 50.77 29.55 50.81 29.46C50.9 29.3 51.03 29.06 51.2 28.78C51.56 28.23 52.09 27.48 52.83 26.74ZM51.25 30L50.67 29.74C50.6 29.9 50.6 30.09 50.67 30.25L51.25 30ZM51.94 30C52.02 30.13 52.12 30.32 52.26 30.54C52.58 31.04 53.06 31.7 53.72 32.37C55.04 33.69 57.08 35 60 35C62.91 35 64.95 33.69 66.27 32.37C66.93 31.7 67.41 31.04 67.73 30.54C67.87 30.32 67.97 30.13 68.05 30C67.97 29.86 67.87 29.67 67.73 29.45C67.41 28.95 66.93 28.29 66.27 27.62C64.95 26.3 62.91 25 60 25C57.08 25 55.04 26.3 53.72 27.62C53.06 28.29 52.58 28.95 52.26 29.45C52.12 29.67 52.02 29.86 51.94 30ZM68.75 30L69.32 30.25C69.39 30.09 69.39 29.9 69.32 29.74L68.75 30Z" fill="#A259FF" fill-opacity="1.000000" fill-rule="evenodd"/>
	<path id="Vector (Stroke)" d="M60 27.5C58.61 27.5 57.5 28.61 57.5 30C57.5 31.38 58.61 32.5 60 32.5C61.38 32.5 62.5 31.38 62.5 30C62.5 28.61 61.38 27.5 60 27.5ZM56.25 30C56.25 27.92 57.92 26.25 60 26.25C62.07 26.25 63.75 27.92 63.75 30C63.75 32.07 62.07 33.75 60 33.75C57.92 33.75 56.25 32.07 56.25 30Z" fill="#A259FF" fill-opacity="1.000000" fill-rule="evenodd"/>
	<path id="Button" d="M91.87 27.56L89.85 27.56C89.74 26.57 88.91 25.98 87.65 25.98C86.33 25.98 85.55 26.62 85.54 27.5C85.53 28.47 86.56 28.87 87.52 29.1L88.61 29.37C90.36 29.79 92.03 30.71 92.03 32.73C92.03 34.78 90.41 36.17 87.62 36.17C84.91 36.17 83.19 34.87 83.1 32.56L85.17 32.56C85.26 33.78 86.28 34.37 87.6 34.37C88.97 34.37 89.92 33.71 89.92 32.71C89.92 31.81 89.09 31.42 87.83 31.1L86.51 30.76C84.6 30.26 83.41 29.3 83.41 27.63C83.4 25.57 85.24 24.2 87.68 24.2C90.16 24.2 91.83 25.59 91.87 27.56ZM119.3 33.12L118.34 36L116.09 36L120.19 24.36L122.79 24.36L126.89 36L124.64 36L123.67 33.12L119.3 33.12ZM128.34 24.36L130.39 24.36L130.39 36L128.34 36L128.34 24.36ZM132.5 24.36L134.56 24.36L134.56 36L132.5 36L132.5 24.36ZM121.44 26.75L119.87 31.43L123.11 31.43L121.53 26.75L121.44 26.75ZM101.47 33.66C101.11 35.17 99.71 36.17 97.68 36.17C95.05 36.17 93.44 34.42 93.44 31.68C93.44 28.99 95.07 27.16 97.57 27.16C99.72 27.16 101.56 28.5 101.56 31.56L101.56 32.19L95.48 32.19C95.5 33.69 96.38 34.56 97.71 34.56C98.6 34.56 99.27 34.18 99.56 33.44L101.47 33.66ZM110.96 33.66C110.59 35.17 109.2 36.17 107.16 36.17C104.53 36.17 102.93 34.42 102.93 31.68C102.93 28.99 104.56 27.16 107.06 27.16C109.2 27.16 111.04 28.5 111.04 31.56L111.04 32.19L104.97 32.19C104.98 33.69 105.86 34.56 107.19 34.56C108.08 34.56 108.76 34.18 109.04 33.44L110.96 33.66ZM97.6 28.76C96.37 28.76 95.55 29.69 95.49 30.81L99.59 30.81C99.58 29.62 98.78 28.76 97.6 28.76ZM107.08 28.76C105.86 28.76 105.03 29.69 104.97 30.81L109.07 30.81C109.06 29.62 108.27 28.76 107.08 28.76Z" fill="#FFFFFF" fill-opacity="1.000000" fill-rule="evenodd"/>
	<rect id="Button" rx="19.000000" width="185.000000" height="58.000000" transform="translate(1.000000 1.000000)" stroke="#A259FF" stroke-opacity="1.000000" stroke-width="2.000000"/>
</svg>
