<svg width="142.000000" height="60.000000" viewBox="0 0 142 60" fill="none" xmlns="http://www.w3.org/2000/svg" xmlns:xlink="http://www.w3.org/1999/xlink">
	<desc>
			Created with Pixso.
	</desc>
	<defs/>
	<path id="Vector (Stroke)" d="M32.5 30C32.5 29.65 32.77 29.37 33.12 29.37L46.87 29.37C47.22 29.37 47.5 29.65 47.5 30C47.5 30.34 47.22 30.62 46.87 30.62L33.12 30.62C32.77 30.62 32.5 30.34 32.5 30Z" fill="#A259FF" fill-opacity="1.000000" fill-rule="evenodd"/>
	<path id="Vector (Stroke)" d="M40 22.5C40.34 22.5 40.62 22.78 40.62 23.12L40.62 36.87C40.62 37.21 40.34 37.5 40 37.5C39.65 37.5 39.37 37.21 39.37 36.87L39.37 23.12C39.37 22.78 39.65 22.5 40 22.5Z" fill="#A259FF" fill-opacity="1.000000" fill-rule="evenodd"/>
	<path id="Button" d="M65.41 36L63.3 36L63.3 24.36L70.75 24.36L70.75 26.12L65.41 26.12L65.41 29.28L70.24 29.28L70.24 31.05L65.41 31.05L65.41 36ZM81.67 24.36L83.72 24.36L83.72 36L81.67 36L81.67 24.36ZM85.84 24.36L87.9 24.36L87.9 36L85.84 36L85.84 24.36ZM79.93 31.67C79.93 34.37 78.31 36.17 75.75 36.17C73.19 36.17 71.57 34.37 71.57 31.67C71.57 28.96 73.19 27.16 75.75 27.16C78.31 27.16 79.93 28.96 79.93 31.67ZM98 31.67C98 34.37 96.37 36.17 93.82 36.17C91.26 36.17 89.64 34.37 89.64 31.67C89.64 28.96 91.26 27.16 93.82 27.16C96.37 27.16 98 28.96 98 31.67ZM103.45 36L101.3 36L98.83 27.27L100.93 27.27L102.46 33.41L102.54 33.41L104.11 27.27L106.19 27.27L107.75 33.37L107.84 33.37L109.35 27.27L111.45 27.27L108.98 36L106.84 36L105.2 30.1L105.08 30.1L103.45 36ZM73.65 31.66C73.65 33.26 74.35 34.52 75.76 34.52C77.15 34.52 77.85 33.26 77.85 31.66C77.85 30.06 77.15 28.78 75.76 28.78C74.35 28.78 73.65 30.06 73.65 31.66ZM91.72 31.66C91.72 33.26 92.41 34.52 93.83 34.52C95.22 34.52 95.91 33.26 95.91 31.66C95.91 30.06 95.22 28.78 93.83 28.78C92.41 28.78 91.72 30.06 91.72 31.66Z" fill="#FFFFFF" fill-opacity="1.000000" fill-rule="evenodd"/>
	<rect id="Button" rx="19.000000" width="140.000000" height="58.000000" transform="translate(1.000000 1.000000)" stroke="#A259FF" stroke-opacity="1.000000" stroke-width="2.000000"/>
</svg>
