<svg width="330.000000" height="46.000000" viewBox="0 0 330 46" fill="none" xmlns="http://www.w3.org/2000/svg" xmlns:xlink="http://www.w3.org/1999/xlink">
	<desc>
			Created with Pixso.
	</desc>
	<defs/>
	<rect id="Button" rx="19.500000" width="329.000000" height="45.000000" transform="translate(0.500000 0.500000)" fill="#A259FF" fill-opacity="1.000000"/>
	<path id="Button" d="M110.7 17.2C113.27 17.2 115.26 18.7 115.62 21.28L113.5 21.28C113.25 19.89 112.14 19.09 110.73 19.09C108.83 19.09 107.49 20.55 107.49 23.18C107.49 25.85 108.84 27.26 110.72 27.26C112.11 27.26 113.23 26.5 113.5 25.13L115.62 25.14C115.3 27.37 113.46 29.16 110.7 29.16C107.63 29.16 105.36 26.93 105.36 23.18C105.36 19.42 107.65 17.2 110.7 17.2ZM144.76 20.27L146.48 20.27L146.48 21.86L144.76 21.86L144.76 26.37C144.76 27.2 145.18 27.38 145.69 27.38C145.95 27.38 146.18 27.33 146.3 27.3L146.64 28.91C146.42 28.98 146.02 29.1 145.43 29.12C143.89 29.16 142.69 28.35 142.71 26.71L142.71 21.86L141.47 21.86L141.47 20.27L142.71 20.27L142.71 18.18L144.76 18.18L144.76 20.27ZM221.09 20.27L222.81 20.27L222.81 21.86L221.09 21.86L221.09 26.37C221.09 27.2 221.51 27.38 222.02 27.38C222.28 27.38 222.51 27.33 222.63 27.3L222.97 28.91C222.75 28.98 222.35 29.1 221.76 29.12C220.22 29.16 219.02 28.35 219.04 26.71L219.04 21.86L217.8 21.86L217.8 20.27L219.04 20.27L219.04 18.18L221.09 18.18L221.09 20.27ZM119.52 29L117.47 29L117.47 20.27L119.46 20.27L119.46 21.72L119.55 21.72C119.87 20.71 120.71 20.14 121.71 20.14C121.93 20.14 122.26 20.17 122.45 20.2L122.45 22.09C122.27 22.03 121.84 21.97 121.49 21.97C120.36 21.97 119.52 22.76 119.52 23.87L119.52 29ZM131.11 26.66C130.74 28.17 129.35 29.17 127.32 29.17C124.68 29.17 123.08 27.42 123.08 24.68C123.08 21.99 124.71 20.16 127.21 20.16C129.35 20.16 131.19 21.5 131.19 24.56L131.19 25.19L125.12 25.19C125.13 26.69 126.01 27.56 127.34 27.56C128.23 27.56 128.91 27.18 129.19 26.44L131.11 26.66ZM138 27.8C137.63 28.53 136.81 29.17 135.44 29.17C133.78 29.17 132.52 28.26 132.52 26.55C132.52 24.58 134.14 24.07 135.84 23.89C137.38 23.73 138 23.7 138 23.11L138 23.07C138 22.22 137.47 21.73 136.52 21.73C135.51 21.73 134.93 22.24 134.73 22.83L132.81 22.56C133.26 20.97 134.67 20.16 136.5 20.16C138.17 20.16 140.05 20.85 140.05 23.16L140.05 29L138.08 29L138.08 27.8L138 27.8ZM155.77 26.66C155.41 28.17 154.01 29.17 151.98 29.17C149.35 29.17 147.74 27.42 147.74 24.68C147.74 21.99 149.37 20.16 151.87 20.16C154.02 20.16 155.86 21.5 155.86 24.56L155.86 25.19L149.78 25.19C149.8 26.69 150.68 27.56 152.01 27.56C152.89 27.56 153.57 27.18 153.85 26.44L155.77 26.66ZM166.64 27.8C166.27 28.53 165.45 29.17 164.08 29.17C162.41 29.17 161.16 28.26 161.16 26.55C161.16 24.58 162.78 24.07 164.47 23.89C166.01 23.73 166.63 23.7 166.63 23.11L166.63 23.07C166.63 22.22 166.11 21.73 165.15 21.73C164.15 21.73 163.57 22.24 163.36 22.83L161.45 22.56C161.9 20.97 163.31 20.16 165.14 20.16C166.81 20.16 168.69 20.85 168.69 23.16L168.69 29L166.71 29L166.71 27.8L166.64 27.8ZM178.31 26.01C178.16 27.87 176.76 29.17 174.57 29.17C171.96 29.17 170.39 27.31 170.39 24.67C170.39 22 172 20.16 174.56 20.16C176.69 20.16 178.17 21.4 178.31 23.29L176.34 23.29C176.18 22.45 175.58 21.81 174.58 21.81C173.32 21.81 172.47 22.87 172.47 24.63C172.47 26.42 173.3 27.49 174.58 27.49C175.49 27.49 176.17 26.95 176.34 26.01L178.31 26.01ZM187.55 26.01C187.4 27.87 186 29.17 183.81 29.17C181.2 29.17 179.63 27.31 179.63 24.67C179.63 22 181.24 20.16 183.8 20.16C185.93 20.16 187.41 21.4 187.55 23.29L185.58 23.29C185.42 22.45 184.82 21.81 183.82 21.81C182.56 21.81 181.71 22.87 181.71 24.63C181.71 26.42 182.54 27.49 183.82 27.49C184.73 27.49 185.41 26.95 185.58 26.01L187.55 26.01ZM197.23 24.67C197.23 27.37 195.6 29.17 193.05 29.17C190.49 29.17 188.87 27.37 188.87 24.67C188.87 21.96 190.49 20.16 193.05 20.16C195.6 20.16 197.23 21.96 197.23 24.67ZM212.6 21.89C211.52 21.89 210.76 22.62 210.76 23.88L210.76 29L208.7 29L208.7 20.27L210.67 20.27L210.67 21.75L210.77 21.75C211.17 20.78 212.07 20.16 213.37 20.16C215.17 20.16 216.37 21.35 216.36 23.44L216.36 29L214.3 29L214.3 23.76C214.3 22.59 213.67 21.89 212.6 21.89ZM202.67 27.31C203.58 27.31 204.53 26.66 204.53 25.32L204.53 20.27L206.59 20.27L206.59 29L204.59 29L204.59 27.44L204.5 27.44C204.1 28.42 203.18 29.11 201.88 29.11C200.16 29.11 198.97 27.92 198.97 25.82L198.97 20.27L201.02 20.27L201.02 25.51C201.02 26.62 201.68 27.31 202.67 27.31ZM127.23 21.76C126.01 21.76 125.18 22.69 125.12 23.81L129.22 23.81C129.21 22.62 128.42 21.76 127.23 21.76ZM151.9 21.76C150.67 21.76 149.85 22.69 149.78 23.81L153.89 23.81C153.87 22.62 153.08 21.76 151.9 21.76ZM190.95 24.66C190.95 26.26 191.64 27.52 193.06 27.52C194.45 27.52 195.14 26.26 195.14 24.66C195.14 23.06 194.45 21.78 193.06 21.78C191.64 21.78 190.95 23.06 190.95 24.66ZM134.5 26.51C134.5 27.27 135.12 27.66 135.98 27.66C137.22 27.66 138 26.83 138 25.87L138 24.83C137.74 25.05 136.65 25.19 136.11 25.26C135.19 25.39 134.5 25.72 134.5 26.51ZM163.14 26.51C163.14 27.27 163.76 27.66 164.61 27.66C165.85 27.66 166.64 26.83 166.64 25.87L166.64 24.83C166.37 25.05 165.29 25.19 164.75 25.26C163.83 25.39 163.14 25.72 163.14 26.51Z" fill="#FFFFFF" fill-opacity="1.000000" fill-rule="evenodd"/>
</svg>
