<svg width="30.000000" height="30.000000" viewBox="0 0 30 30" fill="none" xmlns="http://www.w3.org/2000/svg" xmlns:xlink="http://www.w3.org/1999/xlink">
	<desc>
			Created with Pixso.
	</desc>
	<defs/>
	<rect id="Ranking Number" rx="14.500000" width="29.000000" height="29.000000" transform="translate(0.500000 0.500000)" fill="#2B2B2B" fill-opacity="1.000000"/>
	<path id="1" d="M9.51 10.39L9.51 19.75L6.34 19.75L6.34 21L14.02 21L14.02 19.75L10.85 19.75L10.85 9.8L8.24 9.8L6.15 14.5L6.15 14.6L7.48 14.6L9.32 10.39L9.51 10.39ZM19.3 10.39L19.3 19.75L16.13 19.75L16.13 21L23.81 21L23.81 19.75L20.64 19.75L20.64 9.8L18.03 9.8L15.94 14.5L15.94 14.6L17.27 14.6L19.11 10.39L19.3 10.39Z" fill="#858584" fill-opacity="1.000000" fill-rule="evenodd"/>
</svg>
