<svg width="30.000000" height="30.000000" viewBox="0 0 30 30" fill="none" xmlns="http://www.w3.org/2000/svg" xmlns:xlink="http://www.w3.org/1999/xlink">
	<desc>
			Created with Pixso.
	</desc>
	<defs/>
	<rect id="Ranking Number" rx="14.500000" width="29.000000" height="29.000000" transform="translate(0.500000 0.500000)" fill="#2B2B2B" fill-opacity="1.000000"/>
	<path id="1" d="M13.31 20.99Q14 21.22 14.85 21.22L15.14 21.22Q15.99 21.22 16.67 20.99Q17.36 20.76 17.86 20.35Q18.25 20.03 18.49 19.62Q18.56 19.51 18.62 19.39Q18.67 19.29 18.7 19.19Q18.88 18.72 18.88 18.18L18.88 17.99Q18.88 17.41 18.71 16.96Q18.53 16.51 18.24 16.18Q18.05 15.96 17.83 15.79Q17.71 15.7 17.58 15.62Q17.2 15.39 16.8 15.28L16.8 15.09Q17.15 14.98 17.48 14.76Q17.75 14.57 17.97 14.33Q18.01 14.28 18.06 14.23Q18.06 14.23 18.06 14.22Q18.31 13.92 18.45 13.53Q18.6 13.14 18.6 12.67L18.6 12.48Q18.6 11.93 18.4 11.45Q18.37 11.38 18.34 11.31Q18.24 11.11 18.12 10.94Q17.91 10.63 17.61 10.39Q17.14 10 16.48 9.79Q15.83 9.57 15.04 9.57L14.95 9.57Q14.15 9.57 13.5 9.79Q12.85 10 12.38 10.39Q12.09 10.63 11.87 10.93Q11.75 11.11 11.65 11.31Q11.62 11.36 11.6 11.42Q11.4 11.91 11.4 12.48L11.4 12.67Q11.4 13.14 11.54 13.53Q11.68 13.92 11.93 14.23Q12.02 14.34 12.12 14.44Q12.3 14.61 12.5 14.76Q12.68 14.88 12.87 14.97Q13.02 15.04 13.19 15.09L13.19 15.28Q12.79 15.39 12.41 15.62Q12.28 15.7 12.16 15.79Q11.94 15.96 11.75 16.18Q11.46 16.51 11.28 16.96Q11.11 17.41 11.11 17.99L11.11 18.18Q11.11 18.73 11.29 19.22Q11.33 19.3 11.37 19.39Q11.43 19.51 11.5 19.63Q11.74 20.03 12.13 20.35Q12.63 20.76 13.31 20.99ZM16.51 14.13Q15.91 14.56 14.99 14.56Q14.08 14.56 13.48 14.13Q13.42 14.08 13.36 14.03Q13.03 13.76 12.88 13.41Q12.74 13.09 12.74 12.71L12.74 12.61Q12.74 12.17 12.92 11.82Q13.07 11.52 13.35 11.29Q13.36 11.29 13.36 11.28Q13.98 10.79 14.99 10.79Q16.02 10.79 16.63 11.29Q16.92 11.53 17.08 11.83Q17.25 12.18 17.25 12.61L17.25 12.71Q17.25 13.08 17.11 13.4Q16.96 13.75 16.63 14.03Q16.57 14.08 16.51 14.13ZM16.75 19.53Q16.1 20 15.09 20L14.9 20Q13.89 20 13.23 19.52Q13.18 19.48 13.13 19.44Q12.8 19.17 12.63 18.83Q12.45 18.45 12.45 17.99L12.45 17.89Q12.45 17.24 12.74 16.79Q12.9 16.54 13.15 16.35Q13.16 16.34 13.18 16.33Q13.86 15.81 14.95 15.81L15.04 15.81Q16.12 15.81 16.8 16.33Q16.82 16.34 16.84 16.35Q17.09 16.55 17.25 16.8Q17.54 17.25 17.54 17.89L17.54 17.99Q17.54 18.45 17.36 18.82Q17.19 19.17 16.86 19.44Q16.81 19.49 16.75 19.53Z" fill="#858584" fill-opacity="1.000000" fill-rule="evenodd"/>
</svg>
