<svg width="30.000000" height="30.000000" viewBox="0 0 30 30" fill="none" xmlns="http://www.w3.org/2000/svg" xmlns:xlink="http://www.w3.org/1999/xlink">
	<desc>
			Created with Pixso.
	</desc>
	<defs/>
	<rect id="Ranking Number" rx="14.500000" width="29.000000" height="29.000000" transform="translate(0.500000 0.500000)" fill="#2B2B2B" fill-opacity="1.000000"/>
	<path id="1" d="M18.8 21L18.8 19.75L12.56 19.75L12.56 19.27Q12.56 18.53 12.91 18.04Q13.06 17.83 13.28 17.66Q14 17.11 15.54 16.77Q17.3 16.39 18.1 15.48Q18.4 15.14 18.59 14.74Q18.9 14.09 18.9 13.3L18.9 13.01Q18.9 12.81 18.88 12.61Q18.83 12.18 18.67 11.76Q18.6 11.59 18.52 11.42Q18.3 11 17.95 10.65Q17.47 10.16 16.76 9.87Q16.04 9.57 15.06 9.57Q14.1 9.57 13.36 9.89Q12.67 10.19 12.18 10.7Q12.16 10.73 12.13 10.76Q11.94 10.96 11.79 11.19Q11.54 11.57 11.38 12Q11.31 12.18 11.26 12.37Q11.12 12.9 11.12 13.48L11.12 14.28L12.47 14.28L12.47 13.57Q12.47 12.48 12.98 11.77Q13.06 11.67 13.15 11.57Q13.29 11.41 13.47 11.28Q14.1 10.82 15.06 10.82Q15.72 10.82 16.18 11.02Q16.66 11.22 16.96 11.55Q17.16 11.77 17.29 12.03Q17.36 12.16 17.41 12.31Q17.5 12.56 17.53 12.81Q17.56 12.98 17.56 13.16L17.56 13.25Q17.56 13.68 17.4 14.04Q17.24 14.41 16.92 14.71Q16.29 15.3 14.87 15.62Q14.02 15.81 13.35 16.08Q12.67 16.35 12.2 16.76Q11.99 16.95 11.82 17.16Q11.62 17.43 11.47 17.74Q11.22 18.31 11.22 19.07L11.22 21L18.8 21Z" fill="#858584" fill-opacity="1.000000" fill-rule="evenodd"/>
</svg>
