<svg width="247.000000" height="60.000000" viewBox="0 0 247 60" fill="none" xmlns="http://www.w3.org/2000/svg" xmlns:xlink="http://www.w3.org/1999/xlink">
	<desc>
			Created with Pixso.
	</desc>
	<defs/>
	<path id="Vector (Stroke)" d="M56.16 32.44C56.28 32.77 56.1 33.13 55.77 33.24C54.71 33.59 54.15 34.48 53.85 35.39C53.73 35.75 53.66 36.09 53.61 36.38C53.9 36.33 54.25 36.26 54.6 36.14C55.51 35.84 56.4 35.28 56.75 34.22C56.86 33.89 57.22 33.71 57.55 33.83C57.87 33.93 58.05 34.29 57.94 34.62C57.41 36.21 56.08 36.97 55 37.33C54.45 37.51 53.94 37.6 53.57 37.64C53.38 37.67 53.22 37.68 53.11 37.68C53.06 37.69 53.01 37.69 52.98 37.69C52.96 37.69 52.95 37.69 52.94 37.69L52.93 37.69L52.93 37.69L52.93 37.69L52.92 37.69C52.92 37.69 52.92 37.69 52.92 37.07C52.3 37.07 52.3 37.07 52.3 37.07L52.3 37.06L52.3 37.06L52.3 37.06L52.3 37.05C52.3 37.04 52.3 37.03 52.3 37.01C52.3 36.98 52.3 36.93 52.31 36.88C52.31 36.77 52.32 36.61 52.34 36.43C52.39 36.05 52.48 35.54 52.66 34.99C53.02 33.91 53.78 32.59 55.37 32.05C55.7 31.94 56.06 32.12 56.16 32.44ZM52.92 37.07L52.3 37.07C52.3 37.41 52.58 37.69 52.92 37.69L52.92 37.07Z" fill="#A259FF" fill-opacity="1.000000" fill-rule="evenodd"/>
	<path id="Vector (Stroke)" d="M66.54 23.45C65.82 23.34 64.03 23.3 62.2 25.13L57.34 30L60 32.65L64.86 27.79C66.68 25.96 66.65 24.17 66.54 23.45ZM66.72 22.21C65.73 22.07 63.5 22.07 61.32 24.25L56.01 29.55C55.9 29.67 55.83 29.83 55.83 30C55.83 30.16 55.9 30.32 56.01 30.44L59.55 33.98C59.8 34.22 60.19 34.22 60.44 33.98L65.74 28.67C67.92 26.49 67.92 24.27 67.78 23.27C67.74 23 67.62 22.75 67.43 22.56C67.24 22.37 66.99 22.25 66.72 22.21Z" fill="#A259FF" fill-opacity="1.000000" fill-rule="evenodd"/>
	<path id="Vector (Stroke)" d="M64.42 28.49C64.76 28.49 65.04 28.77 65.04 29.11L65.04 34.16L65.04 34.17C65.04 34.5 64.9 34.81 64.67 35.04L62.15 37.57C61.99 37.73 61.79 37.84 61.57 37.9C61.35 37.95 61.12 37.95 60.9 37.88C60.68 37.82 60.49 37.69 60.34 37.53C60.19 37.36 60.08 37.15 60.04 36.93L59.38 33.66C59.32 33.32 59.53 32.99 59.87 32.92C60.21 32.85 60.54 33.07 60.61 33.41L61.26 36.69L63.79 34.15L63.79 29.11C63.79 28.77 64.07 28.49 64.42 28.49Z" fill="#A259FF" fill-opacity="1.000000" fill-rule="evenodd"/>
	<path id="Vector (Stroke)" d="M55.82 24.95L55.83 24.95L60.88 24.95C61.22 24.95 61.5 25.23 61.5 25.57C61.5 25.92 61.22 26.2 60.88 26.2L55.84 26.2L55.83 26.2L55.83 26.2L53.3 28.73L53.3 28.73L56.58 29.38C56.92 29.45 57.14 29.78 57.07 30.12C57 30.46 56.67 30.68 56.33 30.61L53.06 29.95C53.06 29.95 53.06 29.95 53.06 29.95C52.84 29.91 52.63 29.8 52.46 29.65C52.3 29.5 52.17 29.31 52.11 29.09C52.04 28.87 52.04 28.64 52.09 28.42C52.15 28.2 52.26 28 52.42 27.84L52.42 27.84L52.42 27.84L54.95 25.32C55.18 25.09 55.49 24.95 55.82 24.95Z" fill="#A259FF" fill-opacity="1.000000" fill-rule="evenodd"/>
	<path id="Button" d="M96.99 24.92C96.99 25.53 96.45 26.03 95.8 26.03C95.14 26.03 94.61 25.53 94.61 24.92C94.61 24.3 95.14 23.8 95.8 23.8C96.45 23.8 96.99 24.3 96.99 24.92ZM166.42 24.92C166.42 25.53 165.89 26.03 165.24 26.03C164.58 26.03 164.04 25.53 164.04 24.92C164.04 24.3 164.58 23.8 165.24 23.8C165.89 23.8 166.42 24.3 166.42 24.92ZM82.52 24.36L84.83 24.36L87.86 33.52L87.98 33.52L91 24.36L93.32 24.36L89.22 36L86.62 36L82.52 24.36ZM127.94 36L125.83 36L125.83 24.36L130.2 24.36C132.87 24.36 134.3 25.86 134.3 28.08C134.3 29.66 133.58 30.83 132.21 31.38L134.72 36L132.37 36L130.09 31.73L127.94 31.73L127.94 36ZM157.16 36L155.1 36L155.1 24.36L157.16 24.36L157.16 30.77L157.3 30.77L160.43 27.27L162.84 27.27L159.46 31.03L163.04 36L160.58 36L157.91 32.26L157.16 33.06L157.16 36ZM127.94 26.12L127.94 29.98L129.89 29.98C131.45 29.98 132.15 29.32 132.15 28.08C132.15 26.84 131.45 26.12 129.87 26.12L127.94 26.12ZM106.59 33.66C106.23 35.17 104.83 36.17 102.8 36.17C100.17 36.17 98.56 34.42 98.56 31.68C98.56 28.99 100.19 27.16 102.69 27.16C104.84 27.16 106.68 28.5 106.68 31.56L106.68 32.19L100.6 32.19C100.62 33.69 101.5 34.56 102.83 34.56C103.71 34.56 104.39 34.18 104.68 33.44L106.59 33.66ZM141.22 34.8C140.85 35.53 140.03 36.17 138.66 36.17C137 36.17 135.74 35.26 135.74 33.55C135.74 31.58 137.36 31.07 139.06 30.89C140.59 30.73 141.22 30.7 141.22 30.11L141.22 30.07C141.22 29.22 140.69 28.73 139.74 28.73C138.73 28.73 138.15 29.24 137.95 29.83L136.03 29.56C136.48 27.97 137.89 27.16 139.72 27.16C141.39 27.16 143.27 27.85 143.27 30.16L143.27 36L141.29 36L141.29 34.8L141.22 34.8ZM149.25 28.89C148.16 28.89 147.4 29.62 147.4 30.88L147.4 36L145.35 36L145.35 27.27L147.31 27.27L147.31 28.75L147.41 28.75C147.81 27.78 148.71 27.16 150.01 27.16C151.82 27.16 153.01 28.35 153 30.44L153 36L150.95 36L150.95 30.76C150.95 29.59 150.31 28.89 149.25 28.89ZM172.28 28.89C171.19 28.89 170.43 29.62 170.43 30.88L170.43 36L168.38 36L168.38 27.27L170.34 27.27L170.34 28.75L170.44 28.75C170.84 27.78 171.74 27.16 173.04 27.16C174.84 27.16 176.04 28.35 176.03 30.44L176.03 36L173.98 36L173.98 30.76C173.98 29.59 173.34 28.89 172.28 28.89ZM186.02 36.14C186.02 38.37 184.28 39.45 181.92 39.45C179.7 39.45 178.45 38.47 178.07 37.25L179.92 36.8C180.17 37.31 180.72 37.89 181.96 37.89C183.13 37.89 183.98 37.37 183.98 36.08L183.98 34.43L183.88 34.43C183.56 35.07 182.86 35.87 181.37 35.87C179.36 35.87 177.77 34.45 177.77 31.6C177.77 28.73 179.36 27.16 181.37 27.16C182.91 27.16 183.57 28.08 183.88 28.71L183.99 28.71L183.99 27.27L186.02 27.27L186.02 36.14ZM191.52 27.16C193.57 27.16 194.75 28.1 195.03 29.57L193.16 29.78C193 29.21 192.5 28.69 191.55 28.69C190.69 28.69 190.04 29.1 190.04 29.69C190.04 30.19 190.39 30.5 191.28 30.7L192.77 31.02C194.41 31.37 195.21 32.14 195.22 33.38C195.21 35.03 193.68 36.17 191.49 36.17C189.35 36.17 188 35.22 187.75 33.62L189.75 33.42C189.93 34.21 190.54 34.62 191.49 34.62C192.46 34.62 193.11 34.17 193.11 33.57C193.11 33.07 192.74 32.75 191.94 32.57L190.45 32.26C188.77 31.92 187.99 31.07 187.99 29.8C187.99 28.19 189.42 27.16 191.52 27.16ZM96.82 36L94.77 36L94.77 27.27L96.82 27.27L96.82 36ZM112.32 36L110.18 36L107.71 27.27L109.8 27.27L111.34 33.41L111.42 33.41L112.99 27.27L115.06 27.27L116.63 33.37L116.71 33.37L118.23 27.27L120.33 27.27L117.86 36L115.71 36L114.08 30.1L113.96 30.1L112.32 36ZM166.26 36L164.2 36L164.2 27.27L166.26 27.27L166.26 36ZM102.72 28.76C101.49 28.76 100.67 29.69 100.61 30.81L104.71 30.81C104.7 29.62 103.9 28.76 102.72 28.76ZM179.87 31.59C179.87 33.2 180.58 34.26 181.94 34.26C183.26 34.26 183.99 33.26 183.99 31.59C183.99 29.94 183.26 28.84 181.94 28.84C180.57 28.84 179.87 30.01 179.87 31.59ZM137.72 33.51C137.72 34.27 138.34 34.66 139.2 34.66C140.43 34.66 141.22 33.83 141.22 32.87L141.22 31.83C140.95 32.05 139.87 32.19 139.33 32.26C138.41 32.39 137.72 32.72 137.72 33.51Z" fill="#FFFFFF" fill-opacity="1.000000" fill-rule="evenodd"/>
	<rect id="Button" rx="19.000000" width="245.000000" height="58.000000" transform="translate(1.000000 1.000000)" stroke="#A259FF" stroke-opacity="1.000000" stroke-width="2.000000"/>
</svg>
