<svg width="224.000000" height="60.000000" viewBox="0 0 224 60" fill="none" xmlns="http://www.w3.org/2000/svg" xmlns:xlink="http://www.w3.org/1999/xlink">
	<desc>
			Created with Pixso.
	</desc>
	<defs/>
	<rect id="Button" rx="19.500000" width="223.000000" height="59.000000" transform="translate(0.500000 0.500000)" fill="#A259FF" fill-opacity="1.000000"/>
	<path id="Vector (Stroke)" d="M56.17 32.44C56.28 32.77 56.1 33.13 55.77 33.24C54.71 33.59 54.15 34.48 53.85 35.39C53.73 35.75 53.66 36.09 53.61 36.38C53.9 36.33 54.25 36.26 54.6 36.14C55.51 35.84 56.4 35.28 56.75 34.22C56.86 33.89 57.22 33.71 57.55 33.83C57.87 33.93 58.05 34.29 57.94 34.62C57.4 36.21 56.08 36.97 55 37.33C54.45 37.51 53.94 37.6 53.56 37.64C53.38 37.67 53.22 37.68 53.11 37.68C53.06 37.69 53.01 37.69 52.98 37.69C52.96 37.69 52.95 37.69 52.94 37.69L52.93 37.69L52.93 37.69L52.93 37.69L52.93 37.69C52.92 37.69 52.92 37.69 52.92 37.07C52.3 37.07 52.3 37.07 52.3 37.07L52.3 37.06L52.3 37.06L52.3 37.06L52.3 37.05C52.3 37.04 52.3 37.03 52.3 37.01C52.3 36.98 52.3 36.93 52.31 36.88C52.31 36.77 52.32 36.61 52.35 36.43C52.39 36.05 52.48 35.54 52.66 34.99C53.02 33.91 53.79 32.59 55.37 32.05C55.7 31.94 56.06 32.12 56.17 32.44ZM52.92 37.07L52.3 37.07C52.3 37.41 52.58 37.69 52.92 37.69L52.92 37.07Z" fill="#FFFFFF" fill-opacity="1.000000" fill-rule="evenodd"/>
	<path id="Vector (Stroke)" d="M66.54 23.45C65.82 23.34 64.03 23.3 62.2 25.13L57.34 30L60 32.65L64.86 27.79C66.69 25.96 66.65 24.17 66.54 23.45ZM66.72 22.21C65.72 22.07 63.5 22.07 61.32 24.25L56.01 29.55C55.9 29.67 55.83 29.83 55.83 30C55.83 30.16 55.9 30.32 56.01 30.44L59.55 33.98C59.8 34.22 60.19 34.22 60.44 33.98L65.74 28.67C67.92 26.49 67.92 24.27 67.78 23.27C67.74 23 67.62 22.75 67.43 22.56C67.24 22.37 66.99 22.25 66.72 22.21Z" fill="#FFFFFF" fill-opacity="1.000000" fill-rule="evenodd"/>
	<path id="Vector (Stroke)" d="M64.42 28.49C64.76 28.49 65.04 28.77 65.04 29.11L65.04 34.16L65.04 34.17C65.04 34.5 64.9 34.81 64.67 35.04L62.15 37.57C61.99 37.73 61.79 37.84 61.57 37.9C61.35 37.95 61.12 37.95 60.9 37.88C60.68 37.82 60.49 37.69 60.34 37.53C60.19 37.36 60.08 37.15 60.04 36.93L59.38 33.66C59.31 33.32 59.53 32.99 59.87 32.92C60.21 32.85 60.54 33.07 60.61 33.41L61.26 36.69L63.79 34.15L63.79 29.11C63.79 28.77 64.07 28.49 64.42 28.49Z" fill="#FFFFFF" fill-opacity="1.000000" fill-rule="evenodd"/>
	<path id="Vector (Stroke)" d="M55.82 24.95L55.83 24.95L60.88 24.95C61.22 24.95 61.5 25.23 61.5 25.57C61.5 25.92 61.22 26.2 60.88 26.2L55.84 26.2L55.83 26.2L55.83 26.2L53.3 28.73L53.31 28.73L56.58 29.38C56.92 29.45 57.14 29.78 57.07 30.12C57 30.46 56.67 30.68 56.33 30.61L53.06 29.95C53.06 29.95 53.06 29.95 53.06 29.95C52.84 29.91 52.63 29.8 52.47 29.65C52.3 29.5 52.17 29.31 52.11 29.09C52.04 28.87 52.04 28.64 52.09 28.42C52.15 28.2 52.26 28 52.42 27.84L52.42 27.84L52.42 27.84L54.95 25.32C55.18 25.09 55.49 24.95 55.82 24.95Z" fill="#FFFFFF" fill-opacity="1.000000" fill-rule="evenodd"/>
	<path id="Button" d="M93.26 28.07L91.11 28.07C90.74 26.84 89.78 26.09 88.38 26.09C86.5 26.09 85.14 27.55 85.14 30.17C85.14 32.8 86.48 34.26 88.43 34.26C90.18 34.26 91.28 33.21 91.32 31.55L88.64 31.55L88.64 29.91L93.36 29.91L93.36 31.3C93.36 34.3 91.3 36.16 88.42 36.16C85.21 36.16 83.02 33.87 83.02 30.19C83.02 26.44 85.31 24.2 88.35 24.2C90.93 24.2 92.91 25.79 93.26 28.07ZM123.29 27.56L121.26 27.56C121.15 26.57 120.32 25.98 119.06 25.98C117.75 25.98 116.96 26.62 116.96 27.5C116.95 28.47 117.98 28.87 118.93 29.1L120.02 29.37C121.77 29.79 123.44 30.71 123.45 32.73C123.44 34.78 121.82 36.17 119.03 36.17C116.32 36.17 114.6 34.87 114.51 32.56L116.59 32.56C116.67 33.78 117.7 34.37 119.01 34.37C120.39 34.37 121.33 33.71 121.34 32.71C121.33 31.81 120.5 31.42 119.25 31.1L117.92 30.76C116.01 30.26 114.82 29.3 114.82 27.63C114.81 25.57 116.65 24.2 119.09 24.2C121.57 24.2 123.25 25.59 123.29 27.56ZM168.53 34.62C168.21 35.26 167.53 36.15 166.03 36.15C163.97 36.15 162.43 34.52 162.43 31.64C162.43 28.73 164.02 27.16 166.03 27.16C167.57 27.16 168.22 28.08 168.53 28.71L168.61 28.71L168.61 24.36L170.68 24.36L170.68 36L168.66 36L168.66 34.62L168.53 34.62ZM107.43 27.27L109.15 27.27L109.15 28.86L107.43 28.86L107.43 33.37C107.43 34.2 107.84 34.38 108.36 34.38C108.61 34.38 108.85 34.33 108.96 34.3L109.31 35.91C109.09 35.98 108.68 36.1 108.1 36.12C106.55 36.16 105.36 35.35 105.37 33.71L105.37 28.86L104.13 28.86L104.13 27.27L105.37 27.27L105.37 25.18L107.43 25.18L107.43 27.27ZM127.86 27.27L129.59 27.27L129.59 28.86L127.86 28.86L127.86 33.37C127.86 34.2 128.28 34.38 128.8 34.38C129.05 34.38 129.28 34.33 129.4 34.3L129.75 35.91C129.52 35.98 129.12 36.1 128.53 36.12C126.99 36.16 125.8 35.35 125.81 33.71L125.81 28.86L124.57 28.86L124.57 27.27L125.81 27.27L125.81 25.18L127.86 25.18L127.86 27.27ZM149.95 27.27L151.68 27.27L151.68 28.86L149.95 28.86L149.95 33.37C149.95 34.2 150.37 34.38 150.89 34.38C151.14 34.38 151.38 34.33 151.49 34.3L151.84 35.91C151.61 35.98 151.21 36.1 150.63 36.12C149.08 36.16 147.89 35.35 147.9 33.71L147.9 28.86L146.66 28.86L146.66 27.27L147.9 27.27L147.9 25.18L149.95 25.18L149.95 27.27ZM142.56 36L140.5 36L140.5 27.27L142.5 27.27L142.5 28.72L142.58 28.72C142.91 27.71 143.74 27.14 144.74 27.14C144.97 27.14 145.29 27.17 145.48 27.2L145.48 29.09C145.3 29.03 144.87 28.97 144.52 28.97C143.39 28.97 142.56 29.76 142.56 30.87L142.56 36ZM102.97 33.66C102.6 35.17 101.2 36.17 99.17 36.17C96.54 36.17 94.93 34.42 94.93 31.68C94.93 28.99 96.56 27.16 99.06 27.16C101.21 27.16 103.05 28.5 103.05 31.56L103.05 32.19L96.97 32.19C96.99 33.69 97.87 34.56 99.2 34.56C100.09 34.56 100.77 34.18 101.05 33.44L102.97 33.66ZM136.38 34.8C136 35.53 135.19 36.17 133.82 36.17C132.15 36.17 130.9 35.26 130.9 33.55C130.9 31.58 132.52 31.07 134.21 30.89C135.75 30.73 136.37 30.7 136.37 30.11L136.37 30.07C136.37 29.22 135.85 28.73 134.89 28.73C133.89 28.73 133.31 29.24 133.1 29.83L131.18 29.56C131.64 27.97 133.05 27.16 134.88 27.16C136.55 27.16 138.43 27.85 138.43 30.16L138.43 36L136.45 36L136.45 34.8L136.38 34.8ZM160.97 33.66C160.6 35.17 159.2 36.17 157.17 36.17C154.54 36.17 152.93 34.42 152.93 31.68C152.93 28.99 154.56 27.16 157.06 27.16C159.21 27.16 161.05 28.5 161.05 31.56L161.05 32.19L154.97 32.19C154.99 33.69 155.87 34.56 157.2 34.56C158.09 34.56 158.77 34.18 159.05 33.44L160.97 33.66ZM99.09 28.76C97.86 28.76 97.04 29.69 96.98 30.81L101.08 30.81C101.07 29.62 100.27 28.76 99.09 28.76ZM157.09 28.76C155.86 28.76 155.04 29.69 154.98 30.81L159.08 30.81C159.07 29.62 158.27 28.76 157.09 28.76ZM164.53 31.63C164.53 33.27 165.25 34.46 166.61 34.46C167.92 34.46 168.66 33.32 168.66 31.63C168.66 29.94 167.93 28.84 166.61 28.84C165.23 28.84 164.53 30.01 164.53 31.63ZM132.88 33.51C132.88 34.27 133.5 34.66 134.35 34.66C135.59 34.66 136.38 33.83 136.38 32.87L136.38 31.83C136.11 32.05 135.03 32.19 134.49 32.26C133.57 32.39 132.88 32.72 132.88 33.51Z" fill="#FFFFFF" fill-opacity="1.000000" fill-rule="evenodd"/>
</svg>
