<svg width="250.000000" height="250.000000" viewBox="0 0 250 250" fill="none" xmlns="http://www.w3.org/2000/svg" xmlns:xlink="http://www.w3.org/1999/xlink">
	<desc>
			Created with Pixso.
	</desc>
	<defs>
		<filter id="filter_32_4707_dd" x="7.593750" y="7.593750" width="247.492188" height="247.492188" filterUnits="userSpaceOnUse" color-interpolation-filters="sRGB">
			<feFlood flood-opacity="0" result="BackgroundImageFix"/>
			<feBlend mode="normal" in="SourceGraphic" in2="BackgroundImageFix" result="shape"/>
			<feGaussianBlur stdDeviation="18" result="effect_layerBlur_1"/>
		</filter>
		<filter id="filter_32_4716_dd" x="41.160156" y="174.326172" width="159.802734" height="61.611328" filterUnits="userSpaceOnUse" color-interpolation-filters="sRGB">
			<feFlood flood-opacity="0" result="BackgroundImageFix"/>
			<feBlend mode="normal" in="SourceGraphic" in2="BackgroundImageFix" result="shape"/>
			<feGaussianBlur stdDeviation="6.8958" result="effect_layerBlur_1"/>
		</filter>
		<filter id="filter_32_4718_dd" x="78.939453" y="59.777344" width="59.683594" height="73.322266" filterUnits="userSpaceOnUse" color-interpolation-filters="sRGB">
			<feFlood flood-opacity="0" result="BackgroundImageFix"/>
			<feBlend mode="normal" in="SourceGraphic" in2="BackgroundImageFix" result="shape"/>
			<feColorMatrix in="SourceAlpha" type="matrix" values="0 0 0 0 0 0 0 0 0 0 0 0 0 0 0 0 0 0 127 0" result="hardAlpha"/>
			<feOffset dx="2.38455" dy="5.56394"/>
			<feGaussianBlur stdDeviation="3.97425"/>
			<feComposite in2="hardAlpha" operator="arithmetic" k2="-1" k3="1"/>
			<feColorMatrix type="matrix" values="0 0 0 0 0.10588 0 0 0 0 0.46667 0 0 0 0 0.5451 0 0 0 0.15 0"/>
			<feBlend mode="normal" in2="shape" result="effect_innerShadow_1"/>
		</filter>
		<filter id="filter_32_4724_dd" x="112.845703" y="75.066406" width="59.636719" height="32.595703" filterUnits="userSpaceOnUse" color-interpolation-filters="sRGB">
			<feFlood flood-opacity="0" result="BackgroundImageFix"/>
			<feBlend mode="normal" in="SourceGraphic" in2="BackgroundImageFix" result="shape"/>
			<feColorMatrix in="SourceAlpha" type="matrix" values="0 0 0 0 0 0 0 0 0 0 0 0 0 0 0 0 0 0 127 0" result="hardAlpha"/>
			<feOffset dx="5.62585" dy="3.75056"/>
			<feGaussianBlur stdDeviation="4.06311"/>
			<feComposite in2="hardAlpha" operator="arithmetic" k2="-1" k3="1"/>
			<feColorMatrix type="matrix" values="0 0 0 0 0.10588 0 0 0 0 0.46667 0 0 0 0 0.5451 0 0 0 0.09 0"/>
			<feBlend mode="normal" in2="shape" result="effect_innerShadow_1"/>
		</filter>
		<clipPath id="clip32_4744">
			<rect id="Icon" rx="-0.500000" width="249.000000" height="249.000000" transform="translate(0.500000 0.500000)" fill="white" fill-opacity="0"/>
		</clipPath>
		<linearGradient x1="49.895039" y1="20.834015" x2="208.898315" y2="53.932632" id="paint_linear_32_4705_0" gradientUnits="userSpaceOnUse">
			<stop stop-color="#A259FF"/>
			<stop offset="1.000000" stop-color="#3B3B3B"/>
		</linearGradient>
		<linearGradient x1="161.231430" y1="187.801147" x2="114.714241" y2="182.498657" id="paint_linear_32_4706_0" gradientUnits="userSpaceOnUse">
			<stop stop-color="#A259FF" stop-opacity="0.000000"/>
			<stop offset="1.000000" stop-color="#FF6250"/>
		</linearGradient>
		<linearGradient x1="208.956497" y1="73.491478" x2="222.298904" y2="83.971184" id="paint_linear_32_4712_0" gradientUnits="userSpaceOnUse">
			<stop stop-color="#A259FF"/>
			<stop offset="1.000000" stop-color="#377DF7"/>
		</linearGradient>
		<linearGradient x1="51.083591" y1="204.279770" x2="50.637856" y2="217.555130" id="paint_linear_32_4713_0" gradientUnits="userSpaceOnUse">
			<stop stop-color="#A259FF"/>
			<stop offset="1.000000" stop-color="#377DF7"/>
		</linearGradient>
		<linearGradient x1="194.859512" y1="181.393387" x2="208.120377" y2="180.632523" id="paint_linear_32_4714_0" gradientUnits="userSpaceOnUse">
			<stop stop-color="#A259FF"/>
			<stop offset="1.000000" stop-color="#377DF7"/>
		</linearGradient>
		<radialGradient gradientTransform="translate(121.062 205.132) rotate(90) scale(10.1188 59.2142)" cx="0.000000" cy="0.000000" r="1.000000" id="paint_radial_32_4715_0" gradientUnits="userSpaceOnUse">
			<stop stop-color="#2B2B2B"/>
			<stop offset="1.000000" stop-color="#2B2B2B" stop-opacity="0.000000"/>
		</radialGradient>
		<linearGradient x1="86.098587" y1="66.233147" x2="136.257996" y2="64.687408" id="paint_linear_32_4717_0" gradientUnits="userSpaceOnUse">
			<stop stop-color="#A259FF"/>
			<stop offset="1.000000" stop-color="#3B3B3B"/>
		</linearGradient>
		<linearGradient x1="118.270386" y1="91.701950" x2="114.977806" y2="81.942261" id="paint_linear_32_4719_0" gradientUnits="userSpaceOnUse">
			<stop stop-color="#A259FF"/>
			<stop offset="0.666667" stop-color="#FFFFFF"/>
		</linearGradient>
		<linearGradient x1="122.856155" y1="117.357262" x2="119.696732" y2="107.886246" id="paint_linear_32_4720_0" gradientUnits="userSpaceOnUse">
			<stop stop-color="#A259FF"/>
			<stop offset="0.666667" stop-color="#FFFFFF"/>
		</linearGradient>
		<linearGradient x1="120.480721" y1="103.886475" x2="117.321304" y2="94.415459" id="paint_linear_32_4721_0" gradientUnits="userSpaceOnUse">
			<stop stop-color="#A259FF"/>
			<stop offset="0.666667" stop-color="#FFFFFF"/>
		</linearGradient>
		<linearGradient x1="112.845734" y1="114.984009" x2="149.544052" y2="59.906082" id="paint_linear_32_4723_0" gradientUnits="userSpaceOnUse">
			<stop stop-color="#A259FF"/>
			<stop offset="1.000000" stop-color="#FF6250"/>
		</linearGradient>
		<linearGradient x1="141.924149" y1="178.176849" x2="129.342621" y2="119.127960" id="paint_linear_32_4728_0" gradientUnits="userSpaceOnUse">
			<stop stop-color="#A259FF"/>
			<stop offset="0.666667" stop-color="#FFFFFF"/>
		</linearGradient>
		<linearGradient x1="183.859039" y1="123.353165" x2="212.899796" y2="157.154800" id="paint_linear_32_4729_0" gradientUnits="userSpaceOnUse">
			<stop stop-color="#A259FF"/>
			<stop offset="1.000000" stop-color="#377DF7"/>
		</linearGradient>
		<linearGradient x1="101.593422" y1="187.156342" x2="76.770058" y2="161.794037" id="paint_linear_32_4730_0" gradientUnits="userSpaceOnUse">
			<stop stop-color="#A259FF"/>
			<stop offset="0.666667" stop-color="#FFFFFF"/>
		</linearGradient>
		<linearGradient x1="145.223022" y1="158.179504" x2="95.326286" y2="58.703720" id="paint_linear_32_4731_0" gradientUnits="userSpaceOnUse">
			<stop stop-color="#A259FF"/>
			<stop offset="0.666667" stop-color="#FFFFFF"/>
		</linearGradient>
		<linearGradient x1="89.562607" y1="183.031403" x2="105.055351" y2="186.016922" id="paint_linear_32_4732_0" gradientUnits="userSpaceOnUse">
			<stop stop-color="#FFFFFF"/>
			<stop offset="1.000000" stop-color="#BCF3FF"/>
		</linearGradient>
		<linearGradient x1="76.304688" y1="121.766464" x2="167.648148" y2="139.000137" id="paint_linear_32_4733_0" gradientUnits="userSpaceOnUse">
			<stop stop-color="#AFF1FF"/>
			<stop offset="1.000000" stop-color="#65C8DE"/>
		</linearGradient>
		<linearGradient x1="151.901123" y1="127.272324" x2="153.386627" y2="108.464355" id="paint_linear_32_4741_0" gradientUnits="userSpaceOnUse">
			<stop stop-color="#A259FF"/>
			<stop offset="0.666667" stop-color="#FFFFFF"/>
		</linearGradient>
		<linearGradient x1="135.642715" y1="193.160248" x2="110.819336" y2="167.797943" id="paint_linear_32_4742_0" gradientUnits="userSpaceOnUse">
			<stop stop-color="#A259FF"/>
			<stop offset="0.666667" stop-color="#FFFFFF"/>
		</linearGradient>
		<linearGradient x1="123.873581" y1="189.082169" x2="139.366318" y2="192.067673" id="paint_linear_32_4743_0" gradientUnits="userSpaceOnUse">
			<stop stop-color="#FFFFFF"/>
			<stop offset="1.000000" stop-color="#BCF3FF"/>
		</linearGradient>
	</defs>
	<rect id="Icon" rx="-0.500000" width="249.000000" height="249.000000" transform="translate(0.500000 0.500000)" fill="#FFFFFF" fill-opacity="0"/>
	<g clip-path="url(#clip32_4744)">
		<path id="Vector" d="M125 229.16C182.53 229.16 229.16 182.53 229.16 125C229.16 67.47 182.53 20.83 125 20.83C67.47 20.83 20.83 67.47 20.83 125C20.83 182.53 67.47 229.16 125 229.16Z" fill="url(#paint_linear_32_4705_0)" fill-opacity="1.000000" fill-rule="nonzero"/>
		<g filter="url(#filter_32_4707_dd)">
			<path id="Vector" d="M131.34 201.08C169.85 201.08 201.08 169.85 201.08 131.34C201.08 92.82 169.85 61.59 131.34 61.59C92.82 61.59 61.59 92.82 61.59 131.34C61.59 169.85 92.82 201.08 131.34 201.08Z" fill="url(#paint_linear_32_4706_0)" fill-opacity="1.000000" fill-rule="nonzero"/>
		</g>
		<path id="Vector" d="M56.24 82.04C57.99 82.04 59.4 80.63 59.4 78.89C59.4 77.14 57.99 75.73 56.24 75.73C54.5 75.73 53.09 77.14 53.09 78.89C53.09 80.63 54.5 82.04 56.24 82.04ZM56.24 84.41C59.29 84.41 61.76 81.94 61.76 78.89C61.76 75.84 59.29 73.36 56.24 73.36C53.19 73.36 50.72 75.84 50.72 78.89C50.72 81.94 53.19 84.41 56.24 84.41Z" fill="#FFFFFF" fill-opacity="1.000000" fill-rule="evenodd"/>
		<path id="Vector" d="M46.28 179.87C48.02 179.87 49.43 178.45 49.43 176.71C49.43 174.97 48.02 173.56 46.28 173.56C44.54 173.56 43.12 174.97 43.12 176.71C43.12 178.45 44.54 179.87 46.28 179.87ZM46.28 182.24C49.33 182.24 51.8 179.76 51.8 176.71C51.8 173.66 49.33 171.19 46.28 171.19C43.23 171.19 40.76 173.66 40.76 176.71C40.76 179.76 43.23 182.24 46.28 182.24Z" fill="#FFFFFF" fill-opacity="1.000000" fill-rule="evenodd"/>
		<path id="Vector" d="M193.02 46.72C194.76 46.72 196.17 45.3 196.17 43.56C196.17 41.82 194.76 40.41 193.02 40.41C191.27 40.41 189.86 41.82 189.86 43.56C189.86 45.3 191.27 46.72 193.02 46.72ZM193.02 49.08C196.07 49.08 198.54 46.61 198.54 43.56C198.54 40.51 196.07 38.04 193.02 38.04C189.97 38.04 187.5 40.51 187.5 43.56C187.5 46.61 189.97 49.08 193.02 49.08Z" fill="#FFFFFF" fill-opacity="1.000000" fill-rule="evenodd"/>
		<path id="Vector" d="M59.23 38.21C59.46 37.25 60.83 37.25 61.06 38.21L61.84 41.44C61.92 41.79 62.19 42.06 62.53 42.14L65.77 42.92C66.73 43.15 66.73 44.52 65.77 44.75L62.53 45.53C62.19 45.62 61.92 45.88 61.84 46.23L61.06 49.46C60.83 50.43 59.46 50.43 59.23 49.46L58.44 46.23C58.36 45.88 58.09 45.62 57.75 45.53L54.51 44.75C53.55 44.52 53.55 43.15 54.51 42.92L57.75 42.14C58.09 42.06 58.36 41.79 58.44 41.44L59.23 38.21Z" fill="#FFFFFF" fill-opacity="1.000000" fill-rule="nonzero"/>
		<path id="Vector" d="M204.97 71.18C205.23 70.13 206.73 70.13 206.98 71.18L207.84 74.73C207.93 75.11 208.22 75.4 208.6 75.49L212.15 76.35C213.2 76.6 213.2 78.1 212.15 78.36L208.6 79.21C208.22 79.3 207.93 79.6 207.84 79.98L206.98 83.52C206.73 84.58 205.23 84.58 204.97 83.52L204.12 79.98C204.02 79.6 203.73 79.3 203.35 79.21L199.81 78.36C198.75 78.1 198.75 76.6 199.81 76.35L203.35 75.49C203.73 75.4 204.02 75.11 204.12 74.73L204.97 71.18Z" fill="url(#paint_linear_32_4712_0)" fill-opacity="1.000000" fill-rule="nonzero"/>
		<path id="Vector" d="M49.84 200.39C51.04 200.2 52 201.38 51.57 202.51L48.64 210.17C48.21 211.31 46.71 211.54 45.94 210.6L40.77 204.24C40.01 203.3 40.55 201.88 41.75 201.69L49.84 200.39Z" fill="url(#paint_linear_32_4713_0)" fill-opacity="1.000000" fill-rule="nonzero"/>
		<path id="Vector" d="M191.1 182.97C190.8 181.8 191.88 180.74 193.05 181.06L200.95 183.28C202.12 183.61 202.49 185.08 201.62 185.93L195.76 191.66C194.89 192.51 193.43 192.09 193.12 190.92L191.1 182.97Z" fill="url(#paint_linear_32_4714_0)" fill-opacity="1.000000" fill-rule="nonzero"/>
		<g filter="url(#filter_32_4716_dd)">
			<path id="Vector" d="M180.27 205.13C180.27 210.72 153.76 215.25 121.06 215.25C88.35 215.25 61.84 210.72 61.84 205.13C61.84 199.54 88.35 195.01 121.06 195.01C153.76 195.01 180.27 199.54 180.27 205.13Z" fill="url(#paint_radial_32_4715_0)" fill-opacity="1.000000" fill-rule="nonzero"/>
		</g>
		<g filter="url(#filter_32_4718_dd)">
			<path id="Vector" d="M122.21 59.86L83.64 66.66C80.54 67.21 78.48 70.16 79.02 73.26L88.74 128.39C89.29 131.49 92.24 133.55 95.34 133.01L133.91 126.21C137.01 125.66 139.08 122.71 138.53 119.61L128.81 64.48C128.26 61.38 125.31 59.31 122.21 59.86Z" fill="url(#paint_linear_32_4717_0)" fill-opacity="1.000000" fill-rule="nonzero"/>
		</g>
		<path id="Vector" d="M122.77 88.2L92.81 93.48C91.8 93.66 91.13 94.62 91.3 95.63L91.3 95.64C91.48 96.64 92.44 97.32 93.45 97.14L123.41 91.86C124.42 91.68 125.1 90.72 124.92 89.71L124.92 89.7C124.74 88.69 123.78 88.02 122.77 88.2Z" fill="url(#paint_linear_32_4719_0)" fill-opacity="1.000000" fill-rule="nonzero"/>
		<path id="Vector" d="M127.33 113.94L97.62 119.18C96.62 119.36 95.95 120.29 96.12 121.27L96.12 121.27C96.3 122.25 97.25 122.9 98.25 122.73L127.95 117.49C128.95 117.31 129.62 116.38 129.45 115.4L129.45 115.39C129.28 114.42 128.33 113.77 127.33 113.94Z" fill="url(#paint_linear_32_4720_0)" fill-opacity="1.000000" fill-rule="nonzero"/>
		<path id="Vector" d="M124.95 100.47L95.25 105.71C94.25 105.89 93.58 106.82 93.75 107.8L93.75 107.8C93.92 108.78 94.87 109.43 95.87 109.25L125.58 104.02C126.58 103.84 127.25 102.91 127.08 101.93L127.07 101.92C126.9 100.94 125.95 100.29 124.95 100.47Z" fill="url(#paint_linear_32_4721_0)" fill-opacity="1.000000" fill-rule="nonzero"/>
		<path id="Vector" d="M100.4 72.48L91.65 74.03C89.71 74.37 88.41 76.22 88.75 78.16L89.18 80.59C89.52 82.53 91.37 83.82 93.31 83.48L102.07 81.94C104.01 81.59 105.3 79.75 104.96 77.81L104.53 75.38C104.19 73.44 102.34 72.14 100.4 72.48Z" fill="#A259FF" fill-opacity="1.000000" fill-rule="nonzero"/>
		<g filter="url(#filter_32_4724_dd)">
			<path id="Vector" d="M168.17 75.06L117.15 75.06C114.77 75.06 112.84 76.99 112.84 79.37L112.84 103.35C112.84 105.73 114.77 107.66 117.15 107.66L168.17 107.66C170.55 107.66 172.48 105.73 172.48 103.35L172.48 79.37C172.48 76.99 170.55 75.06 168.17 75.06Z" fill="url(#paint_linear_32_4723_0)" fill-opacity="1.000000" fill-rule="nonzero"/>
		</g>
		<path id="Vector" d="M125.43 96.31C128.17 96.31 130.39 94.09 130.39 91.35C130.39 88.62 128.17 86.41 125.43 86.41C122.7 86.41 120.49 88.62 120.49 91.35C120.49 94.09 122.7 96.31 125.43 96.31Z" fill="#FFFFFF" fill-opacity="1.000000" fill-rule="nonzero"/>
		<path id="Vector" d="M143.12 96.31C145.86 96.31 148.07 94.09 148.07 91.35C148.07 88.62 145.86 86.41 143.12 86.41C140.39 86.41 138.17 88.62 138.17 91.35C138.17 94.09 140.39 96.31 143.12 96.31Z" fill="#FFFFFF" fill-opacity="1.000000" fill-rule="nonzero"/>
		<path id="Vector" d="M160.81 96.31C163.55 96.31 165.76 94.09 165.76 91.35C165.76 88.62 163.55 86.41 160.81 86.41C158.08 86.41 155.86 88.62 155.86 91.35C155.86 94.09 158.08 96.31 160.81 96.31Z" fill="#FFFFFF" fill-opacity="1.000000" fill-rule="nonzero"/>
		<path id="Vector" d="M116.13 161.24C116.56 158.81 118.87 157.19 121.3 157.62L146.79 162.12C150.27 162.73 153.42 164.35 155.65 166.68C157.88 169.02 159.39 172.34 158.74 176.02C158.1 179.69 155.54 182.29 152.65 183.73C149.75 185.16 146.24 185.61 142.75 184.99L82.19 174.31C79.76 173.89 78.15 171.57 78.57 169.15C79 166.72 81.32 165.1 83.74 165.53L144.31 176.21C146.11 176.52 147.67 176.24 148.69 175.73C149.71 175.23 149.92 174.68 149.96 174.47C150 174.25 149.99 173.67 149.2 172.85C148.41 172.02 147.05 171.22 145.24 170.9L119.65 165.5C117.22 165.07 115.7 163.67 116.13 161.24Z" fill="url(#paint_linear_32_4728_0)" fill-opacity="1.000000" fill-rule="evenodd"/>
		<path id="Vector" d="M165.37 115.83C166.33 113.77 168.55 112.61 170.78 113L190.77 116.53C193.49 117.01 195.32 119.61 194.84 122.34C194.35 125.07 191.75 126.89 189.02 126.41L172.84 123.55L163.27 144.08C162.1 146.59 159.12 147.68 156.6 146.51C154.1 145.34 153.01 142.35 154.18 139.85L165.37 115.83Z" fill="url(#paint_linear_32_4729_0)" fill-opacity="1.000000" fill-rule="evenodd"/>
		<path id="Vector" d="M94.14 192.08C100.05 193.13 105.69 189.18 106.73 183.27C107.77 177.36 103.83 171.72 97.92 170.68C92.01 169.64 86.37 173.58 85.33 179.49C84.29 185.4 88.23 191.04 94.14 192.08Z" fill="url(#paint_linear_32_4730_0)" fill-opacity="1.000000" fill-rule="nonzero"/>
		<path id="Vector" d="M160.76 124.9L87 111.89C81.48 110.92 76.57 114.89 76.95 120.01L77.87 149.92C78.15 153.63 81.17 156.75 85.16 157.46L149.45 173.13L167.44 135.98C171.59 128.46 166.3 125.87 160.76 124.9Z" fill="url(#paint_linear_32_4731_0)" fill-opacity="1.000000" fill-rule="nonzero"/>
		<path id="Vector" d="M94.78 186.72C97.75 187.25 100.59 185.26 101.11 182.29C101.63 179.32 99.65 176.49 96.68 175.97C93.71 175.44 90.88 177.43 90.35 180.4C89.83 183.37 91.81 186.2 94.78 186.72Z" fill="url(#paint_linear_32_4732_0)" fill-opacity="1.000000" fill-rule="nonzero"/>
		<mask id="mask32_4734" mask-type="alpha" maskUnits="userSpaceOnUse" x="76.931641" y="111.748047" width="91.165359" height="61.387993">
			<path id="Vector" d="M160.75 124.9L87 111.89C81.47 110.92 76.56 114.89 76.95 120.01L77.87 149.92C78.15 153.63 81.17 156.75 85.16 157.46L149.45 173.13L167.44 135.98C169.56 131.28 166.3 125.87 160.75 124.9Z" fill="url(#paint_linear_32_4733_0)" fill-opacity="1.000000" fill-rule="nonzero"/>
		</mask>
		<g mask="url(#mask32_4734)">
			<path id="Vector" d="M125.07 144.62C125.39 142.93 127.02 141.81 128.72 142.12C130.41 142.43 131.53 144.06 131.21 145.75L126.99 168.09C126.67 169.78 125.03 170.9 123.34 170.58C121.64 170.27 120.53 168.64 120.85 166.95L125.07 144.62Z" fill="#A259FF" fill-opacity="1.000000" fill-rule="nonzero"/>
			<path id="Vector" d="M180.17 130.1C181.58 130.34 182.54 131.69 182.3 133.1L182.12 134.13C181.88 135.55 180.54 136.49 179.13 136.25L76 118.34C74.59 118.09 73.64 116.75 73.88 115.33L74.05 114.31C74.29 112.89 75.63 111.94 77.05 112.19L180.17 130.1Z" fill="#A259FF" fill-opacity="1.000000" fill-rule="nonzero"/>
			<path id="Vector" d="M142.43 147.76C142.75 146.06 144.38 144.94 146.07 145.26C147.77 145.57 148.88 147.2 148.56 148.89L144.34 171.22C144.02 172.92 142.39 174.03 140.69 173.72C139 173.41 137.88 171.78 138.2 170.09L142.43 147.76Z" fill="#A259FF" fill-opacity="1.000000" fill-rule="nonzero"/>
			<path id="Vector" d="M107.72 141.48C108.04 139.79 109.67 138.67 111.37 138.99C113.06 139.3 114.18 140.92 113.85 142.62L109.63 164.95C109.31 166.64 107.68 167.76 105.99 167.45C104.29 167.13 103.18 165.51 103.5 163.82L107.72 141.48Z" fill="#A259FF" fill-opacity="1.000000" fill-rule="nonzero"/>
			<path id="Vector" d="M90.16 138.39C90.49 136.7 92.12 135.58 93.81 135.89C95.51 136.2 96.62 137.83 96.3 139.52L92.08 161.85C91.76 163.55 90.13 164.67 88.43 164.35C86.74 164.04 85.62 162.41 85.94 160.72L90.16 138.39Z" fill="#A259FF" fill-opacity="1.000000" fill-rule="nonzero"/>
		</g>
		<g mask="url(#mask32_4734)">
			<path id="Vector" d="M74.92 112.2C75.25 110.37 77 109.14 78.84 109.46L168.97 125.35C170.8 125.68 172.03 127.43 171.71 129.27C171.38 131.11 169.63 132.34 167.79 132.01L77.66 116.12C75.83 115.8 74.6 114.04 74.92 112.2Z" fill="url(#paint_linear_32_4741_0)" fill-opacity="1.000000" fill-rule="nonzero"/>
		</g>
		<g mask="url(#mask32_4734)">
			<path id="Vector" d="M128.19 198.09C134.1 199.13 139.74 195.18 140.78 189.27C141.83 183.36 137.88 177.72 131.97 176.68C126.06 175.64 120.42 179.59 119.38 185.5C118.34 191.41 122.28 197.04 128.19 198.09Z" fill="url(#paint_linear_32_4742_0)" fill-opacity="1.000000" fill-rule="nonzero"/>
		</g>
		<g mask="url(#mask32_4734)">
			<path id="Vector" d="M129.1 192.77C132.06 193.3 134.89 191.31 135.42 188.34C135.94 185.37 133.96 182.54 130.99 182.02C128.02 181.5 125.19 183.48 124.67 186.45C124.14 189.42 126.12 192.25 129.1 192.77Z" fill="url(#paint_linear_32_4743_0)" fill-opacity="1.000000" fill-rule="nonzero"/>
		</g>
	</g>
</svg>
