<svg width="250.000000" height="250.000000" viewBox="0 0 250 250" fill="none" xmlns="http://www.w3.org/2000/svg" xmlns:xlink="http://www.w3.org/1999/xlink">
	<desc>
			Created with Pixso.
	</desc>
	<defs>
		<filter id="filter_32_4632_dd" x="-5.086914" y="-5.085938" width="260.173828" height="260.173828" filterUnits="userSpaceOnUse" color-interpolation-filters="sRGB">
			<feFlood flood-opacity="0" result="BackgroundImageFix"/>
			<feBlend mode="normal" in="SourceGraphic" in2="BackgroundImageFix" result="shape"/>
			<feGaussianBlur stdDeviation="18" result="effect_layerBlur_1"/>
		</filter>
		<clipPath id="clip32_4673">
			<rect id="Icon" rx="-0.500000" width="249.000000" height="249.000000" transform="translate(0.500000 0.500000)" fill="white" fill-opacity="0"/>
		</clipPath>
		<linearGradient x1="49.894093" y1="20.833969" x2="208.897278" y2="53.932755" id="paint_linear_32_4630_0" gradientUnits="userSpaceOnUse">
			<stop stop-color="#A259FF"/>
			<stop offset="1.000000" stop-color="#3B3B3B"/>
		</linearGradient>
		<linearGradient x1="73.550774" y1="48.914032" x2="220.704758" y2="77.293671" id="paint_linear_32_4631_0" gradientUnits="userSpaceOnUse">
			<stop stop-color="#A259FF" stop-opacity="0.000000"/>
			<stop offset="1.000000" stop-color="#FF6250"/>
		</linearGradient>
		<linearGradient x1="204.428925" y1="198.491959" x2="217.771317" y2="208.971130" id="paint_linear_32_4637_0" gradientUnits="userSpaceOnUse">
			<stop stop-color="#A259FF"/>
			<stop offset="1.000000" stop-color="#377DF7"/>
		</linearGradient>
		<linearGradient x1="52.895115" y1="213.338364" x2="52.449379" y2="226.613724" id="paint_linear_32_4638_0" gradientUnits="userSpaceOnUse">
			<stop stop-color="#A259FF"/>
			<stop offset="1.000000" stop-color="#377DF7"/>
		</linearGradient>
		<linearGradient x1="209.354630" y1="60.922264" x2="222.615509" y2="60.161758" id="paint_linear_32_4639_0" gradientUnits="userSpaceOnUse">
			<stop stop-color="#A259FF"/>
			<stop offset="1.000000" stop-color="#377DF7"/>
		</linearGradient>
		<linearGradient x1="159.013519" y1="121.437469" x2="191.713699" y2="127.091476" id="paint_linear_32_4640_0" gradientUnits="userSpaceOnUse">
			<stop stop-color="#A259FF"/>
			<stop offset="1.000000" stop-color="#3B3B3B"/>
		</linearGradient>
		<linearGradient x1="137.498047" y1="203.709900" x2="102.172852" y2="134.339432" id="paint_linear_32_4643_0" gradientUnits="userSpaceOnUse">
			<stop stop-color="#A259FF"/>
			<stop offset="1.000000" stop-color="#3B3B3B"/>
		</linearGradient>
		<linearGradient x1="79.724396" y1="85.053947" x2="164.797592" y2="77.705879" id="paint_linear_32_4644_0" gradientUnits="userSpaceOnUse">
			<stop stop-color="#A259FF"/>
			<stop offset="1.000000" stop-color="#FF6250"/>
		</linearGradient>
		<linearGradient x1="145.172928" y1="105.539627" x2="154.102264" y2="103.951759" id="paint_linear_32_4645_0" gradientUnits="userSpaceOnUse">
			<stop stop-color="#A259FF"/>
			<stop offset="1.000000" stop-color="#FF6250"/>
		</linearGradient>
		<linearGradient x1="150.460449" y1="103.490387" x2="159.388885" y2="101.902534" id="paint_linear_32_4646_0" gradientUnits="userSpaceOnUse">
			<stop stop-color="#A259FF"/>
			<stop offset="1.000000" stop-color="#3B3B3B"/>
		</linearGradient>
		<linearGradient x1="78.903801" y1="94.671219" x2="94.872742" y2="93.116875" id="paint_linear_32_4647_0" gradientUnits="userSpaceOnUse">
			<stop stop-color="#A259FF"/>
			<stop offset="1.000000" stop-color="#3B3B3B"/>
		</linearGradient>
		<linearGradient x1="95.197083" y1="125.387405" x2="101.229691" y2="133.862961" id="paint_linear_32_4665_0" gradientUnits="userSpaceOnUse">
			<stop stop-color="#A259FF"/>
			<stop offset="1.000000" stop-color="#FF6250"/>
		</linearGradient>
		<linearGradient x1="94.999641" y1="130.385193" x2="101.619209" y2="138.015625" id="paint_linear_32_4666_0" gradientUnits="userSpaceOnUse">
			<stop stop-color="#A259FF"/>
			<stop offset="1.000000" stop-color="#FF6250"/>
		</linearGradient>
		<linearGradient x1="84.164459" y1="139.491699" x2="165.897583" y2="160.966339" id="paint_linear_32_4668_0" gradientUnits="userSpaceOnUse">
			<stop stop-color="#A259FF"/>
			<stop offset="1.000000" stop-color="#3B3B3B"/>
		</linearGradient>
		<linearGradient x1="145.194275" y1="160.976395" x2="3.605598" y2="93.023514" id="paint_linear_32_4670_0" gradientUnits="userSpaceOnUse">
			<stop stop-color="#A259FF"/>
			<stop offset="0.666667" stop-color="#FFFFFF"/>
		</linearGradient>
	</defs>
	<rect id="Icon" rx="-0.500000" width="249.000000" height="249.000000" transform="translate(0.500000 0.500000)" fill="#FFFFFF" fill-opacity="0"/>
	<g clip-path="url(#clip32_4673)">
		<path id="Vector" d="M125 229.16C182.52 229.16 229.16 182.53 229.16 125C229.16 67.47 182.52 20.83 125 20.83C67.46 20.83 20.83 67.47 20.83 125C20.83 182.53 67.46 229.16 125 229.16Z" fill="url(#paint_linear_32_4630_0)" fill-opacity="1.000000" fill-rule="nonzero"/>
		<g filter="url(#filter_32_4632_dd)">
			<path id="Vector" d="M125 201.08C167.02 201.08 201.08 167.02 201.08 125C201.08 82.97 167.02 48.91 125 48.91C82.97 48.91 48.91 82.97 48.91 125C48.91 167.02 82.97 201.08 125 201.08Z" fill="url(#paint_linear_32_4631_0)" fill-opacity="1.000000" fill-rule="nonzero"/>
		</g>
		<path id="Vector" d="M117.84 40.38C119.58 40.38 120.99 38.96 120.99 37.22C120.99 35.48 119.58 34.07 117.84 34.07C116.09 34.07 114.68 35.48 114.68 37.22C114.68 38.96 116.09 40.38 117.84 40.38ZM117.84 42.74C120.89 42.74 123.36 40.27 123.36 37.22C123.36 34.17 120.89 31.7 117.84 31.7C114.79 31.7 112.31 34.17 112.31 37.22C112.31 40.27 114.79 42.74 117.84 42.74Z" fill="#FFFFFF" fill-opacity="1.000000" fill-rule="evenodd"/>
		<path id="Vector" d="M42.66 185.3C44.4 185.3 45.81 183.89 45.81 182.15C45.81 180.41 44.4 178.99 42.66 178.99C40.91 178.99 39.5 180.41 39.5 182.15C39.5 183.89 40.91 185.3 42.66 185.3ZM42.66 187.67C45.71 187.67 48.18 185.2 48.18 182.15C48.18 179.1 45.71 176.63 42.66 176.63C39.61 176.63 37.13 179.1 37.13 182.15C37.13 185.2 39.61 187.67 42.66 187.67Z" fill="#FFFFFF" fill-opacity="1.000000" fill-rule="evenodd"/>
		<path id="Vector" d="M215.66 178.06C217.41 178.06 218.82 176.64 218.82 174.9C218.82 173.16 217.41 171.75 215.66 171.75C213.92 171.75 212.51 173.16 212.51 174.9C212.51 176.64 213.92 178.06 215.66 178.06ZM215.66 180.43C218.71 180.43 221.19 177.95 221.19 174.9C221.19 171.85 218.71 169.38 215.66 169.38C212.61 169.38 210.14 171.85 210.14 174.9C210.14 177.95 212.61 180.43 215.66 180.43Z" fill="#FFFFFF" fill-opacity="1.000000" fill-rule="evenodd"/>
		<path id="Vector" d="M66.47 54.51C66.7 53.55 68.07 53.55 68.3 54.51L69.08 57.75C69.17 58.09 69.44 58.36 69.78 58.44L73.02 59.23C73.98 59.46 73.98 60.83 73.02 61.06L69.78 61.84C69.44 61.92 69.17 62.19 69.08 62.53L68.3 65.77C68.07 66.73 66.7 66.73 66.47 65.77L65.69 62.53C65.61 62.19 65.34 61.92 65 61.84L61.76 61.06C60.8 60.83 60.8 59.46 61.76 59.23L65 58.44C65.34 58.36 65.61 58.09 65.69 57.75L66.47 54.51Z" fill="#FFFFFF" fill-opacity="1.000000" fill-rule="nonzero"/>
		<path id="Vector" d="M200.45 196.18C200.7 195.13 202.2 195.13 202.45 196.18L203.31 199.73C203.4 200.11 203.69 200.4 204.07 200.49L207.62 201.35C208.67 201.6 208.67 203.1 207.62 203.36L204.07 204.21C203.69 204.3 203.4 204.6 203.31 204.97L202.45 208.52C202.2 209.58 200.7 209.58 200.45 208.52L199.59 204.97C199.5 204.6 199.2 204.3 198.83 204.21L195.28 203.36C194.23 203.1 194.23 201.6 195.28 201.35L198.83 200.49C199.2 200.4 199.5 200.11 199.59 199.73L200.45 196.18Z" fill="url(#paint_linear_32_4637_0)" fill-opacity="1.000000" fill-rule="nonzero"/>
		<path id="Vector" d="M51.65 209.45C52.85 209.26 53.81 210.43 53.38 211.57L50.45 219.23C50.02 220.36 48.52 220.6 47.75 219.66L42.58 213.3C41.82 212.36 42.36 210.94 43.56 210.75L51.65 209.45Z" fill="url(#paint_linear_32_4638_0)" fill-opacity="1.000000" fill-rule="nonzero"/>
		<path id="Vector" d="M205.59 62.5C205.29 61.33 206.38 60.26 207.55 60.59L215.44 62.81C216.61 63.14 216.99 64.61 216.12 65.46L210.25 71.18C209.38 72.03 207.92 71.62 207.62 70.45L205.59 62.5Z" fill="url(#paint_linear_32_4639_0)" fill-opacity="1.000000" fill-rule="nonzero"/>
		<path id="Vector" d="M179.31 117.49L162.2 120.81C157.33 121.76 154.15 126.47 155.1 131.34C156.04 136.21 160.76 139.39 165.63 138.44L182.74 135.12C187.61 134.17 190.79 129.46 189.84 124.59C188.9 119.72 184.18 116.54 179.31 117.49Z" fill="url(#paint_linear_32_4640_0)" fill-opacity="1.000000" fill-rule="nonzero"/>
		<path id="Vector" d="M186.04 126.27C186.13 124.05 184.4 122.18 182.18 122.1C179.97 122.01 178.1 123.74 178.01 125.95C177.93 128.17 179.65 130.04 181.87 130.13C184.09 130.21 185.95 128.48 186.04 126.27Z" fill="#EBEBEB" fill-opacity="1.000000" fill-rule="nonzero"/>
		<path id="Vector" d="M182.44 128.27C183.63 128.04 184.41 126.88 184.18 125.69C183.95 124.5 182.8 123.72 181.6 123.95C180.41 124.19 179.63 125.34 179.87 126.53C180.1 127.72 181.25 128.5 182.44 128.27Z" fill="#DBDBDB" fill-opacity="1.000000" fill-rule="nonzero"/>
		<path id="Vector" d="M152.18 90.44L64.8 107.43C59.89 108.38 56.68 113.13 57.63 118.04L69.44 178.78C70.39 183.69 75.15 186.9 80.06 185.94L167.44 168.96C172.35 168.01 175.56 163.25 174.61 158.34L162.8 97.6C161.85 92.69 157.09 89.48 152.18 90.44Z" fill="url(#paint_linear_32_4643_0)" fill-opacity="1.000000" fill-rule="nonzero"/>
		<path id="Vector" d="M150.58 62.82L168.43 108.96C169.43 111.54 168.15 114.44 165.57 115.43L92.4 143.74C89.82 144.74 86.92 143.46 85.92 140.88L68.08 94.74C67.15 92.34 68.34 89.64 70.74 88.72L144.56 60.16C146.96 59.24 149.65 60.42 150.58 62.83L150.58 62.82Z" fill="url(#paint_linear_32_4644_0)" fill-opacity="1.000000" fill-rule="nonzero"/>
		<path id="Vector" d="M154.02 107.06C154.93 109.43 153.76 112.1 151.39 113.01C149.01 113.93 146.35 112.75 145.43 110.38C144.52 108.01 145.69 105.34 148.06 104.42C150.44 103.51 153.1 104.68 154.02 107.06Z" fill="url(#paint_linear_32_4645_0)" fill-opacity="1.000000" fill-rule="nonzero"/>
		<path id="Vector" d="M159.31 105.01C160.22 107.38 159.04 110.05 156.67 110.96C154.3 111.88 151.63 110.7 150.72 108.33C149.8 105.96 150.98 103.29 153.35 102.37C155.72 101.46 158.39 102.64 159.31 105.01Z" fill="url(#paint_linear_32_4646_0)" fill-opacity="1.000000" fill-rule="nonzero"/>
		<path id="Vector" d="M90.13 90.32L78.14 94.96C77.17 95.33 76.69 96.42 77.07 97.39L79.86 104.59C80.23 105.56 81.32 106.04 82.28 105.67L94.27 101.03C95.24 100.65 95.72 99.57 95.34 98.6L92.56 91.4C92.18 90.43 91.1 89.95 90.13 90.32Z" fill="url(#paint_linear_32_4647_0)" fill-opacity="1.000000" fill-rule="nonzero"/>
		<path id="Vector" d="M144.7 75.96L137.69 78.67C136.06 79.29 134.24 78.49 133.62 76.87C132.99 75.25 133.8 73.42 135.42 72.8L142.43 70.09C144.05 69.46 145.87 70.27 146.5 71.89C147.12 73.51 146.32 75.33 144.7 75.96Z" fill="#FFFFFF" fill-opacity="1.000000" fill-rule="nonzero"/>
		<path id="Vector" d="M83.74 116.31L83.25 116.93C83.25 116.93 83.21 116.98 83.18 116.99C83.12 117.01 83.06 117 83.01 116.96C82.94 116.9 82.93 116.8 82.99 116.73L83.66 115.87C83.71 115.8 83.83 115.79 83.89 115.84C83.93 115.87 83.95 115.91 83.96 115.95L85.55 120.08C85.59 120.16 85.55 120.26 85.46 120.29C85.38 120.32 85.28 120.28 85.25 120.19L83.75 116.31L83.74 116.31Z" fill="#F8F8F8" fill-opacity="1.000000" fill-rule="nonzero"/>
		<path id="Vector" d="M86.6 119.53L87.97 116.82C88.13 116.5 88.14 116.14 88.02 115.81C87.91 115.54 87.7 115.3 87.42 115.16C87.1 115 86.73 114.99 86.42 115.11C86.14 115.22 85.9 115.42 85.75 115.71L85.61 115.99C85.57 116.08 85.46 116.11 85.39 116.07C85.3 116.03 85.27 115.93 85.31 115.85L85.45 115.57C85.64 115.21 85.95 114.94 86.3 114.8C86.69 114.65 87.15 114.65 87.57 114.87C87.94 115.05 88.2 115.35 88.33 115.7C88.48 116.1 88.48 116.56 88.27 116.98L87.1 119.3L89.23 118.48C89.31 118.44 89.41 118.48 89.44 118.57C89.47 118.66 89.43 118.76 89.35 118.79L86.84 119.76L86.82 119.77C86.77 119.79 86.72 119.79 86.68 119.77C86.6 119.72 86.56 119.62 86.6 119.54L86.6 119.53Z" fill="#F8F8F8" fill-opacity="1.000000" fill-rule="nonzero"/>
		<path id="Vector" d="M91.59 113.08L90.89 114.72C91.19 114.67 91.52 114.7 91.82 114.84C92.23 115.02 92.53 115.35 92.68 115.74C92.83 116.14 92.83 116.58 92.65 117C92.46 117.41 92.13 117.71 91.74 117.86C91.36 118.01 90.91 118.02 90.5 117.83C90.41 117.79 90.37 117.7 90.41 117.6C90.44 117.52 90.54 117.48 90.64 117.52C90.96 117.66 91.31 117.66 91.62 117.54C91.93 117.42 92.19 117.18 92.34 116.86C92.49 116.53 92.48 116.18 92.36 115.87C92.24 115.56 92.01 115.3 91.68 115.16C91.36 115.01 91.01 115.02 90.7 115.13C90.65 115.15 90.59 115.15 90.54 115.12L90.54 115.13C90.45 115.09 90.41 114.98 90.45 114.9L91.12 113.32L89.4 113.98C89.31 114.02 89.21 113.97 89.18 113.89C89.14 113.79 89.18 113.7 89.27 113.66L91.37 112.85C91.46 112.82 91.56 112.86 91.6 112.95C91.61 112.97 91.61 113 91.6 113.03C91.6 113.05 91.6 113.07 91.59 113.09L91.59 113.08Z" fill="#F8F8F8" fill-opacity="1.000000" fill-rule="nonzero"/>
		<path id="Vector" d="M96.63 114.91L94.2 115.85L94.18 115.86C94.14 115.87 94.1 115.88 94.07 115.86C93.98 115.84 93.93 115.74 93.96 115.65L95.31 111.41L95.32 111.4C95.35 111.31 95.43 111.26 95.53 111.29C95.56 111.31 95.58 111.33 95.61 111.35C95.61 111.36 95.62 111.37 95.62 111.37L95.63 111.39L96.82 114.47L97.12 114.36C97.21 114.32 97.31 114.37 97.35 114.45C97.38 114.53 97.33 114.63 97.25 114.66L96.95 114.78L97.24 115.55C97.27 115.64 97.23 115.73 97.14 115.77C97.06 115.8 96.96 115.76 96.93 115.67L96.63 114.9L96.63 114.91ZM96.51 114.6L95.49 111.97L94.39 115.42L96.51 114.6L96.51 114.6Z" fill="#F8F8F8" fill-opacity="1.000000" fill-rule="nonzero"/>
		<path id="Vector" d="M102.44 113.21C102.35 113.17 102.31 113.07 102.36 112.98C102.4 112.9 102.5 112.85 102.59 112.9C102.91 113.03 103.26 113.03 103.57 112.92C103.88 112.8 104.14 112.56 104.28 112.24C104.43 111.91 104.43 111.56 104.31 111.25C104.19 110.94 103.95 110.67 103.63 110.53C103.31 110.39 102.95 110.39 102.64 110.51C102.33 110.63 102.07 110.86 101.93 111.19C101.89 111.28 101.78 111.32 101.7 111.28C101.67 111.27 101.65 111.26 101.64 111.24L101.64 111.23C101.64 111.23 101.63 111.23 101.62 111.22C101.61 111.21 101.6 111.19 101.6 111.17C101.59 111.16 101.59 111.15 101.59 111.13L101.1 109.24C101.08 109.19 101.09 109.14 101.12 109.1C101.14 109.06 101.17 109.04 101.21 109.02L103.31 108.22C103.39 108.18 103.49 108.22 103.53 108.31C103.56 108.41 103.52 108.5 103.43 108.53L101.47 109.28L101.83 110.69C102 110.46 102.24 110.29 102.51 110.19C102.9 110.04 103.34 110.03 103.76 110.22C104.18 110.4 104.46 110.72 104.62 111.12C104.76 111.51 104.78 111.96 104.59 112.38C104.41 112.78 104.07 113.09 103.68 113.24C103.29 113.39 102.84 113.39 102.43 113.21L102.44 113.21Z" fill="#F8F8F8" fill-opacity="1.000000" fill-rule="nonzero"/>
		<path id="Vector" d="M105.54 108.49C105.64 107.82 106 107.22 106.73 106.9C106.81 106.86 106.91 106.91 106.95 106.99C106.99 107.08 106.94 107.18 106.86 107.21C106.24 107.48 105.97 107.96 105.87 108.53C105.81 108.85 105.83 109.21 105.89 109.55C106.05 109.14 106.37 108.79 106.81 108.62C107.64 108.3 108.56 108.71 108.87 109.53C109.19 110.35 108.78 111.27 107.96 111.59C107.15 111.89 106.26 111.51 105.92 110.73C105.87 110.64 105.83 110.54 105.79 110.43C105.57 109.84 105.44 109.14 105.54 108.48L105.54 108.49ZM106.22 110.58C106.24 110.61 106.25 110.64 106.27 110.66C106.28 110.68 106.28 110.69 106.28 110.71C106.58 111.25 107.24 111.5 107.83 111.28C108.48 111.02 108.81 110.29 108.56 109.65C108.31 109.01 107.58 108.69 106.93 108.94C106.28 109.18 105.96 109.92 106.21 110.56L106.22 110.58L106.22 110.58Z" fill="#F8F8F8" fill-opacity="1.000000" fill-rule="nonzero"/>
		<path id="Vector" d="M111 110.16L111.13 105.58L108.96 106.41C108.88 106.45 108.78 106.41 108.75 106.33C108.72 106.24 108.76 106.14 108.84 106.11L111.22 105.2C111.25 105.18 111.28 105.16 111.32 105.16C111.36 105.17 111.41 105.19 111.44 105.23C111.45 105.25 111.46 105.26 111.47 105.27C111.48 105.31 111.48 105.33 111.47 105.36L111.33 110.17C111.33 110.24 111.29 110.3 111.23 110.32C111.2 110.33 111.19 110.34 111.16 110.33C111.07 110.33 111 110.25 110.99 110.16L111 110.16Z" fill="#F8F8F8" fill-opacity="1.000000" fill-rule="nonzero"/>
		<path id="Vector" d="M113.78 104.17C114.29 103.97 114.88 104.23 115.07 104.74C115.19 105.05 115.14 105.38 114.98 105.65C115.6 105.66 116.18 106.04 116.41 106.64C116.72 107.45 116.32 108.35 115.51 108.67C114.71 108.98 113.81 108.58 113.49 107.77C113.26 107.17 113.43 106.5 113.87 106.08C113.58 105.99 113.32 105.78 113.2 105.47C113.01 104.95 113.25 104.37 113.78 104.18L113.78 104.17ZM115.4 108.35C116.04 108.11 116.35 107.4 116.1 106.76C115.86 106.13 115.15 105.81 114.51 106.06C113.88 106.3 113.56 107.02 113.81 107.65C114.05 108.28 114.76 108.6 115.4 108.35ZM114.38 105.74C114.73 105.6 114.9 105.2 114.77 104.86C114.64 104.51 114.25 104.34 113.9 104.48C113.55 104.61 113.39 105 113.52 105.34C113.65 105.69 114.04 105.86 114.39 105.73L114.38 105.74Z" fill="#F8F8F8" fill-opacity="1.000000" fill-rule="nonzero"/>
		<path id="Vector" d="M121.76 101.08C122.53 100.78 123.38 101.11 123.74 101.82C123.76 101.83 123.76 101.84 123.77 101.85C123.82 101.96 123.88 102.09 123.93 102.23C124.16 102.82 124.29 103.53 124.19 104.18C124.09 104.84 123.72 105.45 123 105.77L122.99 105.77C122.9 105.81 122.8 105.77 122.77 105.69C122.73 105.6 122.77 105.5 122.86 105.46C123.47 105.19 123.76 104.71 123.85 104.14C123.9 103.81 123.89 103.46 123.83 103.12C123.67 103.53 123.35 103.87 122.9 104.04C122.08 104.36 121.16 103.96 120.84 103.13C120.53 102.32 120.93 101.4 121.75 101.09L121.76 101.08ZM123.51 102.1C123.26 101.46 122.54 101.14 121.88 101.39C121.24 101.64 120.92 102.37 121.16 103.01C121.41 103.66 122.14 103.97 122.78 103.72C123.43 103.47 123.76 102.76 123.5 102.1L123.51 102.1Z" fill="#F8F8F8" fill-opacity="1.000000" fill-rule="nonzero"/>
		<path id="Vector" d="M125.26 102.31C125.03 101.71 124.97 101.1 125.08 100.57C125.21 100.07 125.49 99.64 125.95 99.47C126.4 99.29 126.9 99.41 127.33 99.71C127.76 100.02 128.14 100.51 128.38 101.11C128.61 101.71 128.66 102.33 128.54 102.84C128.42 103.35 128.14 103.78 127.68 103.96C127.23 104.13 126.73 104.01 126.3 103.71C125.87 103.41 125.49 102.91 125.26 102.31L125.26 102.31ZM125.58 102.19C125.79 102.74 126.13 103.18 126.5 103.44C126.86 103.69 127.24 103.77 127.57 103.65C127.89 103.52 128.11 103.21 128.22 102.77C128.31 102.34 128.28 101.78 128.07 101.23C127.85 100.68 127.5 100.25 127.14 99.99C126.77 99.73 126.39 99.66 126.07 99.78C125.75 99.91 125.52 100.21 125.42 100.65C125.33 101.09 125.37 101.64 125.58 102.2L125.58 102.19Z" fill="#F8F8F8" fill-opacity="1.000000" fill-rule="nonzero"/>
		<path id="Vector" d="M129.76 98.51L129.27 99.13C129.27 99.13 129.23 99.17 129.2 99.19C129.14 99.21 129.08 99.19 129.04 99.16C128.96 99.1 128.95 99 129.01 98.93L129.68 98.07C129.73 98 129.85 97.99 129.91 98.04C129.95 98.07 129.97 98.11 129.98 98.15L131.58 102.27C131.61 102.36 131.57 102.45 131.48 102.49C131.4 102.52 131.3 102.48 131.27 102.39L129.77 98.51L129.76 98.51Z" fill="#F8F8F8" fill-opacity="1.000000" fill-rule="nonzero"/>
		<path id="Vector" d="M132.62 101.73L133.99 99.02C134.15 98.69 134.16 98.33 134.04 98.01C133.93 97.73 133.72 97.5 133.44 97.35C133.12 97.19 132.75 97.18 132.44 97.31C132.16 97.42 131.92 97.62 131.77 97.91L131.63 98.19C131.59 98.27 131.49 98.31 131.41 98.27C131.32 98.23 131.29 98.12 131.33 98.05L131.47 97.76C131.66 97.4 131.97 97.13 132.32 96.99C132.71 96.84 133.17 96.84 133.59 97.06C133.96 97.24 134.22 97.54 134.35 97.89C134.5 98.29 134.5 98.75 134.29 99.17L133.12 101.49L135.25 100.67C135.33 100.63 135.43 100.68 135.46 100.77C135.49 100.85 135.45 100.95 135.37 100.98L132.86 101.95L132.84 101.96C132.79 101.98 132.74 101.98 132.7 101.96C132.62 101.91 132.58 101.81 132.62 101.73L132.62 101.73Z" fill="#F8F8F8" fill-opacity="1.000000" fill-rule="nonzero"/>
		<path id="Vector" d="M141.46 93.79L140.76 95.43C141.06 95.38 141.39 95.41 141.68 95.54C142.1 95.73 142.39 96.06 142.55 96.45C142.7 96.84 142.7 97.29 142.51 97.7C142.33 98.11 142 98.42 141.61 98.57C141.23 98.72 140.78 98.73 140.36 98.54C140.28 98.5 140.24 98.41 140.28 98.31C140.31 98.23 140.41 98.18 140.5 98.23C140.83 98.36 141.18 98.36 141.49 98.25C141.8 98.13 142.06 97.89 142.21 97.57C142.35 97.24 142.35 96.89 142.23 96.58C142.11 96.27 141.88 96 141.55 95.87C141.23 95.72 140.87 95.73 140.56 95.84C140.52 95.86 140.46 95.86 140.41 95.83L140.4 95.83C140.31 95.8 140.27 95.69 140.32 95.6L140.99 94.03L139.26 94.69C139.17 94.73 139.08 94.68 139.04 94.59C139.01 94.5 139.05 94.41 139.14 94.37L141.24 93.56C141.33 93.52 141.43 93.57 141.46 93.66C141.47 93.68 141.47 93.71 141.47 93.74C141.47 93.76 141.46 93.78 141.46 93.8L141.46 93.79Z" fill="#F8F8F8" fill-opacity="1.000000" fill-rule="nonzero"/>
		<path id="Vector" d="M146.5 95.62L144.06 96.55L144.06 96.56L144.04 96.56C144.01 96.58 143.97 96.59 143.93 96.57C143.84 96.54 143.8 96.44 143.83 96.36L145.18 92.12L145.18 92.1C145.22 92.01 145.3 91.97 145.39 92C145.43 92.01 145.45 92.04 145.47 92.06C145.48 92.07 145.48 92.08 145.49 92.08L145.5 92.1L146.69 95.18L146.99 95.06C147.08 95.03 147.18 95.07 147.21 95.16C147.24 95.24 147.2 95.34 147.11 95.37L146.81 95.49L147.11 96.26C147.14 96.34 147.1 96.44 147.01 96.47C146.93 96.5 146.83 96.46 146.8 96.38L146.5 95.61L146.5 95.62ZM146.38 95.31L145.36 92.68L144.25 96.13L146.38 95.32L146.38 95.31Z" fill="#F8F8F8" fill-opacity="1.000000" fill-rule="nonzero"/>
		<path id="Vector" d="M148.47 95.4C148.37 95.37 148.33 95.26 148.38 95.18C148.42 95.09 148.52 95.05 148.61 95.09C148.93 95.23 149.28 95.23 149.59 95.11C149.9 94.99 150.16 94.76 150.3 94.43C150.45 94.1 150.45 93.75 150.33 93.44C150.21 93.13 149.97 92.87 149.65 92.72C149.32 92.58 148.97 92.58 148.66 92.7C148.35 92.83 148.09 93.06 147.95 93.39C147.91 93.47 147.8 93.52 147.72 93.47C147.69 93.47 147.67 93.45 147.66 93.44L147.66 93.43C147.66 93.43 147.65 93.42 147.64 93.41C147.63 93.4 147.62 93.38 147.62 93.37C147.61 93.36 147.61 93.34 147.61 93.33L147.12 91.43C147.1 91.38 147.11 91.33 147.14 91.29C147.16 91.26 147.19 91.23 147.23 91.22L149.32 90.41C149.42 90.37 149.51 90.42 149.55 90.5C149.58 90.6 149.54 90.69 149.45 90.73L147.49 91.48L147.85 92.88C148.03 92.66 148.26 92.49 148.53 92.38C148.92 92.23 149.36 92.22 149.78 92.41C150.2 92.59 150.48 92.92 150.64 93.32C150.78 93.7 150.8 94.16 150.61 94.57C150.43 94.98 150.09 95.28 149.7 95.43C149.31 95.58 148.86 95.59 148.45 95.41L148.47 95.4Z" fill="#F8F8F8" fill-opacity="1.000000" fill-rule="nonzero"/>
		<path id="Vector" d="M151.56 90.68C151.66 90.01 152.02 89.41 152.75 89.1C152.83 89.06 152.93 89.1 152.97 89.18C153.01 89.27 152.96 89.37 152.88 89.41C152.26 89.68 151.99 90.15 151.89 90.73C151.83 91.05 151.85 91.4 151.92 91.75C152.07 91.34 152.39 90.98 152.83 90.82C153.66 90.5 154.58 90.9 154.89 91.72C155.21 92.54 154.8 93.46 153.98 93.78C153.17 94.09 152.27 93.71 151.94 92.92C151.89 92.83 151.85 92.74 151.81 92.63C151.59 92.03 151.46 91.33 151.56 90.68L151.56 90.68ZM152.24 92.78C152.26 92.81 152.27 92.83 152.29 92.85C152.3 92.88 152.3 92.89 152.3 92.9C152.6 93.44 153.26 93.7 153.85 93.47C154.5 93.22 154.83 92.49 154.58 91.85C154.33 91.2 153.6 90.88 152.95 91.13C152.31 91.38 151.98 92.11 152.23 92.75L152.24 92.78L152.24 92.78Z" fill="#F8F8F8" fill-opacity="1.000000" fill-rule="nonzero"/>
		<path id="Vector" d="M128.03 112.68L88.85 127.84L89.59 129.76L128.78 114.6L128.03 112.68Z" fill="url(#paint_linear_32_4665_0)" fill-opacity="1.000000" fill-rule="nonzero"/>
		<path id="Vector" d="M118.24 121.39L90.5 132.12L91.25 134.04L118.99 123.31L118.24 121.39Z" fill="url(#paint_linear_32_4666_0)" fill-opacity="1.000000" fill-rule="nonzero"/>
		<path id="Vector" d="M128.82 75.35L111.21 82.16C110.68 82.37 110.41 82.96 110.62 83.5C110.82 84.03 111.42 84.29 111.95 84.08L129.57 77.27C130.1 77.07 130.36 76.47 130.16 75.94C129.95 75.41 129.35 75.14 128.82 75.35Z" fill="#3B3B3B" fill-opacity="1.000000" fill-rule="nonzero"/>
		<path id="Vector" d="M161.1 124.53L69.3 142.38L76.44 179.13L168.25 161.28L161.1 124.53Z" fill="url(#paint_linear_32_4668_0)" fill-opacity="1.000000" fill-rule="nonzero"/>
		<g opacity="0.200000">
			<path id="Vector" d="M161.1 124.53L69.3 142.38L76.44 179.13L168.25 161.28L161.1 124.53Z" fill="#000000" fill-opacity="1.000000" fill-rule="nonzero"/>
		</g>
		<path id="Vector" d="M169.58 183.28L79.13 187.86C74.63 188.09 70.64 184.97 69.78 180.54L56.76 113.56C56.45 111.98 58.08 110.72 59.53 111.42C61.22 112.22 63.09 112.56 64.96 112.41L146.21 105.45C150.82 105.06 154.99 108.21 155.88 112.75L169.58 183.28C169.58 183.28 169.58 183.28 169.58 183.28Z" fill="url(#paint_linear_32_4670_0)" fill-opacity="1.000000" fill-rule="nonzero"/>
		<path id="Vector" d="M150.37 150.29C152.47 149.88 153.8 147.61 153.34 145.21C152.87 142.81 150.79 141.2 148.68 141.61C146.58 142.02 145.25 144.29 145.72 146.69C146.18 149.09 148.27 150.7 150.37 150.29Z" fill="#EBEBEB" fill-opacity="1.000000" fill-rule="nonzero"/>
		<path id="Vector" d="M151.3 145.61C151.51 146.72 150.9 147.78 149.92 147.97C148.94 148.16 147.97 147.41 147.75 146.3C147.54 145.18 148.16 144.13 149.13 143.93C150.11 143.75 151.08 144.49 151.3 145.61Z" fill="#DBDBDB" fill-opacity="1.000000" fill-rule="nonzero"/>
	</g>
</svg>
