<svg width="100.000000" height="100.000000" viewBox="0 0 100 100" fill="none" xmlns="http://www.w3.org/2000/svg" xmlns:xlink="http://www.w3.org/1999/xlink">
	<desc>
			Created with Pixso.
	</desc>
	<defs/>
	<rect id="Number of additional NFTs" rx="19.500000" width="99.000000" height="99.000000" transform="translate(0.500000 0.500000)" fill="#A259FF" fill-opacity="1.000000"/>
	<path id="1025+" d="M32.33 44.48Q30.86 46.12 30.86 49.08L30.86 52.51Q30.86 55.59 32.36 57.2Q32.69 57.54 33.07 57.82Q34.45 58.8 36.53 58.8Q38.63 58.8 40.01 57.81Q40.38 57.54 40.7 57.2Q42.21 55.59 42.21 52.51L42.21 49.08Q42.21 46.13 40.74 44.49Q40.72 44.46 40.7 44.44Q40.33 44.04 39.9 43.73Q38.55 42.78 36.53 42.78Q34.53 42.78 33.18 43.72Q32.73 44.03 32.36 44.44Q32.34 44.46 32.33 44.48ZM55.51 58.5L55.51 55.72L47.6 55.72L47.6 55.46Q47.6 55 47.74 54.64Q47.88 54.27 48.25 53.97Q48.63 53.66 49.3 53.4Q49.97 53.15 51.01 52.91Q53.47 52.33 54.56 51.06Q54.8 50.78 54.98 50.48Q55.65 49.36 55.65 47.85L55.65 47.58Q55.65 47.17 55.58 46.76Q55.49 46.27 55.31 45.79Q55.18 45.47 55.01 45.18Q54.71 44.68 54.27 44.26Q53.58 43.6 52.54 43.19Q51.51 42.78 50.13 42.78Q48.83 42.78 47.79 43.21Q46.78 43.63 46.08 44.35Q46.06 44.37 46.05 44.39Q45.8 44.63 45.6 44.91Q45.2 45.45 44.94 46.1Q44.83 46.39 44.75 46.68Q44.56 47.39 44.56 48.16L44.56 49.39L47.46 49.39L47.46 48.42Q47.46 47.25 48.03 46.52Q48.12 46.41 48.21 46.32Q48.39 46.14 48.6 46Q49.26 45.56 50.21 45.56Q51.35 45.56 52.01 46.12Q52.04 46.15 52.07 46.18Q52.39 46.47 52.56 46.83Q52.74 47.23 52.74 47.72Q52.74 48.2 52.62 48.59Q52.5 48.97 52.17 49.29Q51.84 49.61 51.28 49.86Q50.72 50.11 49.84 50.31Q48.66 50.57 47.7 50.96Q46.76 51.35 46.09 51.94Q45.9 52.11 45.73 52.3Q45.31 52.78 45.05 53.39Q44.69 54.25 44.69 55.46L44.69 58.5L55.51 58.5ZM22.14 44.55L22.14 55.72L17.79 55.72L17.79 58.5L28.88 58.5L28.88 55.72L25.05 55.72L25.05 43.1L19.37 43.1L17.52 49.56L17.52 49.83L20.29 49.83L21.75 44.55L22.14 44.55ZM58.18 43.1L58.18 51.63L62.93 51.63Q62.94 51.6 62.95 51.57Q63.07 51.23 63.44 50.98Q63.83 50.71 64.47 50.71Q65.13 50.71 65.61 51Q65.84 51.13 66.03 51.34Q66.63 51.96 66.63 53.22Q66.63 54.24 66.14 54.92Q66 55.12 65.82 55.28Q65.74 55.36 65.66 55.42Q64.88 56.03 63.63 56.03Q62.38 56.03 61.67 55.4Q61.6 55.34 61.53 55.27Q61.32 55.05 61.17 54.79Q60.82 54.17 60.82 53.35L60.82 53.08L57.91 53.08L57.91 53.61Q57.91 54.74 58.3 55.69Q58.54 56.27 58.9 56.76Q59.14 57.07 59.42 57.34Q60.16 58.03 61.23 58.42Q62.31 58.8 63.73 58.8Q65.13 58.8 66.21 58.34Q67.29 57.88 68.02 57.1Q68.31 56.8 68.54 56.46Q68.91 55.92 69.15 55.28Q69.18 55.18 69.22 55.08Q69.53 54.13 69.53 53.08L69.53 52.95Q69.53 51.85 69.21 50.93Q68.89 50 68.3 49.34Q68.17 49.2 68.04 49.08Q67.52 48.6 66.85 48.31Q65.99 47.94 64.91 47.94Q63.48 47.94 62.63 48.56Q61.88 49.12 61.56 49.86Q61.51 49.95 61.48 50.05L61.08 50.05L61.08 45.87L68.47 45.87L68.47 43.1L58.18 43.1ZM37.85 55.91Q37.32 56.16 36.53 56.16Q35.74 56.16 35.21 55.91Q34.89 55.76 34.64 55.53Q34.48 55.38 34.35 55.2Q34.02 54.74 33.89 54.1Q33.76 53.46 33.76 52.69L33.76 48.9Q33.76 48.18 33.91 47.54Q34.07 46.9 34.4 46.44Q34.5 46.29 34.62 46.17Q34.89 45.89 35.26 45.7Q35.78 45.43 36.53 45.43Q37.28 45.43 37.81 45.7Q38.18 45.9 38.45 46.18Q38.57 46.3 38.66 46.44Q38.99 46.9 39.14 47.54Q39.3 48.18 39.3 48.9L39.3 52.69Q39.3 53.46 39.17 54.1Q39.04 54.74 38.7 55.2Q38.58 55.37 38.43 55.52Q38.18 55.75 37.85 55.91ZM75.67 49.54L72.32 49.54L72.32 52.05L75.67 52.05L75.67 55.39L78.18 55.39L78.18 52.05L81.52 52.05L81.52 49.54L78.18 49.54L78.18 46.2L75.67 46.2L75.67 49.54ZM34.79 50.18Q34.68 50.47 34.68 50.79Q34.68 51.13 34.79 51.43Q34.93 51.79 35.23 52.09Q35.55 52.41 35.93 52.54Q36.21 52.64 36.53 52.64Q36.87 52.64 37.16 52.53Q37.53 52.39 37.83 52.09Q38.13 51.79 38.27 51.43Q38.38 51.13 38.38 50.79Q38.38 50.47 38.27 50.18Q38.14 49.81 37.83 49.5Q37.52 49.19 37.15 49.05Q36.86 48.95 36.53 48.95Q36.22 48.95 35.94 49.04Q35.55 49.18 35.23 49.5Q34.92 49.81 34.79 50.18Z" fill="#FFFFFF" fill-opacity="1.000000" fill-rule="evenodd"/>
</svg>
