<svg width="30.000000" height="30.000000" viewBox="0 0 30 30" fill="none" xmlns="http://www.w3.org/2000/svg" xmlns:xlink="http://www.w3.org/1999/xlink">
	<desc>
			Created with Pixso.
	</desc>
	<defs/>
	<rect id="Ranking Number" rx="14.500000" width="29.000000" height="29.000000" transform="translate(0.500000 0.500000)" fill="#2B2B2B" fill-opacity="1.000000"/>
	<path id="1" d="M13.89 13.57L13.89 15.43L15.4 15.43Q16.1 15.43 16.63 15.73Q16.82 15.84 16.99 16Q17.16 16.15 17.29 16.33Q17.63 16.83 17.63 17.57L17.63 17.67Q17.63 17.99 17.55 18.28Q17.51 18.43 17.44 18.57Q17.34 18.81 17.18 19.01Q17.06 19.17 16.92 19.31Q16.89 19.33 16.87 19.35Q16.55 19.63 16.12 19.8Q15.67 19.97 15.14 19.97Q14.56 19.97 14.07 19.8Q13.58 19.62 13.23 19.31Q13.22 19.3 13.21 19.29Q13.14 19.23 13.08 19.16Q12.81 18.87 12.65 18.49Q12.45 18.02 12.45 17.41L12.45 16.64L11.11 16.64L11.11 17.51Q11.11 18.13 11.29 18.7Q11.33 18.83 11.38 18.96Q11.54 19.33 11.77 19.65Q11.96 19.91 12.19 20.14Q12.72 20.64 13.47 20.93Q14.23 21.22 15.17 21.22Q15.99 21.22 16.68 20.96Q17.38 20.69 17.89 20.24Q18.14 20.01 18.34 19.75Q18.54 19.47 18.69 19.16Q18.77 18.99 18.82 18.81Q18.98 18.34 18.98 17.81L18.98 17.52Q18.98 16.76 18.7 16.17Q18.45 15.65 18.06 15.28Q18.01 15.23 17.96 15.19Q17.83 15.08 17.69 14.98Q17.34 14.73 16.91 14.58Q16.7 14.5 16.48 14.46Q16.09 14.37 15.68 14.37L15.04 14.37L15.04 14.18L18.69 11.84L18.69 9.8L11.2 9.8L11.2 11.04L17.54 11.04L17.54 11.23L13.89 13.57Z" fill="#858584" fill-opacity="1.000000" fill-rule="evenodd"/>
</svg>
