<svg width="30.000000" height="30.000000" viewBox="0 0 30 30" fill="none" xmlns="http://www.w3.org/2000/svg" xmlns:xlink="http://www.w3.org/1999/xlink">
	<desc>
			Created with Pixso.
	</desc>
	<defs/>
	<rect id="Ranking Number" rx="14.500000" width="29.000000" height="29.000000" transform="translate(0.500000 0.500000)" fill="#2B2B2B" fill-opacity="1.000000"/>
	<path id="1" d="M12.99 19.05Q12.64 18.5 12.64 17.73L11.3 17.73Q11.3 18.53 11.57 19.18Q11.77 19.65 12.09 20.03Q12.21 20.16 12.34 20.28Q12.34 20.29 12.34 20.29Q12.84 20.74 13.52 20.98Q14.21 21.22 15.03 21.22Q15.84 21.22 16.54 20.95Q17.1 20.73 17.54 20.37Q17.66 20.28 17.77 20.17Q17.83 20.11 17.9 20.04Q18.33 19.58 18.59 18.96Q18.88 18.24 18.88 17.35L18.88 13.32Q18.88 12.5 18.6 11.81Q18.39 11.31 18.06 10.92Q17.93 10.76 17.79 10.63Q17.76 10.6 17.72 10.57Q17.22 10.11 16.55 9.85Q15.84 9.57 14.99 9.57Q14.15 9.57 13.43 9.85Q12.83 10.09 12.36 10.49Q12.28 10.56 12.2 10.64Q12.07 10.77 11.95 10.91Q11.61 11.32 11.4 11.83Q11.11 12.53 11.11 13.36L11.11 13.55Q11.11 14.42 11.37 15.09Q11.61 15.69 12.02 16.14Q12.06 16.19 12.11 16.24Q12.24 16.36 12.38 16.47Q12.77 16.77 13.25 16.95Q13.91 17.19 14.69 17.19Q15.58 17.19 16.25 16.81Q16.27 16.8 16.29 16.79Q16.64 16.58 16.91 16.3Q17.17 16.02 17.35 15.68L17.54 15.68L17.54 17.35Q17.54 17.96 17.35 18.44Q17.17 18.92 16.86 19.27Q16.85 19.28 16.84 19.29Q16.71 19.44 16.56 19.55Q16.33 19.73 16.06 19.84Q15.6 20.03 15.06 20.03Q14.06 20.03 13.45 19.55Q13.36 19.48 13.28 19.41Q13.12 19.24 12.99 19.05ZM13.95 10.95Q14.42 10.76 14.99 10.76Q15.57 10.76 16.04 10.95Q16.44 11.11 16.74 11.38Q16.8 11.43 16.85 11.48Q16.96 11.6 17.06 11.73Q17.25 11.99 17.36 12.29Q17.37 12.32 17.38 12.34Q17.54 12.78 17.54 13.28L17.54 13.59Q17.54 13.98 17.43 14.33Q17.39 14.44 17.35 14.55Q17.21 14.85 17.01 15.1Q16.92 15.21 16.81 15.32Q16.79 15.34 16.76 15.36Q16.44 15.65 16 15.82Q15.54 16 14.99 16Q14.43 16 13.97 15.83Q13.58 15.68 13.29 15.43Q13.23 15.38 13.17 15.32Q13.1 15.26 13.04 15.18Q12.79 14.9 12.64 14.54Q12.45 14.08 12.45 13.52L12.45 13.33Q12.45 12.79 12.63 12.32Q12.75 11.97 12.96 11.7Q13.04 11.59 13.14 11.49Q13.22 11.41 13.3 11.34Q13.58 11.09 13.95 10.95Z" fill="#858584" fill-opacity="1.000000" fill-rule="evenodd"/>
</svg>
