<svg width="30.000000" height="30.000000" viewBox="0 0 30 30" fill="none" xmlns="http://www.w3.org/2000/svg" xmlns:xlink="http://www.w3.org/1999/xlink">
	<desc>
			Created with Pixso.
	</desc>
	<defs/>
	<rect id="Ranking Number" rx="14.500000" width="29.000000" height="29.000000" transform="translate(0.500000 0.500000)" fill="#2B2B2B" fill-opacity="1.000000"/>
	<path id="1" d="M17 10.77Q15.96 11.97 15.96 14.15L15.96 16.64Q15.96 18.88 17 20.05Q17.26 20.35 17.58 20.57Q18.51 21.22 19.89 21.22Q21.28 21.22 22.21 20.56Q22.53 20.34 22.79 20.05Q23.83 18.88 23.83 16.64L23.83 14.15Q23.83 11.97 22.79 10.77Q22.5 10.43 22.14 10.19Q21.23 9.57 19.89 9.57Q18.56 9.57 17.65 10.19Q17.29 10.43 17 10.77ZM9.51 10.39L9.51 19.75L6.34 19.75L6.34 21L14.02 21L14.02 19.75L10.85 19.75L10.85 9.8L8.24 9.8L6.15 14.5L6.15 14.6L7.48 14.6L9.32 10.39L9.51 10.39ZM21.36 19.58Q20.77 20 19.89 20Q19.01 20 18.43 19.59Q18.16 19.39 17.95 19.1Q17.3 18.19 17.3 16.55L17.3 14.24Q17.3 13.48 17.46 12.84Q17.62 12.21 17.95 11.76Q18.18 11.44 18.48 11.22Q18.61 11.12 18.75 11.05Q19.23 10.79 19.89 10.79Q20.53 10.79 21.02 11.05Q21.21 11.15 21.38 11.28Q21.64 11.48 21.83 11.76Q22.16 12.21 22.32 12.84Q22.48 13.48 22.48 14.24L22.48 16.55Q22.48 18.19 21.83 19.1Q21.63 19.39 21.36 19.58ZM18.92 15.06Q18.87 15.21 18.87 15.39Q18.87 15.58 18.93 15.75Q19 15.95 19.17 16.12Q19.34 16.29 19.55 16.36Q19.71 16.42 19.89 16.42Q20.08 16.42 20.24 16.36Q20.44 16.28 20.61 16.12Q20.78 15.95 20.86 15.75Q20.92 15.58 20.92 15.39Q20.92 15.21 20.86 15.06Q20.79 14.85 20.61 14.67Q20.44 14.51 20.24 14.43Q20.08 14.37 19.89 14.37Q19.71 14.37 19.55 14.43Q19.34 14.5 19.17 14.67Q19 14.85 18.92 15.06Z" fill="#858584" fill-opacity="1.000000" fill-rule="evenodd"/>
</svg>
