<svg width="30.000000" height="30.000000" viewBox="0 0 30 30" fill="none" xmlns="http://www.w3.org/2000/svg" xmlns:xlink="http://www.w3.org/1999/xlink">
	<desc>
			Created with Pixso.
	</desc>
	<defs/>
	<rect id="Ranking Number" rx="14.500000" width="29.000000" height="29.000000" transform="translate(0.500000 0.500000)" fill="#2B2B2B" fill-opacity="1.000000"/>
	<path id="1" d="M23.7 21L23.7 19.75L17.46 19.75L17.46 19.27Q17.46 18.53 17.81 18.04Q17.96 17.83 18.18 17.66Q18.9 17.11 20.44 16.77Q22.19 16.39 23 15.48Q23.3 15.14 23.49 14.74Q23.8 14.09 23.8 13.3L23.8 13.01Q23.8 12.81 23.77 12.61Q23.72 12.18 23.56 11.76Q23.5 11.59 23.41 11.42Q23.2 11 22.85 10.65Q22.37 10.16 21.65 9.87Q20.93 9.57 19.96 9.57Q19 9.57 18.26 9.89Q17.56 10.19 17.08 10.7Q17.05 10.73 17.03 10.76Q16.84 10.96 16.68 11.19Q16.43 11.57 16.27 12Q16.21 12.18 16.16 12.37Q16.02 12.9 16.02 13.48L16.02 14.28L17.36 14.28L17.36 13.57Q17.36 12.48 17.88 11.77Q17.96 11.67 18.04 11.57Q18.19 11.41 18.37 11.28Q18.99 10.82 19.96 10.82Q20.61 10.82 21.08 11.02Q21.55 11.22 21.86 11.55Q22.06 11.77 22.19 12.03Q22.26 12.16 22.31 12.31Q22.39 12.56 22.43 12.81Q22.45 12.98 22.45 13.16L22.45 13.25Q22.45 13.68 22.3 14.04Q22.14 14.41 21.82 14.71Q21.19 15.3 19.76 15.62Q18.92 15.81 18.24 16.08Q17.57 16.35 17.1 16.76Q16.89 16.95 16.72 17.16Q16.51 17.43 16.37 17.74Q16.12 18.31 16.12 19.07L16.12 21L23.7 21ZM9.51 10.39L9.51 19.75L6.34 19.75L6.34 21L14.02 21L14.02 19.75L10.85 19.75L10.85 9.8L8.24 9.8L6.15 14.5L6.15 14.6L7.48 14.6L9.32 10.39L9.51 10.39Z" fill="#858584" fill-opacity="1.000000" fill-rule="evenodd"/>
</svg>
