<svg width="30.000000" height="30.000000" viewBox="0 0 30 30" fill="none" xmlns="http://www.w3.org/2000/svg" xmlns:xlink="http://www.w3.org/1999/xlink">
	<desc>
			Created with Pixso.
	</desc>
	<defs/>
	<rect id="Ranking Number" rx="14.500000" width="29.000000" height="29.000000" transform="translate(0.500000 0.500000)" fill="#2B2B2B" fill-opacity="1.000000"/>
	<path id="1" d="M11.35 9.8L11.35 15.71L13.88 15.71Q13.92 15.54 14.06 15.35Q14.2 15.16 14.4 15Q14.61 14.85 14.89 14.76Q15.17 14.66 15.51 14.66Q15.95 14.66 16.34 14.81Q16.39 14.82 16.43 14.84Q16.8 15 17.06 15.26Q17.11 15.3 17.15 15.35Q17.17 15.37 17.19 15.39Q17.45 15.7 17.61 16.1Q17.78 16.53 17.78 17.03L17.78 17.12Q17.78 17.57 17.68 18Q17.65 18.1 17.62 18.2Q17.48 18.65 17.21 19.01Q17.17 19.06 17.13 19.12Q17.07 19.18 17.01 19.24Q16.72 19.55 16.31 19.74Q15.83 19.97 15.19 19.97Q14.17 19.97 13.48 19.5Q13.35 19.41 13.24 19.31Q13.16 19.23 13.08 19.15Q12.5 18.5 12.5 17.32L12.5 16.96L11.15 16.96L11.15 17.41Q11.15 18.23 11.42 18.92Q11.59 19.38 11.88 19.76Q12.02 19.96 12.2 20.13Q12.71 20.64 13.46 20.93Q14.21 21.22 15.19 21.22Q16.15 21.22 16.88 20.9Q17.57 20.6 18.05 20.1Q18.08 20.06 18.11 20.03Q18.31 19.81 18.48 19.56Q18.71 19.19 18.86 18.76Q18.89 18.69 18.92 18.61Q19.12 17.96 19.12 17.25L19.12 16.96Q19.12 16.16 18.86 15.51Q18.61 14.89 18.18 14.44Q18.16 14.42 18.13 14.39Q18.06 14.32 17.99 14.26Q17.57 13.89 17.02 13.67Q16.37 13.41 15.6 13.41Q15.08 13.41 14.64 13.55Q14.21 13.68 13.87 13.91Q13.52 14.13 13.27 14.43Q13.01 14.72 12.85 15.04L12.66 15.04L12.66 11.04L18.36 11.04L18.36 9.8L11.35 9.8Z" fill="#858584" fill-opacity="1.000000" fill-rule="evenodd"/>
</svg>
