<svg width="30.000000" height="30.000000" viewBox="0 0 30 30" fill="none" xmlns="http://www.w3.org/2000/svg" xmlns:xlink="http://www.w3.org/1999/xlink">
	<desc>
			Created with Pixso.
	</desc>
	<defs/>
	<rect id="Ranking Number" rx="14.500000" width="29.000000" height="29.000000" transform="translate(0.500000 0.500000)" fill="#2B2B2B" fill-opacity="1.000000"/>
	<path id="1" d="M17 11.75Q17.35 12.29 17.35 13.06L18.69 13.06Q18.69 12.26 18.41 11.61Q18.2 11.11 17.85 10.73Q17.75 10.61 17.63 10.51Q17.6 10.48 17.57 10.45Q17.1 10.04 16.45 9.81Q15.76 9.57 14.96 9.57Q14.17 9.57 13.49 9.83Q13.48 9.84 13.47 9.84Q13.01 10.02 12.62 10.31Q12.42 10.45 12.24 10.62Q12.19 10.67 12.14 10.72Q11.69 11.19 11.41 11.84Q11.11 12.56 11.11 13.44L11.11 17.52Q11.11 18.34 11.4 19.02Q11.62 19.52 11.97 19.92Q12.09 20.06 12.22 20.19Q12.25 20.22 12.29 20.25Q12.79 20.69 13.45 20.95Q14.16 21.22 14.99 21.22Q15.83 21.22 16.54 20.95Q17.18 20.7 17.66 20.28Q17.72 20.23 17.77 20.18Q17.9 20.06 18.01 19.93Q18.36 19.52 18.59 19Q18.88 18.31 18.88 17.48L18.88 17.28Q18.88 16.42 18.62 15.74Q18.36 15.07 17.9 14.59Q17.89 14.59 17.88 14.58Q17.75 14.44 17.59 14.32Q17.22 14.03 16.76 13.85Q16.1 13.6 15.33 13.6Q14.64 13.6 14.05 13.85Q13.89 13.92 13.74 14Q13.36 14.22 13.07 14.52Q12.82 14.78 12.64 15.11L12.45 15.11L12.45 13.44Q12.45 12.85 12.63 12.35Q12.82 11.86 13.15 11.5Q13.28 11.35 13.43 11.24Q13.66 11.06 13.93 10.95Q14.39 10.76 14.93 10.76Q15.92 10.76 16.54 11.24Q16.62 11.31 16.7 11.39Q16.87 11.56 17 11.75ZM16.04 19.85Q15.57 20.03 14.99 20.03Q14.42 20.03 13.95 19.85Q13.53 19.69 13.22 19.41Q13.18 19.37 13.14 19.33Q13.01 19.21 12.91 19.07Q12.74 18.83 12.63 18.54Q12.45 18.08 12.45 17.55L12.45 17.25Q12.45 16.8 12.6 16.41Q12.62 16.35 12.64 16.29Q12.76 16.02 12.93 15.79Q13.04 15.64 13.18 15.51Q13.27 15.42 13.37 15.33Q13.65 15.12 13.99 14.98Q13.99 14.98 13.99 14.98Q14.45 14.79 14.99 14.79Q15.54 14.79 16.01 14.97Q16.42 15.13 16.73 15.41Q16.78 15.45 16.82 15.49Q16.86 15.54 16.91 15.59Q17.18 15.89 17.35 16.29Q17.54 16.76 17.54 17.32L17.54 17.51Q17.54 18.07 17.36 18.53Q17.24 18.86 17.03 19.13Q16.95 19.23 16.85 19.33Q16.81 19.37 16.76 19.41Q16.45 19.69 16.04 19.85Z" fill="#858584" fill-opacity="1.000000" fill-rule="evenodd"/>
</svg>
