<svg width="198.000000" height="66.000000" viewBox="0 0 198 66" fill="none" xmlns="http://www.w3.org/2000/svg" xmlns:xlink="http://www.w3.org/1999/xlink">
	<desc>
			Created with Pixso.
	</desc>
	<defs/>
	<rect id="Button" rx="19.500000" width="197.000000" height="65.000000" transform="translate(0.500000 0.500000)" fill="#FFFFFF" fill-opacity="1.000000"/>
	<path id="Vector (Stroke)" d="M52.83 29.74C54.32 28.25 56.66 26.75 60 26.75C63.33 26.75 65.67 28.25 67.16 29.74C67.9 30.48 68.43 31.23 68.79 31.78C68.96 32.06 69.09 32.3 69.18 32.46C69.22 32.55 69.26 32.61 69.28 32.66C69.29 32.68 69.3 32.7 69.3 32.72L69.31 32.73L69.31 32.74L69.32 32.74L69.32 32.74C69.32 32.74 69.32 32.74 68.75 33C69.32 33.25 69.32 33.25 69.32 33.25L69.32 33.25L69.31 33.25L69.31 33.26L69.3 33.27C69.3 33.29 69.29 33.31 69.28 33.33C69.26 33.38 69.22 33.44 69.18 33.53C69.09 33.69 68.96 33.93 68.79 34.21C68.43 34.76 67.9 35.51 67.16 36.25C65.67 37.74 63.33 39.25 60 39.25C56.66 39.25 54.32 37.74 52.83 36.25C52.09 35.51 51.56 34.76 51.2 34.21C51.03 33.93 50.9 33.69 50.81 33.53C50.77 33.44 50.73 33.38 50.71 33.33C50.7 33.31 50.69 33.29 50.69 33.27L50.68 33.26L50.68 33.25L50.67 33.25L50.67 33.25C50.67 33.25 50.67 33.25 51.25 33C50.67 32.74 50.67 32.74 50.67 32.74L50.67 32.74L50.68 32.74L50.68 32.73L50.69 32.72C50.69 32.7 50.7 32.68 50.71 32.66C50.73 32.61 50.77 32.55 50.81 32.46C50.9 32.3 51.03 32.06 51.2 31.78C51.56 31.23 52.09 30.48 52.83 29.74ZM51.25 33L50.67 32.74C50.6 32.9 50.6 33.09 50.67 33.25L51.25 33ZM51.94 33C52.02 33.13 52.12 33.32 52.26 33.54C52.58 34.04 53.06 34.7 53.72 35.37C55.04 36.69 57.08 38 60 38C62.91 38 64.95 36.69 66.27 35.37C66.93 34.7 67.41 34.04 67.73 33.54C67.87 33.32 67.97 33.13 68.05 33C67.97 32.86 67.87 32.67 67.73 32.45C67.41 31.95 66.93 31.29 66.27 30.62C64.95 29.3 62.91 28 60 28C57.08 28 55.04 29.3 53.72 30.62C53.06 31.29 52.58 31.95 52.26 32.45C52.12 32.67 52.02 32.86 51.94 33ZM68.75 33L69.32 33.25C69.39 33.09 69.39 32.9 69.32 32.74L68.75 33Z" fill="#A259FF" fill-opacity="1.000000" fill-rule="evenodd"/>
	<path id="Vector (Stroke)" d="M60 30.5C58.61 30.5 57.5 31.61 57.5 33C57.5 34.38 58.61 35.5 60 35.5C61.38 35.5 62.5 34.38 62.5 33C62.5 31.61 61.38 30.5 60 30.5ZM56.25 33C56.25 30.92 57.92 29.25 60 29.25C62.07 29.25 63.75 30.92 63.75 33C63.75 35.07 62.07 36.75 60 36.75C57.92 36.75 56.25 35.07 56.25 33Z" fill="#A259FF" fill-opacity="1.000000" fill-rule="evenodd"/>
	<path id="Button" d="M91.94 30.56L89.92 30.56C89.81 29.57 88.98 28.98 87.72 28.98C86.4 28.98 85.62 29.62 85.62 30.5C85.6 31.47 86.64 31.87 87.59 32.1L88.68 32.37C90.43 32.79 92.1 33.71 92.1 35.73C92.1 37.78 90.48 39.17 87.69 39.17C84.98 39.17 83.26 37.87 83.17 35.56L85.24 35.56C85.33 36.78 86.35 37.37 87.67 37.37C89.05 37.37 89.99 36.71 89.99 35.71C89.99 34.81 89.16 34.42 87.9 34.1L86.58 33.76C84.67 33.26 83.48 32.3 83.48 30.63C83.47 28.57 85.31 27.2 87.75 27.2C90.23 27.2 91.9 28.59 91.94 30.56ZM124.38 27.36L126.48 27.36L126.48 39L124.6 39L119.12 31.07L119.02 31.07L119.02 39L116.92 39L116.92 27.36L118.8 27.36L124.28 35.29L124.38 35.29L124.38 27.36ZM130.87 39L128.77 39L128.77 27.36L136.22 27.36L136.22 29.12L130.87 29.12L130.87 32.28L135.71 32.28L135.71 34.05L130.87 34.05L130.87 39ZM141.22 29.12L137.63 29.12L137.63 27.36L146.91 27.36L146.91 29.12L143.31 29.12L143.31 39L141.22 39L141.22 29.12ZM101.55 36.66C101.18 38.17 99.78 39.17 97.75 39.17C95.12 39.17 93.51 37.42 93.51 34.68C93.51 31.99 95.14 30.16 97.64 30.16C99.79 30.16 101.63 31.5 101.63 34.56L101.63 35.19L95.55 35.19C95.57 36.69 96.45 37.56 97.78 37.56C98.67 37.56 99.35 37.18 99.63 36.44L101.55 36.66ZM111.03 36.66C110.67 38.17 109.27 39.17 107.24 39.17C104.6 39.17 103 37.42 103 34.68C103 31.99 104.63 30.16 107.13 30.16C109.27 30.16 111.11 31.5 111.11 34.56L111.11 35.19L105.04 35.19C105.05 36.69 105.93 37.56 107.26 37.56C108.15 37.56 108.83 37.18 109.11 36.44L111.03 36.66ZM97.67 31.76C96.44 31.76 95.62 32.69 95.56 33.81L99.66 33.81C99.65 32.62 98.85 31.76 97.67 31.76ZM107.15 31.76C105.93 31.76 105.1 32.69 105.04 33.81L109.14 33.81C109.13 32.62 108.34 31.76 107.15 31.76Z" fill="#2B2B2B" fill-opacity="1.000000" fill-rule="evenodd"/>
</svg>
