<svg width="320.000000" height="40.000000" viewBox="0 0 320 40" fill="none" xmlns="http://www.w3.org/2000/svg" xmlns:xlink="http://www.w3.org/1999/xlink">
	<desc>
			Created with Pixso.
	</desc>
	<defs>
		<clipPath id="clip70_5284">
			<rect id="Coinbase" rx="-0.156250" width="39.687500" height="39.687500" transform="translate(40.156250 0.156250)" fill="white" fill-opacity="0"/>
		</clipPath>
	</defs>
	<rect id="Coinbase" rx="19.500000" width="319.000000" height="39.000000" transform="translate(0.500000 0.500000)" fill="#3B3B3B" fill-opacity="1.000000"/>
	<rect id="Coinbase" rx="-0.500000" width="39.000000" height="39.000000" transform="translate(40.500000 0.500000)" fill="#FFFFFF" fill-opacity="0"/>
	<rect id="Coinbase" rx="-0.156250" width="39.687500" height="39.687500" transform="translate(40.156250 0.156250)" fill="#FFFFFF" fill-opacity="0"/>
	<g clip-path="url(#clip70_5284)">
		<path id="Vector" d="M80 20C80 31.04 71.04 40 60 40C48.95 40 40 31.04 40 20C40 8.95 48.95 0 60 0C71.04 0 80 8.95 80 20Z" fill="#0052FF" fill-opacity="1.000000" fill-rule="evenodd"/>
		<path id="Vector" d="M45.93 20C45.93 27.76 52.23 34.06 60 34.06C67.76 34.06 74.06 27.76 74.06 20C74.06 12.23 67.76 5.93 60 5.93C52.23 5.93 45.93 12.23 45.93 20ZM56.4 15.46C55.88 15.46 55.46 15.88 55.46 16.4L55.46 23.59C55.46 24.11 55.88 24.53 56.4 24.53L63.59 24.53C64.11 24.53 64.53 24.11 64.53 23.59L64.53 16.4C64.53 15.88 64.11 15.46 63.59 15.46L56.4 15.46Z" fill="#FFFFFF" fill-opacity="1.000000" fill-rule="evenodd"/>
	</g>
	<path id="Metamask" d="M134.24 12.26C134.24 13.11 133.5 13.79 132.6 13.79C131.7 13.79 130.97 13.11 130.97 12.26C130.97 11.41 131.7 10.72 132.6 10.72C133.5 10.72 134.24 11.41 134.24 12.26ZM108.5 11.27C112.04 11.27 114.78 13.34 115.27 16.89L112.35 16.89C112.01 14.98 110.49 13.88 108.54 13.88C105.93 13.88 104.08 15.89 104.08 19.5C104.08 23.17 105.94 25.11 108.54 25.11C110.45 25.11 111.98 24.06 112.35 22.18L115.27 22.2C114.83 25.26 112.3 27.72 108.5 27.72C104.28 27.72 101.17 24.66 101.17 19.5C101.17 14.33 104.31 11.27 108.5 11.27ZM153.24 27.5L150.46 27.5L150.46 11.49L153.28 11.49L153.28 17.48L153.4 17.48C153.83 16.61 154.72 15.34 156.83 15.34C159.6 15.34 161.78 17.51 161.78 21.51C161.78 25.46 159.67 27.7 156.84 27.7C154.78 27.7 153.85 26.48 153.4 25.6L153.24 25.6L153.24 27.5ZM128.79 21.54C128.79 25.26 126.56 27.73 123.04 27.73C119.53 27.73 117.29 25.26 117.29 21.54C117.29 17.82 119.53 15.34 123.04 15.34C126.56 15.34 128.79 17.82 128.79 21.54ZM142.28 17.73C140.79 17.73 139.75 18.73 139.75 20.46L139.75 27.5L136.92 27.5L136.92 15.5L139.62 15.5L139.62 17.53L139.76 17.53C140.31 16.2 141.54 15.34 143.34 15.34C145.81 15.34 147.46 16.98 147.45 19.85L147.45 27.5L144.62 27.5L144.62 20.29C144.62 18.69 143.75 17.73 142.28 17.73ZM171.17 25.85C170.66 26.86 169.53 27.74 167.65 27.74C165.36 27.74 163.64 26.49 163.64 24.13C163.64 21.43 165.86 20.73 168.19 20.48C170.31 20.25 171.16 20.21 171.16 19.4L171.16 19.35C171.16 18.18 170.44 17.5 169.13 17.5C167.75 17.5 166.95 18.21 166.67 19.02L164.03 18.65C164.65 16.46 166.59 15.34 169.11 15.34C171.4 15.34 173.99 16.29 173.99 19.47L173.99 27.5L171.27 27.5L171.27 25.85L171.17 25.85ZM181.49 15.34C184.31 15.34 185.93 16.63 186.32 18.66L183.74 18.95C183.53 18.16 182.84 17.45 181.54 17.45C180.35 17.45 179.46 18.01 179.46 18.82C179.46 19.52 179.94 19.94 181.16 20.21L183.21 20.65C185.47 21.14 186.57 22.19 186.58 23.9C186.57 26.17 184.46 27.73 181.46 27.73C178.51 27.73 176.66 26.43 176.31 24.22L179.07 23.96C179.31 25.04 180.15 25.6 181.45 25.6C182.79 25.6 183.68 24.98 183.68 24.16C183.68 23.48 183.17 23.03 182.07 22.79L180.02 22.36C177.71 21.89 176.64 20.73 176.64 18.98C176.64 16.76 178.6 15.34 181.49 15.34ZM199.45 24.28C198.95 26.36 197.02 27.73 194.23 27.73C190.61 27.73 188.4 25.33 188.4 21.57C188.4 17.86 190.64 15.34 194.08 15.34C197.04 15.34 199.57 17.19 199.57 21.4L199.57 22.27L191.21 22.27C191.23 24.32 192.44 25.52 194.27 25.52C195.49 25.52 196.42 25 196.81 23.98L199.45 24.28ZM134.01 27.5L131.19 27.5L131.19 15.5L134.01 15.5L134.01 27.5ZM194.12 17.54C192.43 17.54 191.3 18.83 191.21 20.36L196.85 20.36C196.84 18.73 195.75 17.54 194.12 17.54ZM120.16 21.53C120.16 23.73 121.11 25.46 123.06 25.46C124.97 25.46 125.93 23.73 125.93 21.53C125.93 19.34 124.97 17.58 123.06 17.58C121.11 17.58 120.16 19.34 120.16 21.53ZM156.05 17.66C154.23 17.66 153.23 19.16 153.23 21.5C153.23 23.82 154.24 25.38 156.05 25.38C157.92 25.38 158.9 23.75 158.9 21.5C158.9 19.26 157.93 17.66 156.05 17.66ZM166.36 24.08C166.36 25.12 167.21 25.66 168.39 25.66C170.09 25.66 171.17 24.52 171.17 23.19L171.17 21.77C170.8 22.08 169.31 22.26 168.57 22.36C167.31 22.54 166.36 22.99 166.36 24.08Z" fill="#FFFFFF" fill-opacity="1.000000" fill-rule="evenodd"/>
	<rect id="Coinbase" rx="19.500000" width="319.000000" height="39.000000" transform="translate(0.500000 0.500000)" stroke="#A259FF" stroke-opacity="1.000000" stroke-width="1.000000"/>
</svg>
