<svg width="320.000000" height="72.000000" viewBox="0 0 320 72" fill="none" xmlns="http://www.w3.org/2000/svg" xmlns:xlink="http://www.w3.org/1999/xlink">
	<desc>
			Created with Pixso.
	</desc>
	<defs>
		<clipPath id="clip70_5323">
			<rect id="Metamask" rx="-0.156250" width="39.687500" height="39.687500" transform="translate(40.156250 16.156250)" fill="white" fill-opacity="0"/>
		</clipPath>
	</defs>
	<rect id="Metamask" rx="19.500000" width="319.000000" height="71.000000" transform="translate(0.500000 0.500000)" fill="#3B3B3B" fill-opacity="1.000000"/>
	<rect id="Metamask" rx="-0.500000" width="39.000000" height="39.000000" transform="translate(40.500000 16.500000)" fill="#FFFFFF" fill-opacity="0"/>
	<g clip-path="url(#clip70_5323)">
		<path id="Vector" d="M78 17.56L62.4 29.15L65.28 22.31L78 17.56Z" fill="#E2761B" fill-opacity="1.000000" fill-rule="nonzero"/>
		<path id="Vector" d="M62.4 29.15L65.28 22.31L78 17.56L62.4 29.15Z" stroke="#E2761B" stroke-opacity="1.000000" stroke-width="0.312500" stroke-linejoin="round"/>
		<path id="Vector" d="M41.97 17.56L57.45 29.26L54.71 22.31L41.97 17.56Z" fill="#E4761B" fill-opacity="1.000000" fill-rule="nonzero"/>
		<path id="Vector" d="M57.45 29.26L54.71 22.31L41.97 17.56L57.45 29.26Z" stroke="#E4761B" stroke-opacity="1.000000" stroke-width="0.312500" stroke-linejoin="round"/>
		<path id="Vector" d="M72.39 44.43L68.23 50.8L77.12 53.24L79.68 44.57L72.39 44.43Z" fill="#E4761B" fill-opacity="1.000000" fill-rule="nonzero"/>
		<path id="Vector" d="M68.23 50.8L77.12 53.24L79.68 44.57L72.39 44.43L68.23 50.8Z" stroke="#E4761B" stroke-opacity="1.000000" stroke-width="0.312500" stroke-linejoin="round"/>
		<path id="Vector" d="M40.33 44.57L42.87 53.24L51.76 50.8L47.6 44.43L40.33 44.57Z" fill="#E4761B" fill-opacity="1.000000" fill-rule="nonzero"/>
		<path id="Vector" d="M42.87 53.24L51.76 50.8L47.6 44.43L40.33 44.57L42.87 53.24Z" stroke="#E4761B" stroke-opacity="1.000000" stroke-width="0.312500" stroke-linejoin="round"/>
		<path id="Vector" d="M51.26 33.67L48.78 37.42L57.61 37.81L57.3 28.32L51.26 33.67Z" fill="#E4761B" fill-opacity="1.000000" fill-rule="nonzero"/>
		<path id="Vector" d="M48.78 37.42L57.61 37.81L57.3 28.32L51.26 33.67L48.78 37.42Z" stroke="#E4761B" stroke-opacity="1.000000" stroke-width="0.312500" stroke-linejoin="round"/>
		<path id="Vector" d="M68.72 33.67L62.6 28.21L62.4 37.81L71.21 37.42L68.72 33.67Z" fill="#E4761B" fill-opacity="1.000000" fill-rule="nonzero"/>
		<path id="Vector" d="M62.6 28.21L62.4 37.81L71.21 37.42L68.72 33.67L62.6 28.21Z" stroke="#E4761B" stroke-opacity="1.000000" stroke-width="0.312500" stroke-linejoin="round"/>
		<path id="Vector" d="M51.76 50.8L57.06 48.21L52.48 44.63L51.76 50.8Z" fill="#E4761B" fill-opacity="1.000000" fill-rule="nonzero"/>
		<path id="Vector" d="M57.06 48.21L52.48 44.63L51.76 50.8L57.06 48.21Z" stroke="#E4761B" stroke-opacity="1.000000" stroke-width="0.312500" stroke-linejoin="round"/>
		<path id="Vector" d="M62.91 48.21L68.23 50.8L67.49 44.63L62.91 48.21Z" fill="#E4761B" fill-opacity="1.000000" fill-rule="nonzero"/>
		<path id="Vector" d="M68.23 50.8L67.49 44.63L62.91 48.21L68.23 50.8Z" stroke="#E4761B" stroke-opacity="1.000000" stroke-width="0.312500" stroke-linejoin="round"/>
		<path id="Vector" d="M68.23 50.8L62.91 48.21L63.34 51.68L63.29 53.13L68.23 50.8Z" fill="#D7C1B3" fill-opacity="1.000000" fill-rule="nonzero"/>
		<path id="Vector" d="M62.91 48.21L63.34 51.68L63.29 53.13L68.23 50.8L62.91 48.21Z" stroke="#D7C1B3" stroke-opacity="1.000000" stroke-width="0.312500" stroke-linejoin="round"/>
		<path id="Vector" d="M51.76 50.8L56.7 53.13L56.67 51.68L57.06 48.21L51.76 50.8Z" fill="#D7C1B3" fill-opacity="1.000000" fill-rule="nonzero"/>
		<path id="Vector" d="M56.7 53.13L56.67 51.68L57.06 48.21L51.76 50.8L56.7 53.13Z" stroke="#D7C1B3" stroke-opacity="1.000000" stroke-width="0.312500" stroke-linejoin="round"/>
		<path id="Vector" d="M56.78 42.34L52.36 41.04L55.48 39.61L56.78 42.34Z" fill="#233447" fill-opacity="1.000000" fill-rule="nonzero"/>
		<path id="Vector" d="M52.36 41.04L55.48 39.61L56.78 42.34L52.36 41.04Z" stroke="#233447" stroke-opacity="1.000000" stroke-width="0.312500" stroke-linejoin="round"/>
		<path id="Vector" d="M63.19 42.34L64.5 39.61L67.63 41.04L63.19 42.34Z" fill="#233447" fill-opacity="1.000000" fill-rule="nonzero"/>
		<path id="Vector" d="M64.5 39.61L67.63 41.04L63.19 42.34L64.5 39.61Z" stroke="#233447" stroke-opacity="1.000000" stroke-width="0.312500" stroke-linejoin="round"/>
		<path id="Vector" d="M51.76 50.8L52.51 44.43L47.6 44.57L51.76 50.8Z" fill="#CD6116" fill-opacity="1.000000" fill-rule="nonzero"/>
		<path id="Vector" d="M52.51 44.43L47.6 44.57L51.76 50.8L52.51 44.43Z" stroke="#CD6116" stroke-opacity="1.000000" stroke-width="0.312500" stroke-linejoin="round"/>
		<path id="Vector" d="M67.48 44.43L68.23 50.8L72.39 44.57L67.48 44.43Z" fill="#CD6116" fill-opacity="1.000000" fill-rule="nonzero"/>
		<path id="Vector" d="M68.23 50.8L72.39 44.57L67.48 44.43L68.23 50.8Z" stroke="#CD6116" stroke-opacity="1.000000" stroke-width="0.312500" stroke-linejoin="round"/>
		<path id="Vector" d="M71.21 37.42L62.4 37.81L63.21 42.34L64.51 39.61L67.65 41.04L71.21 37.42Z" fill="#CD6116" fill-opacity="1.000000" fill-rule="nonzero"/>
		<path id="Vector" d="M62.4 37.81L63.21 42.34L64.51 39.61L67.65 41.04L71.21 37.42L62.4 37.81Z" stroke="#CD6116" stroke-opacity="1.000000" stroke-width="0.312500" stroke-linejoin="round"/>
		<path id="Vector" d="M52.36 41.04L55.49 39.61L56.78 42.34L57.61 37.81L48.78 37.42L52.36 41.04Z" fill="#CD6116" fill-opacity="1.000000" fill-rule="nonzero"/>
		<path id="Vector" d="M55.49 39.61L56.78 42.34L57.61 37.81L48.78 37.42L52.36 41.04L55.49 39.61Z" stroke="#CD6116" stroke-opacity="1.000000" stroke-width="0.312500" stroke-linejoin="round"/>
		<path id="Vector" d="M48.78 37.42L52.48 44.63L52.36 41.04L48.78 37.42Z" fill="#E4751F" fill-opacity="1.000000" fill-rule="nonzero"/>
		<path id="Vector" d="M52.48 44.63L52.36 41.04L48.78 37.42L52.48 44.63Z" stroke="#E4751F" stroke-opacity="1.000000" stroke-width="0.312500" stroke-linejoin="round"/>
		<path id="Vector" d="M67.65 41.04L67.49 44.63L71.21 37.42L67.65 41.04Z" fill="#E4751F" fill-opacity="1.000000" fill-rule="nonzero"/>
		<path id="Vector" d="M67.49 44.63L71.21 37.42L67.65 41.04L67.49 44.63Z" stroke="#E4751F" stroke-opacity="1.000000" stroke-width="0.312500" stroke-linejoin="round"/>
		<path id="Vector" d="M57.61 37.81L56.78 42.34L57.82 47.69L58.05 40.65L57.61 37.81Z" fill="#E4751F" fill-opacity="1.000000" fill-rule="nonzero"/>
		<path id="Vector" d="M56.78 42.34L57.82 47.69L58.05 40.65L57.61 37.81L56.78 42.34Z" stroke="#E4751F" stroke-opacity="1.000000" stroke-width="0.312500" stroke-linejoin="round"/>
		<path id="Vector" d="M62.4 37.81L61.97 40.63L62.16 47.69L63.21 42.34L62.4 37.81Z" fill="#E4751F" fill-opacity="1.000000" fill-rule="nonzero"/>
		<path id="Vector" d="M61.97 40.63L62.16 47.69L63.21 42.34L62.4 37.81L61.97 40.63Z" stroke="#E4751F" stroke-opacity="1.000000" stroke-width="0.312500" stroke-linejoin="round"/>
		<path id="Vector" d="M63.21 42.34L62.16 47.69L62.91 48.21L67.49 44.63L67.65 41.04L63.21 42.34Z" fill="#F6851B" fill-opacity="1.000000" fill-rule="nonzero"/>
		<path id="Vector" d="M62.16 47.69L62.91 48.21L67.49 44.63L67.65 41.04L63.21 42.34L62.16 47.69Z" stroke="#F6851B" stroke-opacity="1.000000" stroke-width="0.312500" stroke-linejoin="round"/>
		<path id="Vector" d="M52.36 41.04L52.48 44.63L57.06 48.21L57.82 47.69L56.78 42.34L52.36 41.04Z" fill="#F6851B" fill-opacity="1.000000" fill-rule="nonzero"/>
		<path id="Vector" d="M52.48 44.63L57.06 48.21L57.82 47.69L56.78 42.34L52.36 41.04L52.48 44.63Z" stroke="#F6851B" stroke-opacity="1.000000" stroke-width="0.312500" stroke-linejoin="round"/>
		<path id="Vector" d="M63.29 53.13L63.34 51.68L62.94 51.33L57.03 51.33L56.67 51.68L56.7 53.13L51.76 50.8L53.49 52.21L56.98 54.64L62.99 54.64L66.5 52.21L68.23 50.8L63.29 53.13Z" fill="#C0AD9E" fill-opacity="1.000000" fill-rule="nonzero"/>
		<path id="Vector" d="M63.34 51.68L62.94 51.33L57.03 51.33L56.67 51.68L56.7 53.13L51.76 50.8L53.49 52.21L56.98 54.64L62.99 54.64L66.5 52.21L68.23 50.8L63.29 53.13L63.34 51.68Z" stroke="#C0AD9E" stroke-opacity="1.000000" stroke-width="0.312500" stroke-linejoin="round"/>
		<path id="Vector" d="M62.91 48.21L62.16 47.69L57.81 47.69L57.06 48.21L56.67 51.68L57.03 51.33L62.94 51.33L63.33 51.68L62.91 48.21Z" fill="#161616" fill-opacity="1.000000" fill-rule="nonzero"/>
		<path id="Vector" d="M62.16 47.69L57.81 47.69L57.06 48.21L56.67 51.68L57.03 51.33L62.94 51.33L63.33 51.68L62.91 48.21L62.16 47.69Z" stroke="#161616" stroke-opacity="1.000000" stroke-width="0.312500" stroke-linejoin="round"/>
		<path id="Vector" d="M78.66 29.9L80 23.5L78 17.56L62.91 28.76L68.72 33.67L76.92 36.07L78.74 33.95L77.96 33.38L79.21 32.24L78.24 31.49L79.49 30.53L78.66 29.9Z" fill="#763D16" fill-opacity="1.000000" fill-rule="nonzero"/>
		<path id="Vector" d="M80 23.5L78 17.56L62.91 28.76L68.72 33.67L76.92 36.07L78.74 33.95L77.96 33.38L79.21 32.24L78.24 31.49L79.49 30.53L78.66 29.9L80 23.5Z" stroke="#763D16" stroke-opacity="1.000000" stroke-width="0.312500" stroke-linejoin="round"/>
		<path id="Vector" d="M40 23.5L41.33 29.9L40.48 30.53L41.74 31.49L40.78 32.24L42.03 33.38L41.25 33.95L43.05 36.07L51.26 33.67L57.06 28.76L41.97 17.56L40 23.5Z" fill="#763D16" fill-opacity="1.000000" fill-rule="nonzero"/>
		<path id="Vector" d="M41.33 29.9L40.48 30.53L41.74 31.49L40.78 32.24L42.03 33.38L41.25 33.95L43.05 36.07L51.26 33.67L57.06 28.76L41.97 17.56L40 23.5L41.33 29.9Z" stroke="#763D16" stroke-opacity="1.000000" stroke-width="0.312500" stroke-linejoin="round"/>
		<path id="Vector" d="M76.92 36.07L68.72 33.67L71.21 37.42L67.49 44.63L72.39 44.57L79.68 44.57L76.92 36.07Z" fill="#F6851B" fill-opacity="1.000000" fill-rule="nonzero"/>
		<path id="Vector" d="M68.72 33.67L71.21 37.42L67.49 44.63L72.39 44.57L79.68 44.57L76.92 36.07L68.72 33.67Z" stroke="#F6851B" stroke-opacity="1.000000" stroke-width="0.312500" stroke-linejoin="round"/>
		<path id="Vector" d="M51.26 33.67L43.05 36.07L40.33 44.57L47.6 44.57L52.48 44.63L48.78 37.42L51.26 33.67Z" fill="#F6851B" fill-opacity="1.000000" fill-rule="nonzero"/>
		<path id="Vector" d="M43.05 36.07L40.33 44.57L47.6 44.57L52.48 44.63L48.78 37.42L51.26 33.67L43.05 36.07Z" stroke="#F6851B" stroke-opacity="1.000000" stroke-width="0.312500" stroke-linejoin="round"/>
		<path id="Vector" d="M62.39 37.81L62.91 28.76L65.3 22.31L54.71 22.31L57.06 28.76L57.61 37.81L57.8 40.66L57.81 47.69L62.16 47.69L62.19 40.66L62.39 37.81Z" fill="#F6851B" fill-opacity="1.000000" fill-rule="nonzero"/>
		<path id="Vector" d="M62.91 28.76L65.3 22.31L54.71 22.31L57.06 28.76L57.61 37.81L57.8 40.66L57.81 47.69L62.16 47.69L62.19 40.66L62.39 37.81L62.91 28.76Z" stroke="#F6851B" stroke-opacity="1.000000" stroke-width="0.312500" stroke-linejoin="round"/>
	</g>
	<path id="Metamask" d="M101.57 43.5L101.57 27.49L105.12 27.49L109.87 39.09L110.06 39.09L114.81 27.49L118.35 27.49L118.35 43.5L115.57 43.5L115.57 32.5L115.43 32.5L111 43.45L108.93 43.45L104.5 32.48L104.36 32.48L104.36 43.5L101.57 43.5ZM202.72 43.5L199.9 43.5L199.9 27.49L202.72 27.49L202.72 36.31L202.91 36.31L207.23 31.5L210.54 31.5L205.89 36.67L210.81 43.5L207.43 43.5L203.75 38.36L202.72 39.46L202.72 43.5ZM138.05 31.5L140.42 31.5L140.42 33.68L138.05 33.68L138.05 39.89C138.05 41.02 138.62 41.28 139.33 41.28C139.68 41.28 140 41.21 140.16 41.17L140.64 43.38C140.33 43.48 139.78 43.63 138.97 43.66C136.84 43.72 135.21 42.61 135.22 40.35L135.22 33.68L133.52 33.68L133.52 31.5L135.22 31.5L135.22 28.62L138.05 28.62L138.05 31.5ZM131.92 40.28C131.42 42.36 129.49 43.73 126.7 43.73C123.08 43.73 120.87 41.33 120.87 37.57C120.87 33.86 123.11 31.34 126.55 31.34C129.5 31.34 132.03 33.19 132.03 37.4L132.03 38.27L123.68 38.27C123.7 40.32 124.91 41.52 126.74 41.52C127.96 41.52 128.89 41 129.28 39.98L131.92 40.28ZM149.76 41.85C149.24 42.86 148.12 43.74 146.24 43.74C143.95 43.74 142.22 42.49 142.22 40.13C142.22 37.43 144.45 36.73 146.78 36.48C148.89 36.25 149.75 36.21 149.75 35.4L149.75 35.35C149.75 34.18 149.03 33.5 147.71 33.5C146.33 33.5 145.54 34.21 145.25 35.02L142.62 34.65C143.24 32.46 145.18 31.34 147.7 31.34C149.99 31.34 152.57 32.29 152.57 35.47L152.57 43.5L149.86 43.5L149.86 41.85L149.76 41.85ZM158.25 43.5L155.43 43.5L155.43 31.5L158.13 31.5L158.13 33.53L158.27 33.53C158.77 32.17 159.97 31.34 161.58 31.34C163.2 31.34 164.37 32.17 164.82 33.53L164.95 33.53C165.48 32.2 166.81 31.34 168.55 31.34C170.75 31.34 172.3 32.76 172.3 35.44L172.3 43.5L169.46 43.5L169.46 35.88C169.46 34.39 168.56 33.72 167.42 33.72C166.05 33.72 165.25 34.66 165.25 36.01L165.25 43.5L162.47 43.5L162.47 35.76C162.47 34.53 161.65 33.72 160.45 33.72C159.24 33.72 158.25 34.72 158.25 36.2L158.25 43.5ZM182.15 41.85C181.63 42.86 180.51 43.74 178.63 43.74C176.34 43.74 174.61 42.49 174.61 40.13C174.61 37.43 176.84 36.73 179.17 36.48C181.28 36.25 182.14 36.21 182.14 35.4L182.14 35.35C182.14 34.18 181.42 33.5 180.1 33.5C178.72 33.5 177.93 34.21 177.64 35.02L175.01 34.65C175.63 32.46 177.57 31.34 180.09 31.34C182.38 31.34 184.96 32.29 184.96 35.47L184.96 43.5L182.25 43.5L182.25 41.85L182.15 41.85ZM192.47 31.34C195.28 31.34 196.91 32.63 197.3 34.66L194.72 34.95C194.51 34.16 193.82 33.45 192.51 33.45C191.33 33.45 190.43 34.01 190.44 34.82C190.43 35.52 190.92 35.94 192.14 36.21L194.18 36.65C196.45 37.14 197.55 38.19 197.56 39.9C197.55 42.17 195.43 43.73 192.43 43.73C189.49 43.73 187.64 42.43 187.29 40.22L190.04 39.96C190.28 41.04 191.13 41.6 192.43 41.6C193.77 41.6 194.66 40.98 194.66 40.16C194.66 39.48 194.15 39.03 193.04 38.79L191 38.36C188.69 37.89 187.61 36.73 187.62 34.98C187.61 32.76 189.58 31.34 192.47 31.34ZM126.59 33.54C124.9 33.54 123.77 34.83 123.68 36.36L129.32 36.36C129.31 34.73 128.22 33.54 126.59 33.54ZM144.95 40.08C144.95 41.12 145.79 41.66 146.97 41.66C148.67 41.66 149.75 40.52 149.75 39.19L149.75 37.77C149.39 38.08 147.9 38.26 147.16 38.36C145.89 38.54 144.95 38.99 144.95 40.08ZM177.34 40.08C177.34 41.12 178.19 41.66 179.36 41.66C181.06 41.66 182.14 40.52 182.14 39.19L182.14 37.77C181.78 38.08 180.29 38.26 179.55 38.36C178.28 38.54 177.34 38.99 177.34 40.08Z" fill="#FFFFFF" fill-opacity="1.000000" fill-rule="evenodd"/>
	<rect id="Metamask" rx="19.500000" width="319.000000" height="71.000000" transform="translate(0.500000 0.500000)" stroke="#A259FF" stroke-opacity="1.000000" stroke-width="1.000000"/>
</svg>
