<svg width="320.000000" height="72.000000" viewBox="0 0 320 72" fill="none" xmlns="http://www.w3.org/2000/svg" xmlns:xlink="http://www.w3.org/1999/xlink">
	<desc>
			Created with Pixso.
	</desc>
	<defs>
		<clipPath id="clip70_5279">
			<rect id="WalletConnect" rx="-0.156250" width="39.687500" height="39.687500" transform="translate(40.156250 16.156250)" fill="white" fill-opacity="0"/>
		</clipPath>
		<radialGradient gradientTransform="translate(40.0001 36.0006) rotate(0) scale(40 40)" cx="0.000000" cy="0.000000" r="1.000000" id="paint_radial_70_5280_0" gradientUnits="userSpaceOnUse">
			<stop stop-color="#5D9DF6"/>
			<stop offset="1.000000" stop-color="#006FFF"/>
		</radialGradient>
	</defs>
	<rect id="Wallet Connect" rx="19.500000" width="319.000000" height="71.000000" transform="translate(0.500000 0.500000)" fill="#3B3B3B" fill-opacity="1.000000"/>
	<rect id="WalletConnect" rx="-0.500000" width="39.000000" height="39.000000" transform="translate(40.500000 16.500000)" fill="#FFFFFF" fill-opacity="0"/>
	<rect id="WalletConnect" rx="-0.156250" width="39.687500" height="39.687500" transform="translate(40.156250 16.156250)" fill="#FFFFFF" fill-opacity="0"/>
	<g clip-path="url(#clip70_5279)">
		<path id="Vector" d="M80 36C80 47.04 71.04 56 60 56C48.95 56 40 47.04 40 36C40 24.95 48.95 16 60 16C71.04 16 80 24.95 80 36Z" fill="url(#paint_radial_70_5280_0)" fill-opacity="1.000000" fill-rule="evenodd"/>
		<path id="Vector" d="M52.55 31.44C56.58 27.51 63.11 27.51 67.13 31.44L67.62 31.92C67.82 32.11 67.82 32.43 67.62 32.63L65.96 34.25C65.86 34.35 65.69 34.35 65.59 34.25L64.93 33.6C62.12 30.86 57.57 30.86 54.76 33.6L54.05 34.29C53.94 34.4 53.78 34.4 53.68 34.29L52.02 32.68C51.82 32.48 51.82 32.16 52.02 31.97L52.55 31.44ZM70.56 34.79L72.04 36.22C72.24 36.42 72.24 36.74 72.04 36.93L65.39 43.43C65.19 43.62 64.86 43.62 64.66 43.43L59.94 38.82C59.9 38.77 59.81 38.77 59.76 38.82L55.05 43.43C54.84 43.62 54.51 43.62 54.32 43.43L47.65 36.93C47.44 36.74 47.44 36.42 47.65 36.22L49.12 34.79C49.33 34.59 49.66 34.59 49.85 34.79L54.57 39.4C54.62 39.44 54.7 39.44 54.75 39.4L59.47 34.79C59.67 34.59 60 34.59 60.19 34.79L64.91 39.4C64.96 39.44 65.05 39.44 65.09 39.4L69.81 34.79C70.03 34.59 70.36 34.59 70.56 34.79Z" fill="#FFFFFF" fill-opacity="1.000000" fill-rule="nonzero"/>
	</g>
	<path id="Metamask" d="M180.38 27.27C183.93 27.27 186.66 29.34 187.15 32.89L184.23 32.89C183.89 30.98 182.37 29.88 180.42 29.88C177.81 29.88 175.97 31.89 175.97 35.5C175.97 39.17 177.82 41.11 180.42 41.11C182.33 41.11 183.86 40.06 184.23 38.18L187.15 38.2C186.71 41.26 184.18 43.72 180.38 43.72C176.16 43.72 173.05 40.66 173.05 35.5C173.05 30.33 176.2 27.27 180.38 27.27ZM107.8 43.5L104.94 43.5L100.43 27.49L103.54 27.49L106.42 39.25L106.58 39.25L109.65 27.49L112.49 27.49L115.57 39.26L115.72 39.26L118.6 27.49L121.72 27.49L117.2 43.5L114.34 43.5L111.14 32.27L111.01 32.27L107.8 43.5ZM135 27.49L137.83 27.49L137.83 43.5L135 43.5L135 27.49ZM140.74 27.49L143.57 27.49L143.57 43.5L140.74 43.5L140.74 27.49ZM163.13 31.5L165.5 31.5L165.5 33.68L163.13 33.68L163.13 39.89C163.13 41.02 163.71 41.28 164.42 41.28C164.77 41.28 165.09 41.21 165.24 41.17L165.72 43.38C165.42 43.48 164.86 43.63 164.06 43.66C161.93 43.72 160.29 42.61 160.31 40.35L160.31 33.68L158.61 33.68L158.61 31.5L160.31 31.5L160.31 28.62L163.13 28.62L163.13 31.5ZM259.26 31.5L261.63 31.5L261.63 33.68L259.26 33.68L259.26 39.89C259.26 41.02 259.83 41.28 260.54 41.28C260.89 41.28 261.21 41.21 261.37 41.17L261.85 43.38C261.54 43.48 260.99 43.63 260.18 43.66C258.06 43.72 256.42 42.61 256.43 40.35L256.43 33.68L254.73 33.68L254.73 31.5L256.43 31.5L256.43 28.62L259.26 28.62L259.26 31.5ZM129.34 41.85C128.82 42.86 127.7 43.74 125.81 43.74C123.53 43.74 121.8 42.49 121.8 40.13C121.8 37.43 124.02 36.73 126.36 36.48C128.47 36.25 129.33 36.21 129.33 35.4L129.33 35.35C129.33 34.18 128.61 33.5 127.29 33.5C125.91 33.5 125.12 34.21 124.83 35.02L122.19 34.65C122.82 32.46 124.76 31.34 127.27 31.34C129.57 31.34 132.15 32.29 132.15 35.47L132.15 43.5L129.43 43.5L129.43 41.85L129.34 41.85ZM157 40.28C156.5 42.36 154.58 43.73 151.79 43.73C148.17 43.73 145.96 41.33 145.96 37.57C145.96 33.86 148.2 31.34 151.64 31.34C154.59 31.34 157.12 33.19 157.12 37.4L157.12 38.27L148.76 38.27C148.78 40.32 150 41.52 151.82 41.52C153.04 41.52 153.98 41 154.36 39.98L157 40.28ZM200.68 37.54C200.68 41.26 198.44 43.73 194.92 43.73C191.41 43.73 189.18 41.26 189.18 37.54C189.18 33.82 191.41 31.34 194.92 31.34C198.44 31.34 200.68 33.82 200.68 37.54ZM208.43 33.73C206.94 33.73 205.89 34.73 205.89 36.46L205.89 43.5L203.07 43.5L203.07 31.5L205.77 31.5L205.77 33.53L205.91 33.53C206.46 32.2 207.69 31.34 209.49 31.34C211.96 31.34 213.61 32.98 213.6 35.85L213.6 43.5L210.77 43.5L210.77 36.29C210.77 34.69 209.89 33.73 208.43 33.73ZM221.85 33.73C220.35 33.73 219.31 34.73 219.31 36.46L219.31 43.5L216.48 43.5L216.48 31.5L219.18 31.5L219.18 33.53L219.32 33.53C219.87 32.2 221.11 31.34 222.9 31.34C225.38 31.34 227.02 32.98 227.01 35.85L227.01 43.5L224.18 43.5L224.18 36.29C224.18 34.69 223.31 33.73 221.85 33.73ZM240.42 40.28C239.92 42.36 238 43.73 235.21 43.73C231.59 43.73 229.38 41.33 229.38 37.57C229.38 33.86 231.62 31.34 235.06 31.34C238.01 31.34 240.54 33.19 240.54 37.4L240.54 38.27L232.18 38.27C232.21 40.32 233.42 41.52 235.25 41.52C236.47 41.52 237.4 41 237.79 39.98L240.42 40.28ZM253.31 39.39C253.1 41.94 251.19 43.73 248.17 43.73C244.58 43.73 242.42 41.17 242.42 37.54C242.42 33.88 244.64 31.34 248.15 31.34C251.08 31.34 253.11 33.05 253.31 35.65L250.61 35.65C250.39 34.49 249.55 33.62 248.19 33.62C246.45 33.62 245.28 35.07 245.28 37.5C245.28 39.95 246.43 41.43 248.19 41.43C249.43 41.43 250.36 40.68 250.61 39.39L253.31 39.39ZM151.67 33.54C149.99 33.54 148.85 34.83 148.77 36.36L154.41 36.36C154.39 34.73 153.3 33.54 151.67 33.54ZM235.1 33.54C233.41 33.54 232.28 34.83 232.19 36.36L237.83 36.36C237.81 34.73 236.72 33.54 235.1 33.54ZM192.04 37.53C192.04 39.73 193 41.46 194.94 41.46C196.85 41.46 197.81 39.73 197.81 37.53C197.81 35.34 196.85 33.58 194.94 33.58C193 33.58 192.04 35.34 192.04 37.53ZM124.52 40.08C124.52 41.12 125.37 41.66 126.55 41.66C128.25 41.66 129.33 40.52 129.33 39.19L129.33 37.77C128.97 38.08 127.48 38.26 126.74 38.36C125.47 38.54 124.52 38.99 124.52 40.08Z" fill="#FFFFFF" fill-opacity="1.000000" fill-rule="evenodd"/>
	<rect id="Wallet Connect" rx="19.500000" width="319.000000" height="71.000000" transform="translate(0.500000 0.500000)" stroke="#A259FF" stroke-opacity="1.000000" stroke-width="1.000000"/>
</svg>
