<svg width="179.000000" height="60.000000" viewBox="0 0 179 60" fill="none" xmlns="http://www.w3.org/2000/svg" xmlns:xlink="http://www.w3.org/1999/xlink">
	<desc>
			Created with Pixso.
	</desc>
	<defs/>
	<rect id="Button" rx="19.500000" width="178.000000" height="59.000000" transform="translate(0.500000 0.500000)" fill="#A259FF" fill-opacity="1.000000"/>
	<path id="Button" d="M108.19 24.92C108.19 25.53 107.66 26.03 107 26.03C106.35 26.03 105.81 25.53 105.81 24.92C105.81 24.3 106.35 23.8 107 23.8C107.66 23.8 108.19 24.3 108.19 24.92ZM59.84 27.56L57.81 27.56C57.7 26.57 56.87 25.98 55.62 25.98C54.3 25.98 53.51 26.62 53.51 27.5C53.5 28.47 54.53 28.87 55.49 29.1L56.58 29.37C58.33 29.79 59.99 30.71 60 32.73C59.99 34.78 58.37 36.17 55.58 36.17C52.87 36.17 51.15 34.87 51.07 32.56L53.14 32.56C53.23 33.78 54.25 34.37 55.57 34.37C56.94 34.37 57.89 33.71 57.89 32.71C57.89 31.81 57.05 31.42 55.8 31.1L54.48 30.76C52.56 30.26 51.37 29.3 51.37 27.63C51.37 25.57 53.2 24.2 55.65 24.2C58.12 24.2 59.8 25.59 59.84 27.56ZM73.63 36L71.61 36L71.61 24.36L73.66 24.36L73.66 28.71L73.75 28.71C74.06 28.08 74.7 27.16 76.24 27.16C78.26 27.16 79.84 28.73 79.84 31.64C79.84 34.52 78.31 36.15 76.25 36.15C74.75 36.15 74.07 35.26 73.75 34.62L73.63 34.62L73.63 36ZM112.26 36L110.23 36L110.23 24.36L112.29 24.36L112.29 28.71L112.37 28.71C112.69 28.08 113.33 27.16 114.87 27.16C116.88 27.16 118.47 28.73 118.47 31.64C118.47 34.52 116.93 36.15 114.87 36.15C113.37 36.15 112.7 35.26 112.37 34.62L112.26 34.62L112.26 36ZM101.68 36L99.62 36L99.62 27.27L101.62 27.27L101.62 28.72L101.71 28.72C102.03 27.71 102.86 27.14 103.86 27.14C104.09 27.14 104.41 27.17 104.6 27.2L104.6 29.09C104.43 29.03 103.99 28.97 103.64 28.97C102.52 28.97 101.68 29.76 101.68 30.87L101.68 36ZM84.98 27.16C87.03 27.16 88.22 28.1 88.5 29.57L86.62 29.78C86.47 29.21 85.97 28.69 85.02 28.69C84.16 28.69 83.5 29.1 83.51 29.69C83.5 30.19 83.86 30.5 84.74 30.7L86.23 31.02C87.88 31.37 88.68 32.14 88.68 33.38C88.68 35.03 87.14 36.17 84.96 36.17C82.82 36.17 81.47 35.22 81.22 33.62L83.22 33.42C83.39 34.21 84.01 34.62 84.95 34.62C85.93 34.62 86.58 34.17 86.58 33.57C86.58 33.07 86.2 32.75 85.4 32.57L83.91 32.26C82.23 31.92 81.45 31.07 81.46 29.8C81.45 28.19 82.88 27.16 84.98 27.16ZM97.93 33.01C97.78 34.87 96.39 36.17 94.19 36.17C91.58 36.17 90.01 34.31 90.01 31.67C90.01 29 91.62 27.16 94.18 27.16C96.31 27.16 97.79 28.4 97.93 30.29L95.96 30.29C95.8 29.45 95.2 28.81 94.21 28.81C92.94 28.81 92.09 29.87 92.09 31.63C92.09 33.42 92.93 34.49 94.21 34.49C95.11 34.49 95.79 33.95 95.96 33.01L97.93 33.01ZM127.88 33.66C127.52 35.17 126.12 36.17 124.09 36.17C121.46 36.17 119.85 34.42 119.85 31.68C119.85 28.99 121.48 27.16 123.98 27.16C126.13 27.16 127.97 28.5 127.97 31.56L127.97 32.19L121.89 32.19C121.91 33.69 122.79 34.56 124.12 34.56C125 34.56 125.68 34.18 125.97 33.44L127.88 33.66ZM65.49 34.31C66.4 34.31 67.35 33.66 67.35 32.32L67.35 27.27L69.4 27.27L69.4 36L67.41 36L67.41 34.44L67.32 34.44C66.92 35.42 66 36.11 64.69 36.11C62.98 36.11 61.78 34.92 61.78 32.82L61.78 27.27L63.84 27.27L63.84 32.51C63.84 33.62 64.5 34.31 65.49 34.31ZM108.03 36L105.97 36L105.97 27.27L108.03 27.27L108.03 36ZM124.01 28.76C122.78 28.76 121.96 29.69 121.9 30.81L126 30.81C125.99 29.62 125.19 28.76 124.01 28.76ZM75.67 28.84C74.35 28.84 73.62 29.94 73.62 31.63C73.62 33.32 74.36 34.46 75.67 34.46C77.03 34.46 77.75 33.27 77.75 31.63C77.75 30.01 77.04 28.84 75.67 28.84ZM114.3 28.84C112.97 28.84 112.25 29.94 112.25 31.63C112.25 33.32 112.99 34.46 114.3 34.46C115.66 34.46 116.37 33.27 116.37 31.63C116.37 30.01 115.67 28.84 114.3 28.84Z" fill="#FFFFFF" fill-opacity="1.000000" fill-rule="evenodd"/>
</svg>
