<svg width="50.000000" height="32.000000" viewBox="0 0 50 32" fill="none" xmlns="http://www.w3.org/2000/svg" xmlns:xlink="http://www.w3.org/1999/xlink">
	<desc>
			Created with Pixso.
	</desc>
	<defs/>
	<rect id="Frame 81" rx="15.500000" width="49.000000" height="31.000000" transform="translate(0.500000 0.500000)" fill="#858584" fill-opacity="1.000000"/>
	<path id="302" d="M21.79 11.77Q20.75 12.97 20.75 15.15L20.75 17.64Q20.75 19.88 21.79 21.05Q22.05 21.35 22.37 21.57Q23.3 22.22 24.68 22.22Q26.07 22.22 27.01 21.56Q27.32 21.34 27.58 21.05Q28.62 19.88 28.62 17.64L28.62 15.15Q28.62 12.97 27.58 11.77Q27.29 11.43 26.93 11.19Q26.02 10.57 24.68 10.57Q23.35 10.57 22.44 11.19Q22.08 11.43 21.79 11.77ZM38.28 22L38.28 20.75L32.04 20.75L32.04 20.27Q32.04 19.53 32.39 19.04Q32.54 18.83 32.76 18.66Q33.48 18.11 35.02 17.77Q36.78 17.39 37.58 16.48Q37.88 16.14 38.07 15.74Q38.38 15.09 38.38 14.3L38.38 14.01Q38.38 13.81 38.36 13.61Q38.31 13.18 38.15 12.76Q38.08 12.59 38 12.42Q37.78 12 37.43 11.65Q36.95 11.16 36.24 10.87Q35.52 10.57 34.54 10.57Q33.58 10.57 32.84 10.89Q32.15 11.19 31.66 11.7Q31.64 11.73 31.61 11.76Q31.42 11.96 31.27 12.19Q31.02 12.57 30.86 13Q30.79 13.18 30.74 13.37Q30.6 13.9 30.6 14.48L30.6 15.28L31.95 15.28L31.95 14.57Q31.95 13.48 32.46 12.77Q32.54 12.67 32.63 12.57Q32.77 12.41 32.95 12.28Q33.58 11.82 34.54 11.82Q35.2 11.82 35.66 12.02Q36.14 12.22 36.44 12.55Q36.64 12.77 36.77 13.03Q36.84 13.16 36.89 13.31Q36.98 13.56 37.01 13.81Q37.04 13.98 37.04 14.16L37.04 14.25Q37.04 14.68 36.88 15.04Q36.72 15.41 36.4 15.71Q35.77 16.3 34.35 16.62Q33.5 16.81 32.83 17.08Q32.15 17.35 31.68 17.76Q31.47 17.95 31.3 18.16Q31.1 18.43 30.95 18.74Q30.7 19.31 30.7 20.07L30.7 22L38.28 22ZM13.79 14.57L13.79 16.43L15.29 16.43Q15.99 16.43 16.52 16.73Q16.72 16.84 16.89 17Q17.06 17.15 17.18 17.33Q17.53 17.83 17.53 18.57L17.53 18.67Q17.53 18.99 17.45 19.28Q17.4 19.43 17.34 19.57Q17.23 19.81 17.08 20.01Q16.96 20.17 16.81 20.31Q16.79 20.33 16.77 20.35Q16.45 20.63 16.02 20.8Q15.56 20.97 15.03 20.97Q14.46 20.97 13.96 20.8Q13.48 20.62 13.12 20.31Q13.12 20.3 13.11 20.29Q13.04 20.23 12.98 20.16Q12.71 19.87 12.55 19.49Q12.35 19.02 12.35 18.41L12.35 17.64L11 17.64L11 18.51Q11 19.13 11.19 19.7Q11.23 19.83 11.28 19.96Q11.43 20.33 11.66 20.65Q11.85 20.91 12.09 21.14Q12.62 21.64 13.37 21.93Q14.12 22.22 15.07 22.22Q15.88 22.22 16.58 21.96Q17.28 21.69 17.79 21.24Q18.04 21.01 18.24 20.75Q18.44 20.47 18.58 20.16Q18.66 19.99 18.72 19.81Q18.87 19.34 18.87 18.81L18.87 18.52Q18.87 17.76 18.59 17.17Q18.35 16.65 17.96 16.28Q17.91 16.23 17.86 16.19Q17.73 16.08 17.59 15.98Q17.23 15.73 16.81 15.58Q16.59 15.5 16.38 15.46Q15.99 15.37 15.58 15.37L14.94 15.37L14.94 15.18L18.59 12.84L18.59 10.8L11.1 10.8L11.1 12.04L17.44 12.04L17.44 12.23L13.79 14.57ZM26.15 20.58Q25.56 21 24.68 21Q23.81 21 23.23 20.59Q22.95 20.39 22.74 20.1Q22.09 19.19 22.09 17.55L22.09 15.24Q22.09 14.48 22.25 13.84Q22.41 13.21 22.74 12.76Q22.97 12.44 23.27 12.22Q23.4 12.12 23.54 12.05Q24.03 11.79 24.68 11.79Q25.32 11.79 25.81 12.05Q26 12.15 26.17 12.28Q26.43 12.48 26.63 12.76Q26.96 13.21 27.12 13.84Q27.28 14.48 27.28 15.24L27.28 17.55Q27.28 19.19 26.63 20.1Q26.42 20.39 26.15 20.58ZM23.72 16.06Q23.66 16.21 23.66 16.39Q23.66 16.58 23.72 16.75Q23.79 16.95 23.96 17.12Q24.14 17.29 24.34 17.36Q24.5 17.42 24.68 17.42Q24.87 17.42 25.03 17.36Q25.24 17.28 25.4 17.12Q25.57 16.95 25.65 16.75Q25.71 16.58 25.71 16.39Q25.71 16.21 25.65 16.06Q25.58 15.85 25.4 15.67Q25.24 15.51 25.03 15.43Q24.87 15.37 24.68 15.37Q24.5 15.37 24.34 15.43Q24.14 15.5 23.96 15.67Q23.79 15.85 23.72 16.06Z" fill="#FFFFFF" fill-opacity="1.000000" fill-rule="evenodd"/>
</svg>
